<svg width="250" height="436" viewBox="0 0 250 436" fill="none" xmlns="http://www.w3.org/2000/svg">
<g clip-path="url(#clip0_737_1607)">
<rect width="250" height="900" fill="#AA2739"/>
<path d="M19.0396 53.9246C18.2368 53.2362 17.5486 52.0889 16.9751 50.5973L2.06454 12.2759V43.4838L4.12908 49.2205C4.70256 50.5973 4.93195 51.7447 4.93195 52.5478C4.93195 53.4657 4.58786 54.0394 3.78499 54.3836C3.3262 54.613 2.75272 54.7278 1.94984 54.8425C1.37636 54.9573 0.68818 54.9573 0 55.072V56.4488H21.2189V55.072C20.5307 54.9573 19.8425 54.613 19.0396 53.9246Z" fill="#B0273A"/>
<path d="M28.5626 129.994L16.9783 160.169H15.2578L26.9569 129.879L28.5626 129.994Z" fill="#B0273A"/>
<path d="M19.8429 177.036C19.04 176.347 18.3519 175.2 17.7784 173.708L2.06493 132.978V164.071L5.04705 172.217C5.62053 173.594 5.84992 174.741 5.84992 175.544C5.84992 176.462 5.50583 177.036 4.70296 177.38C4.12947 177.609 3.2119 177.839 1.95024 177.954C1.60615 177.954 1.26206 177.954 0.917969 178.068V179.445H22.1368V178.068C21.4487 178.068 20.6458 177.724 19.8429 177.036Z" fill="#B0273A"/>
<path d="M48.9767 78.3628L37.3923 108.538L35.6719 108.423L47.3709 78.248L48.9767 78.3628Z" fill="#B0273A"/>
<path d="M6.65036 107.735L13.8763 88.9184L20.758 107.735H6.65036ZM40.3712 125.289C39.5683 124.601 38.8801 123.454 38.3066 121.962L21.2168 78.248H16.3996L2.0625 115.193V127.928H8.48551V126.551C6.42097 126.437 4.92992 126.092 3.89765 125.404C2.86538 124.716 2.29189 123.568 2.29189 121.847C2.29189 120.012 2.98007 117.487 4.24174 114.045L6.07688 109.226H21.3315L25.4606 120.7C26.0341 122.077 26.2635 123.224 26.2635 124.027C26.2635 124.945 25.9194 125.519 25.1165 125.863C24.4283 126.207 23.1667 126.437 21.3315 126.551V127.928H42.5504V126.551C41.8622 126.437 41.174 125.978 40.3712 125.289Z" fill="#B0273A"/>
<path d="M68.7032 26.8477L57.1189 57.0229H55.3984L67.0975 26.8477H68.7032Z" fill="#B0273A"/>
<path d="M40.4882 56.2198L33.6064 37.4033L26.3805 56.2198H40.4882ZM59.9866 73.889C60.7895 74.5774 61.5924 74.9216 62.2805 75.0363V76.4131H41.0617V75.0363C42.7821 74.9216 44.0438 74.6921 44.8466 74.3479C45.5348 74.0037 45.9936 73.43 45.9936 72.5121C45.9936 71.709 45.7642 70.5616 45.1907 69.1848L40.947 57.7113H25.6923L23.8572 62.5302C22.5955 65.8575 21.9073 68.4964 21.9073 70.3322C21.9073 72.0532 22.4808 73.3153 23.5131 73.889C24.5454 74.5774 26.1511 74.9216 28.1009 75.0363V76.4131H14.2227V75.0363C16.5166 74.5774 18.4664 72.1679 20.1869 67.6933L36.1297 26.8477H40.947L57.9221 70.5616C58.4955 72.0532 59.1837 73.2005 59.9866 73.889Z" fill="#B0273A"/>
<path d="M78.1064 3.90137L77.5329 5.39292H75.8125L76.386 3.90137H78.1064Z" fill="#B0273A"/>
<path d="M80.5154 22.2599C79.7125 21.5715 79.0243 20.4242 78.3361 18.9326L72.4866 3.90234H60.6729L60.9022 4.70549H46.7946L47.024 3.90234H45.4182L40.6009 15.9495C38.8805 20.4242 36.9307 22.8336 34.6367 23.2925V24.6694H48.6297V23.2925C46.5652 23.1778 45.0741 22.8336 44.0418 22.1452C43.0096 21.4568 42.4361 20.3094 42.4361 18.5884C42.4361 16.7526 43.1243 14.2285 44.3859 10.7864L46.2211 5.96757H61.4757L65.7195 17.4411C66.293 18.8179 66.5224 19.9652 66.5224 20.7684C66.5224 21.6863 66.1783 22.2599 65.3754 22.6041C64.6872 22.9483 63.4256 23.1778 61.5904 23.2925V24.6694H82.8093V23.2925C82.0064 23.2925 81.2035 22.9483 80.5154 22.2599Z" fill="#B0273A"/>
<path d="M69.504 149.384L58.0344 179.56H56.1992L67.8983 149.27L69.504 149.384Z" fill="#B0273A"/>
<path d="M41.2915 178.756L34.4097 159.939L27.1838 178.756H41.2915ZM60.9046 196.425C61.7074 197.113 62.5103 197.458 63.1985 197.572V198.949H41.9796V197.572C43.7001 197.458 44.9617 197.228 45.7646 196.884C46.4528 196.54 46.9116 195.966 46.9116 195.048C46.9116 194.245 46.6822 193.098 46.1087 191.721L41.8649 180.247H26.6103L24.7751 185.066C23.5135 188.394 22.8253 191.033 22.8253 192.868C22.8253 194.589 23.3988 195.851 24.431 196.425C25.4633 197.113 27.0691 197.458 29.0189 197.572V198.949H15.1406V197.572C17.4346 197.113 19.3844 194.704 21.1048 190.229L37.0477 149.384H41.8649L58.84 193.098C59.4135 194.589 60.1017 195.622 60.9046 196.425Z" fill="#B0273A"/>
<path d="M89.922 97.6387L78.4523 127.814H76.6172L88.4309 97.6387H89.922Z" fill="#B0273A"/>
<path d="M61.8202 127.126L54.9384 108.309L47.7125 127.126H61.8202ZM81.3186 144.68C82.1215 145.368 82.9244 145.713 83.6126 145.827V147.204H62.3937V145.827C64.1141 145.713 65.3758 145.483 66.1787 145.139C66.8669 144.795 67.3257 144.221 67.3257 143.303C67.3257 142.5 67.0963 141.353 66.5228 139.976L62.279 128.502H47.0243L45.1892 133.321C43.9275 136.649 43.2394 139.287 43.2394 141.123C43.2394 142.844 43.8128 144.106 44.8451 144.68C45.8774 145.368 47.4831 145.713 49.433 145.827V147.204H35.5547V145.827C37.8486 145.368 39.7985 142.959 41.5189 138.484L57.4617 97.6387H62.279L79.2541 141.353C79.8276 142.844 80.5158 143.992 81.3186 144.68Z" fill="#B0273A"/>
<path d="M109.649 46.2378L98.1789 76.4131H96.3438L108.043 46.123L109.649 46.2378Z" fill="#B0273A"/>
<path d="M81.4335 75.6109L74.5517 56.7944L67.3258 75.6109H81.4335ZM101.047 93.2801C101.849 93.9685 102.652 94.3127 103.341 94.4274V95.8042H82.1217V94.4274C83.8421 94.3127 85.1038 94.0832 85.9067 93.739C86.5948 93.3948 87.0536 92.8211 87.0536 91.9032C87.0536 91.1001 86.8242 89.9528 86.2507 88.5759L82.007 77.1025H66.7523L64.9172 81.9213C63.6555 85.2486 62.9673 87.8875 62.9673 89.7233C62.9673 91.4443 63.5408 92.7064 64.5731 93.2801C65.6054 93.9685 67.2111 94.3127 69.161 94.4274V95.8042H55.168V94.4274C57.4619 93.9685 59.4117 91.559 61.1322 87.0844L77.075 46.2388H81.8923L98.8674 89.9528C99.5555 91.4443 100.244 92.5917 101.047 93.2801Z" fill="#B0273A"/>
<path d="M126.626 3.90137L118.597 24.7831H116.762L124.905 3.90137H126.626Z" fill="#B0273A"/>
<path d="M87.7424 23.98L94.9683 5.16345L101.85 23.98H87.7424ZM121.463 41.6491C120.66 40.9607 119.972 39.8134 119.284 38.3218L105.979 3.90137H93.936L81.6634 35.3387C79.943 39.8134 77.9932 42.2228 75.6992 42.6818V44.0586H89.6922V42.6818C87.6277 42.567 86.1366 42.2228 84.9896 41.5344C83.9574 40.846 83.3839 39.6987 83.3839 37.9776C83.3839 36.1419 84.0721 33.6177 85.3337 30.1757L87.1689 25.3568H102.424L106.667 36.8303C107.241 38.2071 107.47 39.3544 107.47 40.1576C107.47 41.0755 107.126 41.6491 106.323 41.9933C105.635 42.3376 104.373 42.567 102.538 42.6818V44.0586H123.757V42.6818C123.069 42.6818 122.266 42.3376 121.463 41.6491Z" fill="#B0273A"/>
<path d="M110.57 168.66L98.9861 198.95L97.2656 198.835L108.965 168.66H110.57Z" fill="#B0273A"/>
<path d="M82.3515 198.148L75.4697 179.331L68.2438 198.148H82.3515ZM101.965 215.702C102.767 216.39 103.57 216.735 104.259 216.849V218.226H83.0396V216.849C84.7601 216.735 86.0217 216.505 86.8246 216.161C87.5128 215.817 87.9716 215.243 87.9716 214.325C87.9716 213.522 87.7422 212.375 87.1687 210.998L82.9249 199.524H67.6703L65.8351 204.343C64.5735 207.67 63.8853 210.309 63.8853 212.145C63.8853 213.866 64.4588 215.128 65.4911 215.702C66.5233 216.39 68.1291 216.735 70.0789 216.849V218.226H56.0859V216.849C58.3799 216.39 60.3297 213.981 62.0502 209.506L77.993 168.661H82.8102L99.7853 212.375C100.474 213.981 101.162 215.014 101.965 215.702Z" fill="#B0273A"/>
<path d="M130.985 117.03L119.515 147.206H117.68L129.379 117.03H130.985Z" fill="#B0273A"/>
<path d="M102.766 146.517L95.8837 127.701L88.6578 146.517H102.766ZM122.379 164.072C123.182 164.76 123.984 165.104 124.673 165.219V166.596H103.454V165.219C105.174 165.104 106.436 164.875 107.239 164.531C107.927 164.186 108.386 163.613 108.386 162.695C108.386 161.892 108.156 160.744 107.583 159.367L103.339 147.894H88.0844L86.2492 152.713C84.9875 156.04 84.2994 158.679 84.2994 160.515C84.2994 162.236 84.8729 163.498 85.9051 164.072C86.9374 164.76 88.5431 165.104 90.493 165.219V166.596H76.5V165.219C78.7939 164.76 80.7438 162.351 82.4642 157.876L98.4071 117.03H103.224L120.199 160.744C120.888 162.236 121.576 163.383 122.379 164.072Z" fill="#B0273A"/>
<path d="M150.711 65.6279L139.127 95.8032H137.406L149.105 65.5132L150.711 65.6279Z" fill="#B0273A"/>
<path d="M122.496 95L115.614 76.1835L108.388 95H122.496ZM142.109 112.669C142.912 113.358 143.715 113.702 144.403 113.817V115.193H123.184V113.817C124.905 113.702 126.166 113.472 126.969 113.128C127.657 112.784 128.116 112.21 128.116 111.292C128.116 110.489 127.887 109.342 127.313 107.965L123.069 96.4916H107.815L105.98 101.31C104.718 104.638 104.03 107.277 104.03 109.112C104.03 110.833 104.603 112.096 105.636 112.669C106.668 113.358 108.274 113.702 110.223 113.817V115.193H96.2305V113.817C98.5244 113.358 100.474 110.948 102.195 106.474L118.138 65.5132H122.955L139.93 109.227C140.503 110.833 141.306 111.981 142.109 112.669Z" fill="#B0273A"/>
<path d="M171.129 13.9975L159.545 44.1728L157.824 44.0581L169.523 13.8828L171.129 13.9975Z" fill="#B0273A"/>
<path d="M142.91 43.3702L136.028 24.5536L128.802 43.3702H142.91ZM162.523 60.9246C163.326 61.613 164.129 61.9572 164.817 62.0719V63.4488H143.598V62.0719C145.319 61.9572 146.58 61.7277 147.383 61.3835C148.071 61.0393 148.53 60.4657 148.53 59.5478C148.53 58.7446 148.301 57.5973 147.727 56.2205L143.484 44.747H128.229L126.394 49.5658C125.132 52.8932 124.444 55.5321 124.444 57.3678C124.444 59.0888 125.017 60.3509 126.05 60.9246C127.082 61.613 128.688 61.9572 130.638 62.0719V63.4488H116.645V62.0719C118.938 61.613 120.888 59.2036 122.609 54.7289L138.552 13.8833H143.369L160.344 57.5973C161.032 59.2036 161.72 60.2362 162.523 60.9246Z" fill="#B0273A"/>
<path d="M151.629 188.625L140.045 218.8H138.324L150.023 188.625H151.629Z" fill="#B0273A"/>
<path d="M123.41 218.112L116.528 199.295L109.302 218.112H123.41ZM142.908 235.666C143.711 236.355 144.514 236.699 145.202 236.814V238.19H123.984V236.814C125.704 236.699 126.966 236.469 127.769 236.125C128.457 235.781 128.916 235.207 128.916 234.289C128.916 233.486 128.686 232.339 128.113 230.962L123.869 219.489H108.614L106.779 224.308C105.517 227.635 104.829 230.274 104.829 232.11C104.829 233.831 105.403 235.093 106.435 235.666C107.467 236.355 109.073 236.699 111.023 236.814V238.19H97.1445V236.814C99.4385 236.355 101.388 233.945 103.109 229.471L119.052 188.625H123.869L140.844 232.339C141.417 233.831 142.106 234.978 142.908 235.666Z" fill="#B0273A"/>
<path d="M172.047 136.994L160.463 167.169H158.742L170.441 136.994H172.047Z" fill="#B0273A"/>
<path d="M143.828 166.366L136.946 147.549L129.72 166.366H143.828ZM163.326 184.035C164.129 184.723 164.932 185.068 165.62 185.182V186.559H144.402V185.182C146.122 185.068 147.384 184.838 148.187 184.494C148.875 184.15 149.333 183.576 149.333 182.658C149.333 181.855 149.104 180.708 148.531 179.331L144.287 167.857H129.032L127.197 172.676C125.935 176.004 125.247 178.642 125.247 180.478C125.247 182.199 125.821 183.461 126.853 184.035C127.885 184.723 129.491 185.068 131.441 185.182V186.559H117.562V185.182C119.856 184.723 121.806 182.314 123.527 177.839L139.47 136.994H144.287L161.262 180.708C161.835 182.199 162.524 183.347 163.326 184.035Z" fill="#B0273A"/>
<path d="M191.771 85.5932L180.187 115.769H178.352L190.165 85.4785L191.771 85.5932Z" fill="#B0273A"/>
<path d="M163.556 114.964L156.674 96.1474L149.448 114.964H163.556ZM183.054 132.633C183.857 133.322 184.66 133.666 185.348 133.78V135.157H164.129V133.78C165.85 133.666 167.112 133.436 167.914 133.092C168.603 132.748 169.061 132.174 169.061 131.256C169.061 130.453 168.832 129.306 168.259 127.929L164.015 116.455H148.76L146.925 121.274C145.663 124.602 144.975 127.241 144.975 129.076C144.975 130.797 145.549 132.059 146.581 132.633C147.613 133.322 149.219 133.666 151.169 133.78V135.157H137.176V133.78C139.47 133.322 141.42 130.912 143.14 126.437L159.083 85.5918H163.9L180.875 129.306C181.563 130.797 182.252 131.945 183.054 132.633Z" fill="#B0273A"/>
<path d="M212.188 33.8457L200.603 64.021H198.883L210.582 33.8457H212.188Z" fill="#B0273A"/>
<path d="M183.97 63.3326L177.088 44.516L169.748 63.3326H183.97ZM203.468 80.887C204.271 81.5754 205.074 81.9196 205.762 82.0344V83.4112H184.544V82.0344C186.264 81.9196 187.526 81.6901 188.329 81.3459C189.017 81.0017 189.475 80.4281 189.475 79.5102C189.475 78.707 189.246 77.5597 188.673 76.1829L184.429 64.7094H169.174L167.339 69.5283C166.077 72.8556 165.389 75.4945 165.389 77.3302C165.389 79.0512 165.963 80.3133 166.995 80.887C168.027 81.5754 169.633 81.9196 171.583 82.0344V83.4112H157.59V82.0344C159.884 81.5754 161.834 79.166 163.554 74.6913L179.497 33.8457H184.314L201.289 77.5597C201.977 79.0512 202.666 80.1986 203.468 80.887Z" fill="#B0273A"/>
<path d="M7.33854 183.002L2.0625 196.77V192.41L5.73279 182.887L7.33854 183.002Z" fill="#B0273A"/>
<path d="M8.14142 305.424L2.0625 321.487V317.127L6.53567 305.424H8.14142Z" fill="#B0273A"/>
<path d="M27.8712 254.024L16.4016 284.199H14.5664L26.2655 253.909L27.8712 254.024Z" fill="#B0273A"/>
<path d="M19.2662 301.064C18.4633 300.375 17.7751 299.228 17.087 297.736L1.94701 258.727V289.82L4.35564 296.245C4.92912 297.622 5.15852 298.769 5.15852 299.572C5.15852 300.49 4.81443 301.064 4.01155 301.408C3.55276 301.637 2.86458 301.867 1.94701 301.982C1.48823 302.096 0.914742 302.096 0.226562 302.096V303.473H21.4454V302.096C20.7573 302.096 20.0691 301.752 19.2662 301.064Z" fill="#B0273A"/>
<path d="M48.2853 202.278L36.8156 232.568L34.9805 232.454L46.6795 202.278H48.2853Z" fill="#B0273A"/>
<path d="M3.20947 249.32C2.75068 248.975 2.29189 248.516 2.0625 247.943V251.844H7.91203V250.467C5.84749 250.352 4.24174 250.008 3.20947 249.32ZM5.96218 231.765L13.1881 212.949L20.0699 231.765H5.96218ZM39.683 249.32C38.8801 248.631 38.1919 247.484 37.5037 245.992L20.6434 202.278H15.8261L2.0625 237.502V242.78C2.40659 241.403 2.86538 239.797 3.55356 237.961L5.3887 233.142H20.6434L24.8871 244.616C25.4606 245.992 25.69 247.14 25.69 247.943C25.69 248.861 25.3459 249.434 24.543 249.779C23.8549 250.123 22.5932 250.352 20.758 250.467V251.844H41.9769V250.467C41.2887 250.467 40.4859 250.008 39.683 249.32Z" fill="#B0273A"/>
<path d="M28.7892 376.445L17.2048 406.621H15.4844L27.1834 376.445H28.7892Z" fill="#B0273A"/>
<path d="M20.1867 423.486C19.3838 422.798 18.6956 421.65 18.1221 420.159L2.17929 378.969V409.947L5.3908 418.782C5.96428 420.159 6.19367 421.306 6.19367 422.109C6.19367 423.027 5.84958 423.601 5.04671 423.945C4.47322 424.289 3.44095 424.404 2.06459 424.519C1.8352 424.519 1.49111 424.519 1.26172 424.519V425.895H22.4806V424.519C21.6777 424.519 20.9895 424.174 20.1867 423.486Z" fill="#B0273A"/>
<path d="M49.2072 324.815L37.6228 354.99H35.9023L47.6014 324.815H49.2072Z" fill="#B0273A"/>
<path d="M6.88117 354.187L14.1071 335.371L20.9889 354.187H6.88117ZM40.602 371.856C39.7991 371.168 39.1109 370.02 38.4227 368.529L21.4476 324.815H16.6304L1.94922 362.333V374.38H8.60162V373.004C6.53708 372.889 5.04603 372.545 4.01376 371.856C2.98149 371.168 2.40801 370.02 2.40801 368.299C2.40801 366.464 3.09618 363.94 4.35785 360.497L6.19299 355.679H21.4476L25.6914 367.152C26.2649 368.529 26.4943 369.676 26.4943 370.479C26.4943 371.397 26.1502 371.971 25.3473 372.315C24.6591 372.659 23.3975 372.889 21.5623 373.004V374.38H42.7812V373.004C42.093 372.889 41.4048 372.545 40.602 371.856Z" fill="#B0273A"/>
<path d="M68.9298 273.414L57.3454 303.589H55.625L67.3241 273.299L68.9298 273.414Z" fill="#B0273A"/>
<path d="M40.7147 302.786L33.8329 283.969L26.4924 302.786H40.7147ZM60.2132 320.34C61.016 321.029 61.8189 321.373 62.5071 321.487V322.864H41.2882V321.487C43.0087 321.373 44.2703 321.143 45.0732 320.799C45.7614 320.455 46.2202 319.881 46.2202 318.963C46.2202 318.16 45.9908 317.013 45.4173 315.636L41.1735 304.163H25.9189L24.0837 308.981C22.8221 312.309 22.1339 314.948 22.1339 316.783C22.1339 318.504 22.7074 319.766 23.7396 320.34C24.7719 321.029 26.3777 321.373 28.3275 321.487V322.864H14.4492V321.487C16.7432 321.029 18.693 318.619 20.4134 314.144L36.3563 273.299H41.1735L58.1486 317.013C58.7221 318.619 59.525 319.652 60.2132 320.34Z" fill="#B0273A"/>
<path d="M89.3478 221.668L77.7634 251.844H76.043L87.742 221.668H89.3478Z" fill="#B0273A"/>
<path d="M61.1366 251.155L54.2548 232.338L47.0289 251.155H61.1366ZM80.7497 268.709C81.5526 269.398 82.3555 269.742 83.0437 269.857V271.233H61.8248V269.857C63.5452 269.742 64.8069 269.512 65.6098 269.168C66.298 268.824 66.7568 268.25 66.7568 267.332C66.7568 266.529 66.5274 265.382 65.9539 264.005L61.7101 252.532H46.4555L44.6203 257.351C43.3586 260.678 42.6705 263.317 42.6705 265.152C42.6705 266.874 43.2439 268.136 44.2762 268.709C45.3085 269.398 46.9142 269.742 48.8641 269.857V271.233H34.8711V269.857C37.165 269.398 39.1149 266.988 40.8353 262.514L56.7781 221.668H61.5954L78.5705 265.382C79.2587 266.874 79.9469 268.021 80.7497 268.709Z" fill="#B0273A"/>
<path d="M69.7345 396.409L58.2648 426.584H56.4297L68.2434 396.409H69.7345Z" fill="#B0273A"/>
<path d="M41.6327 425.781L34.7509 406.965L27.525 425.781H41.6327ZM61.1311 443.45C61.934 444.139 62.7369 444.483 63.4251 444.598V445.975H42.2062V444.598C43.9266 444.483 45.1883 444.254 45.9912 443.909C46.6794 443.565 47.1381 442.992 47.1381 442.074C47.1381 441.271 46.9088 440.123 46.3353 438.746L42.0915 427.273H26.8368L25.0017 432.092C23.74 435.419 23.0519 438.058 23.0519 439.894C23.0519 441.615 23.6253 442.877 24.6576 443.45C25.6899 444.139 27.2956 444.483 29.2455 444.598V445.975H15.3672V444.598C17.6611 444.139 19.611 441.729 21.3314 437.255L37.2742 396.409H42.0915L59.0666 440.123C59.6401 441.615 60.3283 442.762 61.1311 443.45Z" fill="#B0273A"/>
<path d="M90.2657 344.779L78.6814 374.954H76.9609L88.66 344.664L90.2657 344.779Z" fill="#B0273A"/>
<path d="M62.0507 374.151L55.1689 355.334L47.943 374.151H62.0507ZM81.5491 391.82C82.352 392.508 83.1549 392.853 83.843 392.967V394.344H62.6242V392.967C64.3446 392.853 65.6063 392.623 66.4091 392.279C67.0973 391.935 67.5561 391.361 67.5561 390.443C67.5561 389.64 67.3267 388.493 66.7532 387.116L62.5095 375.642H47.2548L45.4197 380.461C44.158 383.789 43.4698 386.428 43.4698 388.263C43.4698 389.984 44.0433 391.246 45.0756 391.82C46.1078 392.508 47.7136 392.853 49.6634 392.967V394.344H35.7852V392.967C38.0791 392.508 40.0289 390.099 41.7494 385.624L57.6922 344.779H62.5095L79.4846 388.493C80.058 389.984 80.7462 391.132 81.5491 391.82Z" fill="#B0273A"/>
<path d="M109.879 293.262L98.4094 323.437H96.5742L108.273 293.262H109.879Z" fill="#B0273A"/>
<path d="M81.6664 322.749L74.7847 303.933L67.5588 322.749H81.6664ZM101.28 340.303C102.082 340.992 102.885 341.336 103.573 341.451V342.828H82.3546V341.451C84.0751 341.336 85.3367 341.107 86.1396 340.762C86.8278 340.418 87.2866 339.845 87.2866 338.927C87.2866 338.124 87.0572 336.976 86.4837 335.599L82.2399 324.126H66.9853L65.1501 328.945C63.8885 332.272 63.2003 334.911 63.2003 336.747C63.2003 338.468 63.7738 339.73 64.806 340.303C65.8383 340.992 67.4441 341.336 69.3939 341.451V342.828H55.5156V341.451C57.8096 340.992 59.7594 338.582 61.4798 334.108L77.4227 293.262H82.2399L99.215 336.976C99.7885 338.582 100.477 339.615 101.28 340.303Z" fill="#B0273A"/>
<path d="M130.412 241.631L118.827 271.806H116.992L128.806 241.631H130.412Z" fill="#B0273A"/>
<path d="M102.195 271.118L95.3134 252.301L88.0875 271.118H102.195ZM121.694 288.672C122.497 289.361 123.299 289.705 123.988 289.82V291.196H102.769V289.82C104.489 289.705 105.751 289.475 106.554 289.131C107.242 288.787 107.701 288.213 107.701 287.295C107.701 286.492 107.471 285.345 106.898 283.968L102.654 272.495H87.3993L85.5642 277.313C84.3025 280.641 83.6144 283.28 83.6144 285.115C83.6144 286.836 84.1878 288.098 85.2201 288.672C86.2524 289.361 87.8581 289.705 89.808 289.82V291.196H75.9297V289.82C78.2236 289.361 80.1735 286.951 81.8939 282.476L97.8367 241.631H102.654L119.629 285.345C120.203 286.836 120.891 287.984 121.694 288.672Z" fill="#B0273A"/>
<path d="M192.461 208.473L180.991 238.648H179.156L190.855 208.473H192.461Z" fill="#B0273A"/>
<path d="M164.246 237.96L157.364 219.143L150.138 237.96H164.246ZM183.859 255.514C184.662 256.202 185.465 256.547 186.153 256.661V258.038H164.934V256.661C166.655 256.547 167.916 256.317 168.719 255.973C169.407 255.629 169.866 255.055 169.866 254.137C169.866 253.334 169.637 252.187 169.063 250.81L164.819 239.336H149.565L147.73 244.155C146.468 247.482 145.78 250.121 145.78 251.957C145.78 253.678 146.353 254.94 147.386 255.514C148.418 256.202 150.024 256.547 151.973 256.661V258.038H137.98V256.661C140.274 256.202 142.224 253.793 143.945 249.318L159.888 208.473H164.705L181.68 252.187C182.368 253.678 183.056 254.826 183.859 255.514Z" fill="#B0273A"/>
<path d="M212.879 156.843L201.409 187.018H199.574L211.273 156.728L212.879 156.843Z" fill="#B0273A"/>
<path d="M184.66 186.214L177.778 167.397L170.552 186.214H184.66ZM204.273 203.883C205.076 204.572 205.879 204.916 206.567 205.03V206.407H185.348V205.03C187.069 204.916 188.33 204.686 189.133 204.342C189.821 203.998 190.28 203.424 190.28 202.506C190.28 201.703 190.051 200.556 189.477 199.179L185.234 187.705H169.979L168.144 192.524C166.882 195.852 166.194 198.491 166.194 200.326C166.194 202.047 166.767 203.309 167.8 203.883C168.832 204.572 170.438 204.916 172.388 205.03V206.407H158.395V205.03C160.688 204.572 162.638 202.162 164.359 197.687L180.302 156.842H185.119L202.094 200.556C202.782 202.047 203.47 203.195 204.273 203.883Z" fill="#B0273A"/>
<path d="M232.602 105.328L221.017 135.618L219.297 135.503L230.996 105.328H232.602Z" fill="#B0273A"/>
<path d="M204.391 134.814L197.509 115.998L190.283 134.814H204.391ZM224.004 152.369C224.806 153.057 225.609 153.402 226.298 153.516V154.893H205.079V153.516C206.799 153.402 208.061 153.172 208.864 152.828C209.552 152.484 210.011 151.91 210.011 150.992C210.011 150.189 209.781 149.042 209.208 147.665L204.964 136.191H189.709L187.874 141.01C186.613 144.337 185.924 146.976 185.924 148.812C185.924 150.533 186.498 151.795 187.53 152.369C188.562 153.057 190.168 153.402 192.118 153.516V154.893H178.125V153.516C180.419 153.057 182.369 150.648 184.089 146.173L200.032 105.328H204.849L221.824 149.042C222.513 150.648 223.201 151.681 224.004 152.369Z" fill="#B0273A"/>
<path d="M253.02 53.6968L241.55 83.8721H239.715L251.414 53.6968H253.02Z" fill="#B0273A"/>
<path d="M224.805 83.1836L217.923 64.3671L210.697 83.1836H224.805ZM244.418 100.738C245.221 101.426 246.023 101.771 246.712 101.885V103.262H225.493V101.885C227.213 101.771 228.475 101.541 229.278 101.197C229.966 100.853 230.425 100.279 230.425 99.3613C230.425 98.5581 230.195 97.4108 229.622 96.034L225.378 84.5605H210.123L208.288 89.3793C207.027 92.7066 206.338 95.3455 206.338 97.1813C206.338 98.9023 206.912 100.164 207.944 100.738C208.976 101.426 210.582 101.771 212.532 101.885V103.262H198.539V101.885C200.833 101.426 202.783 99.0171 204.503 94.5424L220.446 53.6968H225.263L242.238 97.4108C242.927 98.9023 243.615 100.05 244.418 100.738Z" fill="#B0273A"/>
<path d="M233.524 227.863L221.939 258.038H220.219L231.918 227.863H233.524Z" fill="#B0273A"/>
<path d="M205.31 257.235L198.428 238.419L191.202 257.235H205.31ZM224.808 274.905C225.611 275.593 226.414 275.937 227.102 276.052V277.429H205.883V276.052C207.604 275.937 208.865 275.708 209.668 275.364C210.357 275.019 210.815 274.446 210.815 273.528C210.815 272.725 210.586 271.577 210.012 270.2L205.769 258.727H190.514L188.679 263.546C187.417 266.873 186.729 269.512 186.729 271.348C186.729 273.069 187.303 274.331 188.335 274.905C189.367 275.593 190.973 275.937 192.923 276.052V277.429H178.93V276.052C181.224 275.593 183.173 273.184 184.894 268.709L200.837 227.863H205.654L222.629 271.577C223.317 273.069 224.005 274.216 224.808 274.905Z" fill="#B0273A"/>
<path d="M253.938 176.234L242.353 206.409H240.633L252.332 176.119L253.938 176.234Z" fill="#B0273A"/>
<path d="M225.724 205.604L218.842 186.788L211.616 205.604H225.724ZM245.222 223.273C246.025 223.962 246.828 224.306 247.516 224.421V225.797H226.297V224.421C228.018 224.306 229.28 224.076 230.082 223.732C230.771 223.388 231.229 222.814 231.229 221.896C231.229 221.093 231 219.946 230.427 218.569L226.183 207.096H210.928L209.093 211.914C207.831 215.242 207.143 217.881 207.143 219.716C207.143 221.437 207.717 222.7 208.749 223.273C209.781 223.962 211.387 224.306 213.337 224.421V225.797H199.344V224.421C201.638 223.962 203.588 221.552 205.308 217.078L221.251 176.232H226.068L243.043 219.946C243.731 221.437 244.42 222.585 245.222 223.273Z" fill="#B0273A"/>
<path d="M245.451 154.203L238.569 135.387L231.343 154.203H245.451ZM264.949 171.758C265.752 172.446 266.555 172.79 267.243 172.905V174.282H246.024V172.905C247.744 172.79 249.006 172.561 249.809 172.217C250.497 171.872 250.956 171.299 250.956 170.381C250.956 169.578 250.727 168.43 250.153 167.053L245.909 155.58H230.655L228.82 160.399C227.558 163.726 226.87 166.365 226.87 168.201C226.87 169.922 227.443 171.184 228.475 171.758C229.508 172.446 231.113 172.79 233.063 172.905V174.282H219.07V172.905C221.364 172.446 223.314 170.037 225.035 165.562L240.977 124.716H245.795L262.77 168.43C263.458 169.922 264.146 171.069 264.949 171.758Z" fill="#B0273A"/>
<path d="M265.869 102.458L258.987 83.6415L251.761 102.458H265.869ZM285.367 120.127C286.17 120.816 286.973 121.16 287.661 121.275V122.651H266.442V121.275C268.162 121.16 269.424 120.93 270.227 120.586C270.915 120.242 271.374 119.668 271.374 118.75C271.374 117.947 271.145 116.8 270.571 115.423L266.327 103.95H251.073L249.237 108.768C247.976 112.096 247.288 114.735 247.288 116.57C247.288 118.291 247.861 119.554 248.893 120.127C249.926 120.816 251.531 121.16 253.481 121.275V122.651H239.488V121.275C241.782 120.816 243.732 118.406 245.453 113.932L261.51 73.0859H266.327L283.302 116.8C283.876 118.291 284.564 119.439 285.367 120.127Z" fill="#B0273A"/>
<path d="M246.254 277.2L239.372 258.384L232.146 277.2H246.254ZM265.867 294.869C266.67 295.558 267.473 295.902 268.161 296.017V297.394H246.942V295.902C248.662 295.787 249.924 295.558 250.727 295.214C251.415 294.869 251.874 294.296 251.874 293.378C251.874 292.575 251.645 291.427 251.071 290.051L246.827 278.577H231.573L229.737 283.396C228.476 286.723 227.788 289.362 227.788 291.198C227.788 292.919 228.361 294.181 229.393 294.755C230.426 295.443 232.031 295.787 233.981 295.902V297.279H219.988V295.902C222.282 295.443 224.232 293.034 225.952 288.559L242.01 247.713H246.827L263.802 291.427C264.376 293.034 265.064 294.181 265.867 294.869Z" fill="#B0273A"/>
<path d="M266.668 225.569L259.786 206.752L252.56 225.569H266.668ZM286.281 243.123C287.084 243.812 287.887 244.156 288.575 244.271V245.647H267.356V244.271C269.077 244.156 270.338 243.926 271.141 243.582C271.829 243.238 272.288 242.664 272.288 241.747C272.288 240.943 272.059 239.796 271.485 238.419L267.241 226.946H251.987L250.152 231.765C248.89 235.092 248.202 237.731 248.202 239.567C248.202 241.288 248.775 242.55 249.807 243.123C250.84 243.812 252.445 244.156 254.395 244.271V245.647H240.402V244.271C242.696 243.812 244.646 241.402 246.367 236.928L262.309 196.082H267.127L284.102 239.796C284.79 241.402 285.478 242.435 286.281 243.123Z" fill="#B0273A"/>
<path d="M110.684 416.258L99.0994 446.434H97.3789L109.078 416.144L110.684 416.258Z" fill="#B0273A"/>
<path d="M82.4648 445.631L75.583 426.814L68.3571 445.631H82.4648ZM102.078 463.3C102.881 463.989 103.684 464.333 104.372 464.447V465.824H83.1529V464.447C84.8734 464.333 86.135 464.103 86.9379 463.759C87.6261 463.415 88.0849 462.841 88.0849 461.923C88.0849 461.12 87.8555 459.973 87.282 458.596L83.0382 447.122H67.7836L65.9484 451.941C64.6868 455.269 63.9986 457.908 63.9986 459.743C63.9986 461.464 64.5721 462.726 65.6043 463.3C66.6366 463.989 68.2424 464.333 70.1922 464.447V465.824H56.1992V464.447C58.4932 463.989 60.443 461.579 62.1634 457.104L78.1063 416.259H82.9235L99.8986 459.973C100.587 461.464 101.275 462.612 102.078 463.3Z" fill="#B0273A"/>
<path d="M131.094 364.626L119.624 394.802H117.789L129.488 364.512L131.094 364.626Z" fill="#B0273A"/>
<path d="M102.883 394.001L96.0009 375.185L88.775 394.001H102.883ZM122.496 411.67C123.299 412.359 124.102 412.703 124.79 412.818V414.194H103.571V412.818C105.291 412.703 106.553 412.473 107.356 412.129C108.044 411.785 108.503 411.211 108.503 410.293C108.503 409.49 108.273 408.343 107.7 406.966L103.456 395.493H88.2015L86.3664 400.311C85.1047 403.639 84.4166 406.278 84.4166 408.113C84.4166 409.834 84.99 411.097 86.0223 411.67C87.0546 412.359 88.6603 412.703 90.6102 412.818V414.194H76.6172V412.818C78.9111 412.359 80.861 409.949 82.5814 405.475L98.5242 364.629H103.341L120.317 408.343C121.005 409.834 121.693 410.982 122.496 411.67Z" fill="#B0273A"/>
<path d="M150.824 313.111L139.24 343.287H137.52L149.219 313.111H150.824Z" fill="#B0273A"/>
<path d="M122.609 342.598L115.727 323.782L108.502 342.598H122.609ZM142.222 360.153C143.025 360.841 143.828 361.185 144.516 361.3V362.677H123.297V361.3C125.018 361.185 126.28 360.956 127.082 360.612C127.771 360.267 128.229 359.694 128.229 358.776C128.229 357.973 128 356.825 127.427 355.448L123.183 343.975H107.928L106.093 348.794C104.831 352.121 104.143 354.76 104.143 356.596C104.143 358.317 104.717 359.579 105.749 360.153C106.781 360.841 108.387 361.185 110.337 361.3V362.677H96.3438V361.3C98.6377 360.841 100.588 358.432 102.308 353.957L118.251 313.111H123.068L140.043 356.825C140.617 358.317 141.42 359.464 142.222 360.153Z" fill="#B0273A"/>
<path d="M171.242 261.48L159.658 291.656H157.938L169.637 261.48H171.242Z" fill="#B0273A"/>
<path d="M143.027 290.853L136.145 272.036L128.92 290.853H143.027ZM162.64 308.522C163.443 309.21 164.246 309.554 164.934 309.669V311.046H143.715V309.669C145.436 309.554 146.698 309.325 147.5 308.981C148.189 308.637 148.647 308.063 148.647 307.145C148.647 306.342 148.418 305.194 147.844 303.818L143.601 292.344H128.346L126.511 297.163C125.249 300.49 124.561 303.129 124.561 304.965C124.561 306.686 125.135 307.948 126.167 308.522C127.199 309.21 128.805 309.554 130.755 309.669V311.046H116.762V309.669C119.056 309.21 121.005 306.801 122.726 302.326L138.669 261.48H143.486L160.461 305.194C161.149 306.686 161.837 307.833 162.64 308.522Z" fill="#B0273A"/>
<path d="M151.744 435.648L140.159 465.824H138.324L150.138 435.534L151.744 435.648Z" fill="#B0273A"/>
<path d="M123.531 465.021L116.649 446.204L109.423 465.021H123.531ZM143.03 482.69C143.832 483.378 144.635 483.722 145.324 483.837V485.214H124.105V483.837C125.825 483.722 127.087 483.493 127.89 483.149C128.578 482.805 129.037 482.231 129.037 481.313C129.037 480.51 128.807 479.362 128.234 477.986L123.99 466.512H108.735L106.9 471.331C105.638 474.658 104.95 477.297 104.95 479.133C104.95 480.854 105.524 482.116 106.556 482.69C107.588 483.378 109.194 483.722 111.144 483.837V485.214H97.2656V483.837C99.5596 483.378 101.509 480.969 103.23 476.494L119.173 435.648H123.99L140.965 479.362C141.539 480.854 142.227 482.001 143.03 482.69Z" fill="#B0273A"/>
<path d="M172.16 384.019L160.576 414.194L158.855 414.079L170.555 383.904L172.16 384.019Z" fill="#B0273A"/>
<path d="M143.945 413.391L137.063 394.574L129.838 413.391H143.945ZM163.444 430.945C164.247 431.634 165.049 431.978 165.738 432.092V433.469H144.519V432.092C146.239 431.978 147.501 431.748 148.304 431.404C148.992 431.06 149.451 430.486 149.451 429.568C149.451 428.765 149.221 427.618 148.648 426.241L144.404 414.767H129.149L127.314 419.586C126.053 422.914 125.364 425.553 125.364 427.388C125.364 429.109 125.938 430.371 126.97 430.945C128.002 431.634 129.608 431.978 131.558 432.092V433.469H117.68V432.092C119.974 431.634 121.923 429.224 123.644 424.749L139.587 383.904H144.404L161.379 427.618C161.953 429.224 162.641 430.257 163.444 430.945Z" fill="#B0273A"/>
<path d="M191.774 332.502L180.304 362.678H178.469L190.282 332.502H191.774Z" fill="#B0273A"/>
<path d="M163.669 361.874L156.787 343.058L149.562 361.874H163.669ZM183.168 379.543C183.971 380.232 184.773 380.576 185.462 380.691V382.067H164.243V380.691C165.963 380.576 167.225 380.346 168.028 380.002C168.716 379.658 169.175 379.084 169.175 378.166C169.175 377.363 168.945 376.216 168.372 374.839L164.128 363.366H148.873L147.038 368.185C145.777 371.512 145.088 374.151 145.088 375.986C145.088 377.707 145.662 378.97 146.694 379.543C147.726 380.232 149.332 380.576 151.282 380.691V382.067H137.289V380.691C139.583 380.232 141.533 377.822 143.253 373.348L159.196 332.502H164.013L180.988 376.216C181.677 377.708 182.365 378.855 183.168 379.543Z" fill="#B0273A"/>
<path d="M212.305 280.871L200.72 311.046H199L210.699 280.756L212.305 280.871Z" fill="#B0273A"/>
<path d="M184.087 310.244L177.205 291.427L169.98 310.244H184.087ZM203.586 327.913C204.389 328.601 205.191 328.945 205.88 329.06V330.437H184.661V329.06C186.381 328.945 187.643 328.716 188.446 328.372C189.134 328.028 189.593 327.454 189.593 326.536C189.593 325.733 189.363 324.586 188.79 323.209L184.546 311.735H169.291L167.456 316.554C166.195 319.881 165.506 322.52 165.506 324.356C165.506 326.077 166.08 327.339 167.112 327.913C168.144 328.601 169.75 328.945 171.7 329.06V330.437H157.707V329.06C160.001 328.601 161.951 326.192 163.671 321.717L179.614 280.872H184.431L201.406 324.586C202.095 326.077 202.783 327.224 203.586 327.913Z" fill="#B0273A"/>
<path d="M213.106 403.867L201.636 434.042H199.801L211.5 403.867H213.106Z" fill="#B0273A"/>
<path d="M184.891 433.354L178.009 414.538L170.783 433.354H184.891ZM204.504 450.909C205.306 451.597 206.109 451.941 206.798 452.056V453.433H185.579V452.056C187.299 451.941 188.561 451.712 189.364 451.367C190.052 451.023 190.511 450.45 190.511 449.532C190.511 448.729 190.281 447.581 189.708 446.204L185.464 434.731H170.209L168.374 439.55C167.113 442.877 166.424 445.516 166.424 447.352C166.424 449.073 166.998 450.335 168.03 450.909C169.062 451.597 170.668 451.941 172.618 452.056V453.433H158.625V452.056C160.919 451.597 162.869 449.188 164.589 444.713L180.532 403.867H185.349L202.324 447.581C203.013 449.073 203.701 450.22 204.504 450.909Z" fill="#B0273A"/>
<path d="M232.836 352.465L221.366 382.64H219.531L231.23 352.465H232.836Z" fill="#B0273A"/>
<path d="M204.617 381.837L197.735 363.02L190.509 381.837H204.617ZM224.23 399.506C225.033 400.195 225.836 400.539 226.524 400.654V402.03H205.305V400.654C207.026 400.539 208.287 400.309 209.09 399.965C209.778 399.621 210.237 399.047 210.237 398.129C210.237 397.326 210.008 396.179 209.434 394.802L205.191 383.329H189.936L188.101 388.147C186.839 391.475 186.151 394.114 186.151 395.949C186.151 397.67 186.724 398.932 187.757 399.506C188.789 400.195 190.395 400.539 192.345 400.654V402.03H178.352V400.654C180.645 400.195 182.595 397.785 184.316 393.31L200.259 352.465H205.076L222.051 396.179C222.739 397.67 223.427 398.818 224.23 399.506Z" fill="#B0273A"/>
<path d="M253.246 300.833L241.777 331.009H239.941L251.64 300.719L253.246 300.833Z" fill="#B0273A"/>
<path d="M225.035 330.206L218.153 311.39L210.927 330.206H225.035ZM244.648 347.875C245.451 348.564 246.254 348.908 246.942 349.023V350.399H225.723V349.023C227.444 348.908 228.705 348.678 229.508 348.334C230.196 347.99 230.655 347.416 230.655 346.498C230.655 345.695 230.426 344.548 229.852 343.171L225.609 331.698H210.354L208.519 336.517C207.257 339.844 206.569 342.483 206.569 344.319C206.569 346.04 207.142 347.302 208.175 347.875C209.207 348.564 210.813 348.908 212.763 349.023V350.399H198.77V349.023C201.063 348.564 203.013 346.154 204.734 341.68L220.677 300.834H225.494L242.469 344.548C243.157 346.04 243.845 347.187 244.648 347.875Z" fill="#B0273A"/>
<path d="M254.168 423.257L242.584 453.433H240.863L252.562 423.257H254.168Z" fill="#B0273A"/>
<path d="M225.949 452.745L219.067 433.928L211.841 452.745H225.949ZM245.562 470.299C246.365 470.988 247.168 471.332 247.856 471.446V472.823H226.637V471.446C228.358 471.332 229.619 471.102 230.422 470.758C231.11 470.414 231.569 469.84 231.569 468.922C231.569 468.119 231.34 466.972 230.766 465.595L226.523 454.121H211.268L209.433 458.94C208.171 462.268 207.483 464.907 207.483 466.742C207.483 468.463 208.056 469.725 209.089 470.299C210.121 470.988 211.727 471.332 213.677 471.446V472.823H199.684V471.446C201.978 470.988 203.927 468.578 205.648 464.103L221.591 423.258H226.408L243.383 466.972C243.956 468.463 244.759 469.611 245.562 470.299Z" fill="#B0273A"/>
<path d="M245.677 401.227L238.795 382.411L231.569 401.227H245.677ZM265.176 418.896C265.978 419.585 266.781 419.929 267.469 420.044V421.42H246.251V420.044C247.971 419.929 249.233 419.699 250.036 419.355C250.838 419.011 251.183 418.437 251.183 417.519C251.183 416.716 250.953 415.569 250.38 414.192L246.136 402.719H230.881L229.046 407.538C227.784 410.865 227.096 413.504 227.096 415.339C227.096 417.061 227.67 418.323 228.702 418.896C229.734 419.585 231.34 419.929 233.29 420.044V421.42H219.297V420.044C221.591 419.585 223.541 417.175 225.261 412.701L241.204 371.855H246.021L262.996 415.569C263.684 417.06 264.373 418.208 265.176 418.896Z" fill="#B0273A"/>
<path d="M266.095 349.598L259.213 330.781L251.987 349.598H266.095ZM285.594 367.152C286.396 367.841 287.199 368.185 287.887 368.299V369.676H266.669V368.299C268.389 368.185 269.651 367.955 270.454 367.611C271.142 367.267 271.601 366.693 271.601 365.775C271.601 364.972 271.371 363.825 270.798 362.448L266.554 350.975H251.299L249.464 355.793C248.202 359.121 247.514 361.76 247.514 363.595C247.514 365.316 248.088 366.578 249.12 367.152C250.152 367.841 251.758 368.185 253.708 368.299V369.676H239.715V368.299C242.009 367.841 243.959 365.431 245.679 360.956L261.622 320.111H266.439L283.414 363.825C284.102 365.431 284.905 366.464 285.594 367.152Z" fill="#B0273A"/>
<path d="M146.241 8.9497C145.209 8.26129 144.635 7.11394 144.635 5.39292C144.635 4.93398 144.635 4.47504 144.75 3.90137H142.456C140.85 7.68762 139.015 9.75284 136.836 10.097V11.4739H150.829V10.097C148.764 9.98231 147.273 9.63811 146.241 8.9497ZM182.715 8.9497C181.912 8.26129 181.224 7.11394 180.65 5.62239L179.962 3.90137H167.804L167.919 4.24557C168.377 5.62239 168.607 6.76974 168.607 7.57288C168.607 8.49076 168.263 9.06444 167.46 9.40864C166.772 9.75285 165.51 9.98231 163.675 10.097V11.4739H184.894V10.097C184.206 10.097 183.403 9.63811 182.715 8.9497Z" fill="#B0273A"/>
<path d="M223.891 3.90137L220.794 12.0475H218.959L222.17 3.90137H223.891Z" fill="#B0273A"/>
<path d="M223.657 28.9145C222.854 28.2261 222.166 27.0788 221.593 25.5872L213.22 3.90234H201.406L204.159 11.3601H190.051L192.918 3.90234H191.313L183.972 22.7189C182.252 27.1935 180.302 29.603 178.008 30.0619V31.4387H192.001V30.0619C189.936 29.9472 188.445 29.603 187.413 28.9145C186.381 28.2261 185.807 27.0788 185.807 25.3578C185.807 23.522 186.495 20.9978 187.757 17.5558L189.592 12.7369H204.847L208.976 24.2104C209.549 25.5872 209.779 26.7346 209.779 27.5377C209.779 28.4556 209.435 29.0293 208.632 29.3735C207.944 29.7177 206.682 29.9472 204.847 30.0619V31.4387H225.951V30.0619C225.263 30.0619 224.46 29.603 223.657 28.9145Z" fill="#B0273A"/>
<path d="M244.992 31.2076L238.11 12.391L230.884 31.2076H244.992ZM264.605 48.762C265.408 49.4504 266.211 49.7946 266.899 49.9093V51.2862H245.68V49.9093C247.401 49.7946 248.662 49.5651 249.465 49.2209C250.153 48.8767 250.612 48.3031 250.612 47.3852C250.612 46.582 250.383 45.4347 249.809 44.0579L245.566 32.5844H230.311L228.476 37.4032C227.214 40.7306 226.526 43.3695 226.526 45.2052C226.526 46.9262 227.099 48.1883 228.132 48.762C229.164 49.4504 230.77 49.7946 232.72 49.9093V51.2862H218.727V49.9093C221.02 49.4504 222.97 47.041 224.691 42.5663L240.634 1.7207H245.451L262.426 45.4347C262.999 46.9262 263.802 48.0736 264.605 48.762Z" fill="#B0273A"/>
<path d="M8.37081 429.108L2.0625 445.515V441.041L6.76506 428.994L8.37081 429.108Z" fill="#B0273A"/>
<path d="M2.06312 54.8438V56.45H0.113281V55.0732C0.801461 55.0732 1.48964 54.9585 2.06312 54.8438Z" fill="#B0273A"/>
<path d="M1.03125 178.068C1.37534 178.068 1.71943 178.068 2.06352 177.954V179.445H1.03125V178.068Z" fill="#B0273A"/>
<path d="M2.06425 242.777V247.94C1.83486 247.367 1.60547 246.564 1.60547 245.76C1.60547 244.957 1.72017 243.925 2.06425 242.777Z" fill="#B0273A"/>
<path d="M0.34375 302.097C0.917233 302.097 1.49072 301.982 2.0642 301.982V303.474H0.34375V302.097Z" fill="#B0273A"/>
<path d="M1.26172 424.635C1.49111 424.635 1.8352 424.635 2.06459 424.635V426.126H1.26172V424.635Z" fill="#B0273A"/>
<path d="M160 55.3594L159.995 147.999L97.2839 147.994L100.266 140.446L85.0542 140.51L85 48.1078L137.034 47.999L134.2 55.3594H160Z" fill="white"/>
<path d="M146.658 67.6964C146.658 68.0547 146.764 68.4051 146.962 68.7031C147.161 69.0011 147.442 69.2333 147.772 69.3705C148.102 69.5076 148.464 69.5435 148.814 69.4736C149.164 69.4037 149.486 69.2311 149.738 68.9777C149.991 68.7243 150.162 68.4014 150.232 68.0499C150.302 67.6984 150.266 67.334 150.129 67.0029C149.993 66.6718 149.762 66.3888 149.465 66.1897C149.168 65.9906 148.819 65.8843 148.462 65.8843C147.984 65.8856 147.526 66.0769 147.188 66.4165C146.85 66.756 146.659 67.2162 146.658 67.6964Z" fill="#AA2739"/>
<path d="M98.1797 127.761C98.1807 128.12 98.2873 128.469 98.4862 128.767C98.685 129.064 98.9671 129.296 99.2969 129.432C99.6267 129.568 99.9893 129.604 100.339 129.533C100.689 129.463 101.01 129.29 101.262 129.036C101.513 128.782 101.685 128.46 101.754 128.108C101.823 127.757 101.787 127.393 101.65 127.062C101.514 126.731 101.283 126.448 100.986 126.249C100.689 126.05 100.341 125.944 99.984 125.944C99.7466 125.944 99.5116 125.991 99.2924 126.083C99.0732 126.174 98.874 126.308 98.7064 126.477C98.5388 126.646 98.406 126.846 98.3156 127.066C98.2252 127.287 98.179 127.523 98.1797 127.761Z" fill="#AA2739"/>
<path d="M101.633 68.8195L99.3526 62.5511L96.9501 68.8195H101.633ZM108.109 74.6743C108.314 74.8776 108.579 75.0075 108.864 75.0436V75.5016H101.848V75.0387C102.273 75.0402 102.695 74.9651 103.094 74.8171C103.21 74.7643 103.308 74.677 103.373 74.567C103.439 74.4571 103.47 74.3296 103.461 74.2016C103.436 73.8178 103.345 73.4413 103.192 73.0887L101.799 69.2824H96.7785L96.1804 70.8778C95.8227 71.697 95.6056 72.571 95.5381 73.463C95.5134 73.6906 95.5484 73.9207 95.6396 74.1306C95.7308 74.3405 95.8749 74.5228 96.0578 74.6595C96.5289 74.9149 97.0571 75.0454 97.5924 75.0387V75.5016H92.9395V75.0387C93.6978 74.9008 94.3613 74.0883 94.9301 72.6012L100.211 59.0254H101.809L107.408 73.5565C107.552 73.9787 107.792 74.3614 108.109 74.6743Z" fill="#AA2739"/>
<path d="M123.006 62.9409C122.133 61.8937 120.888 61.2295 119.535 61.0895V73.5327C121.153 73.2865 122.324 72.6513 123.05 71.6419C123.776 70.6324 124.139 69.1798 124.139 67.2643C124.139 65.3488 123.761 63.9405 123.006 62.9606V62.9409ZM112.357 71.5631C113.223 72.6441 114.479 73.3379 115.852 73.4933V61.0698C114.218 61.2996 113.038 61.9003 112.312 62.872C111.587 63.8437 111.221 65.2635 111.214 67.1314C111.214 69.0813 111.595 70.5586 112.357 71.5631ZM125.752 71.7847C124.271 72.9501 122.199 73.6591 119.535 73.9119V74.7589C119.518 75.1911 119.561 75.6236 119.662 76.0441C119.698 76.1644 119.761 76.2749 119.846 76.3671C119.931 76.4593 120.036 76.5307 120.152 76.5759C120.52 76.6895 120.901 76.7541 121.285 76.7679V77.2308H114.127V76.7679C114.506 76.7515 114.881 76.687 115.244 76.5759C115.362 76.5324 115.468 76.4615 115.553 76.3691C115.638 76.2767 115.701 76.1653 115.735 76.0441C115.834 75.6233 115.875 75.1909 115.857 74.7589V73.9119C113.108 73.7051 111.008 73.037 109.557 71.9078C108.845 71.3565 108.275 70.6407 107.897 69.8212C107.519 69.0017 107.343 68.1026 107.385 67.2003C107.362 66.3262 107.552 65.4597 107.937 64.6756C108.322 63.8914 108.892 63.2133 109.596 62.6997C111.074 61.554 113.159 60.8712 115.852 60.6512V59.824C115.87 59.3919 115.829 58.9595 115.73 58.5388C115.696 58.4175 115.634 58.3061 115.548 58.2137C115.463 58.1213 115.357 58.0504 115.24 58.007C114.877 57.8959 114.501 57.8313 114.122 57.8149V57.3521H121.295V57.8149C120.911 57.8288 120.53 57.8933 120.162 58.007C120.045 58.0521 119.941 58.1235 119.856 58.2157C119.771 58.3079 119.708 58.4184 119.672 58.5388C119.57 58.9592 119.528 59.3917 119.544 59.824V60.6709C122.29 60.8646 124.384 61.5047 125.825 62.5913C126.528 63.1183 127.092 63.8094 127.469 64.6048C127.846 65.4002 128.024 66.2759 127.987 67.156C128.009 68.0495 127.818 68.9353 127.431 69.7402C127.044 70.545 126.472 71.2458 125.761 71.7847" fill="#AA2739"/>
<path d="M144.15 59.7441C144.033 59.7879 143.927 59.8588 143.842 59.9512C143.757 60.0436 143.694 60.1548 143.66 60.2759C143.553 60.6921 143.509 61.1219 143.527 61.5512V73.0392C143.509 73.4686 143.553 73.8983 143.66 74.3145C143.694 74.4356 143.757 74.5468 143.842 74.6392C143.927 74.7316 144.033 74.8025 144.15 74.8464C144.518 74.9654 144.901 75.0285 145.288 75.0335V75.5013H138.139V75.0384C138.522 75.0313 138.902 74.9683 139.267 74.8513C139.383 74.8061 139.488 74.7347 139.573 74.6426C139.658 74.5504 139.721 74.4398 139.757 74.3195C139.859 73.9025 139.902 73.4731 139.884 73.0441V62.1766L133.29 73.3543C133.286 73.7102 133.339 74.0644 133.447 74.4032C133.489 74.5122 133.555 74.6104 133.64 74.6905C133.724 74.7706 133.826 74.8306 133.937 74.8661C134.288 74.9753 134.653 75.035 135.021 75.0433V75.5013H127.882V75.0384C128.262 75.0307 128.638 74.9677 129 74.8513C129.117 74.8078 129.223 74.737 129.309 74.6445C129.394 74.5521 129.456 74.4407 129.49 74.3195C129.595 73.9013 129.641 73.4703 129.627 73.0392V61.5315C129.641 61.0953 129.593 60.6592 129.485 60.2365C129.451 60.1153 129.389 60.0039 129.304 59.9114C129.218 59.819 129.113 59.7481 128.995 59.7047C128.633 59.5883 128.257 59.5253 127.877 59.5176V59.0547H135.021V59.5176C134.638 59.5232 134.257 59.5863 133.893 59.7047C133.775 59.7481 133.669 59.819 133.584 59.9114C133.499 60.0039 133.437 60.1153 133.403 60.2365C133.303 60.6538 133.262 61.0831 133.28 61.5118V72.3449L139.87 61.1376C139.866 60.8013 139.804 60.4683 139.688 60.1528C139.642 60.0483 139.575 59.9548 139.491 59.8784C139.406 59.802 139.306 59.7445 139.198 59.7096C138.851 59.6125 138.494 59.558 138.134 59.5471V59.0842H145.283V59.5471C144.896 59.5521 144.513 59.6151 144.145 59.7342" fill="#AA2739"/>
<path d="M117.273 80.0503C116.894 80.0591 116.517 80.1221 116.155 80.2374C116.038 80.2809 115.932 80.3517 115.847 80.4442C115.761 80.5366 115.699 80.648 115.665 80.7692C115.568 81.187 115.527 81.6159 115.542 82.0446V93.5621C115.527 93.9908 115.568 94.4197 115.665 94.8375C115.699 94.9587 115.761 95.0701 115.847 95.1625C115.932 95.255 116.038 95.3258 116.155 95.3693C116.517 95.4846 116.894 95.5476 117.273 95.5564V96.0193H92.9395V95.5564C93.3191 95.5487 93.6957 95.4857 94.0573 95.3693C94.1751 95.3258 94.2809 95.255 94.3661 95.1625C94.4513 95.0701 94.5135 94.9587 94.5476 94.8375C94.6493 94.4204 94.6922 93.9911 94.6751 93.5621V82.0446C94.6925 81.6156 94.6496 81.1862 94.5476 80.7692C94.5135 80.648 94.4513 80.5366 94.3661 80.4442C94.2809 80.3517 94.1751 80.2809 94.0573 80.2374C93.6957 80.121 93.3191 80.058 92.9395 80.0503V79.5825H99.8478V80.0503C99.5129 80.0574 99.1814 80.1207 98.8672 80.2374C98.7629 80.2882 98.6717 80.3627 98.6011 80.455C98.5305 80.5473 98.4822 80.6549 98.4603 80.7692C98.377 81.1889 98.3424 81.6169 98.3573 82.0446V93.5621C98.3378 93.995 98.3841 94.4284 98.4946 94.8473C98.5342 94.9748 98.6026 95.0913 98.6945 95.1878C98.7863 95.2843 98.8991 95.3582 99.0241 95.4038C99.4149 95.5216 99.8226 95.5732 100.23 95.5564H101.407C101.815 95.5732 102.222 95.5216 102.613 95.4038C102.74 95.3595 102.855 95.2862 102.948 95.1896C103.042 95.093 103.112 94.9758 103.152 94.8473C103.261 94.428 103.307 93.995 103.29 93.5621V82.0446C103.293 81.6156 103.247 81.1876 103.152 80.7692C103.13 80.6549 103.082 80.5473 103.012 80.455C102.941 80.3627 102.85 80.2882 102.746 80.2374C102.431 80.1207 102.1 80.0574 101.765 80.0503V79.5825H108.448V80.0503C108.113 80.0561 107.781 80.1194 107.467 80.2374C107.366 80.2902 107.278 80.3656 107.21 80.4578C107.142 80.5499 107.096 80.6565 107.075 80.7692C106.992 81.1889 106.957 81.6169 106.972 82.0446V93.5621C106.952 93.9882 107.005 94.4145 107.129 94.8227C107.175 94.9488 107.248 95.0637 107.341 95.1596C107.435 95.2555 107.548 95.3303 107.673 95.3791C108.051 95.5028 108.447 95.5627 108.845 95.5564H110.017C110.423 95.5736 110.829 95.522 111.218 95.4038C111.342 95.3566 111.454 95.2822 111.546 95.1859C111.637 95.0896 111.706 94.9739 111.747 94.8473C111.86 94.4288 111.908 93.9953 111.89 93.5621V82.0446C111.905 81.6169 111.87 81.1889 111.787 80.7692C111.765 80.6549 111.716 80.5473 111.646 80.455C111.575 80.3627 111.484 80.2882 111.38 80.2374C111.066 80.1207 110.734 80.0574 110.399 80.0503V79.5825H117.273V80.0503Z" fill="#AA2739"/>
<path d="M125.661 89.3322L123.381 83.0638L120.978 89.3322H125.661ZM132.143 95.1968C132.346 95.4011 132.612 95.5311 132.898 95.5661V96.029H125.877V95.5661C126.302 95.5687 126.724 95.4936 127.122 95.3445C127.238 95.2917 127.336 95.2045 127.402 95.0945C127.467 94.9845 127.498 94.857 127.49 94.729C127.467 94.3449 127.375 93.968 127.22 93.6162L125.832 89.7803H120.807L120.209 91.3757C119.851 92.1949 119.634 93.0689 119.566 93.9609C119.531 94.193 119.559 94.4304 119.647 94.6479C119.735 94.8654 119.88 95.0551 120.066 95.1968C120.537 95.4528 121.066 95.5834 121.601 95.576V96.0388H116.973V95.576C117.731 95.4381 118.385 94.6174 118.934 93.1139L124.239 79.5381H125.842L131.451 94.0692C131.589 94.4948 131.826 94.8813 132.143 95.1968Z" fill="#AA2739"/>
<path d="M113.027 109.477L115.41 103.194L117.71 109.477H113.027ZM124.191 115.332C123.87 115.023 123.629 114.639 123.49 114.214L117.862 99.6685H116.273L110.997 113.249C110.429 114.726 109.987 115.682 108.879 115.682C108.502 115.627 108.161 115.427 107.928 115.125C107.649 114.873 107.407 114.583 107.207 114.264L101.814 105.843L104.702 102.396C105.545 101.301 106.723 100.513 108.055 100.156V99.7128H102.476V100.156C102.924 100.156 103.363 100.284 103.741 100.525C103.886 100.622 104.004 100.755 104.084 100.911C104.164 101.067 104.203 101.241 104.197 101.417C104.197 102.027 103.839 102.746 103.133 103.568L101.77 105.213C101.266 105.83 100.682 106.376 100.034 106.838C99.5354 107.179 98.9507 107.372 98.3475 107.394V102.17C98.3319 101.743 98.3731 101.316 98.4701 100.899C98.5059 100.779 98.5687 100.667 98.6536 100.574C98.7386 100.481 98.8435 100.409 98.9604 100.363C99.327 100.246 99.7084 100.183 100.093 100.176V99.7128H92.9395V100.176C93.3191 100.183 93.6957 100.246 94.0573 100.363C94.1748 100.408 94.2802 100.48 94.3653 100.573C94.4504 100.666 94.5128 100.778 94.5476 100.899C94.6493 101.315 94.6906 101.743 94.6702 102.17V113.687C94.6911 114.116 94.6498 114.546 94.5476 114.963C94.5135 115.084 94.4513 115.195 94.3661 115.288C94.2809 115.38 94.1751 115.451 94.0573 115.495C93.6968 115.616 93.3196 115.679 92.9395 115.682V116.174H100.073V115.682C99.6884 115.68 99.3062 115.616 98.9408 115.495C98.8236 115.45 98.7184 115.379 98.6333 115.287C98.5482 115.194 98.4856 115.084 98.4505 114.963C98.3532 114.545 98.312 114.116 98.3279 113.687V107.887C98.6329 107.898 98.9272 108.003 99.1712 108.187C99.4749 108.475 99.7343 108.807 99.941 109.172L103.295 114.618C103.426 114.788 103.515 114.988 103.555 115.199C103.555 115.357 103.456 115.47 103.26 115.529C102.954 115.609 102.64 115.654 102.324 115.662V116.154H113.65V115.662C113.113 115.67 112.584 115.541 112.11 115.288C111.929 115.15 111.786 114.967 111.696 114.758C111.606 114.548 111.571 114.318 111.595 114.091C111.661 113.198 111.877 112.322 112.233 111.501L112.836 109.906H117.862L119.254 113.717C119.407 114.068 119.499 114.443 119.524 114.825C119.532 114.952 119.502 115.079 119.438 115.189C119.373 115.299 119.276 115.387 119.161 115.44C118.761 115.59 118.337 115.665 117.911 115.662V116.154H124.946V115.662C124.661 115.627 124.395 115.497 124.191 115.293" fill="#AA2739"/>
<path d="M135.715 100.324C136.159 100.588 136.526 100.966 136.779 101.418C137.032 101.87 137.162 102.381 137.157 102.899C137.145 103.486 136.987 104.06 136.699 104.57C136.41 105.079 136 105.509 135.504 105.819C134.379 106.609 133.107 107.162 131.763 107.444C132.783 107.45 133.795 107.616 134.764 107.937C135.657 108.219 136.467 108.718 137.122 109.389C137.421 109.698 137.657 110.063 137.814 110.464C137.971 110.865 138.048 111.293 138.039 111.723C138.044 112.195 137.955 112.662 137.777 113.099C137.6 113.535 137.337 113.931 137.005 114.264C136.256 115.022 135.333 115.583 134.318 115.899C133.181 116.279 131.99 116.469 130.792 116.46C129.037 116.46 127.653 116.094 126.64 115.362C126.277 115.112 125.966 114.795 125.723 114.427C125.486 114.073 125.362 113.656 125.365 113.23C125.354 112.973 125.4 112.716 125.498 112.478C125.596 112.24 125.745 112.026 125.933 111.851C126.313 111.503 126.812 111.316 127.326 111.329C127.573 111.311 127.821 111.347 128.053 111.435C128.285 111.523 128.495 111.661 128.668 111.84C128.841 112.018 128.973 112.233 129.054 112.468C129.136 112.703 129.165 112.953 129.14 113.201C129.142 113.662 128.966 114.107 128.65 114.441C128.301 114.813 127.842 115.062 127.341 115.151C127.726 115.446 128.174 115.65 128.65 115.746C129.239 115.9 129.846 115.974 130.454 115.968C131 116.001 131.547 115.923 132.061 115.736C132.575 115.55 133.046 115.26 133.445 114.885C133.822 114.466 134.111 113.976 134.296 113.443C134.48 112.91 134.556 112.345 134.519 111.782C134.554 110.761 134.281 109.754 133.734 108.892C133.479 108.511 133.136 108.199 132.733 107.981C132.331 107.764 131.882 107.649 131.425 107.646C131.129 107.83 130.792 107.935 130.444 107.951C130.319 107.958 130.195 107.923 130.091 107.853C130.047 107.818 130.013 107.773 129.989 107.721C129.966 107.67 129.956 107.614 129.959 107.558C129.959 107.306 130.135 107.183 130.488 107.183C130.819 107.199 131.148 107.249 131.469 107.331C132.209 107.06 132.813 106.509 133.151 105.795C133.493 105.012 133.661 104.163 133.641 103.308C133.641 102.182 133.427 101.361 132.999 100.846C132.758 100.578 132.46 100.369 132.127 100.234C131.794 100.099 131.435 100.042 131.077 100.068C130.514 100.033 129.951 100.141 129.441 100.383C128.931 100.625 128.49 100.993 128.159 101.452C127.437 102.512 127.038 103.761 127.012 105.046H126.483C126.483 102.397 126.448 100.615 126.38 99.6593H126.909C126.936 99.987 127.005 100.31 127.115 100.619C127.14 100.702 127.191 100.774 127.26 100.825C127.328 100.877 127.412 100.905 127.498 100.905C127.583 100.903 127.667 100.881 127.743 100.841C127.836 100.792 127.939 100.733 128.052 100.659C128.568 100.274 129.13 99.9529 129.724 99.7036C130.421 99.4737 131.153 99.3703 131.886 99.3983C133.226 99.3353 134.555 99.6619 135.715 100.339" fill="#AA2739"/>
<path d="M110.204 129.667L107.924 123.398L105.521 129.667H110.204ZM116.686 135.531C116.889 135.735 117.155 135.865 117.441 135.9V136.393H110.42V135.9C110.845 135.902 111.266 135.827 111.665 135.679C111.782 135.627 111.88 135.54 111.946 135.43C112.012 135.32 112.042 135.192 112.033 135.063C112.01 134.679 111.918 134.302 111.763 133.95L110.375 130.159H105.33L104.732 131.754C104.372 132.573 104.155 133.447 104.09 134.339C104.068 134.566 104.106 134.795 104.2 135.002C104.294 135.209 104.44 135.388 104.624 135.521C105.095 135.778 105.623 135.908 106.159 135.9V136.393H101.516V135.9C102.277 135.766 102.939 134.953 103.501 133.463L108.772 119.887H110.375L115.984 134.418C116.127 134.84 116.367 135.222 116.686 135.531Z" fill="#AA2739"/>
<path d="M133.259 120.582C133.142 120.627 133.037 120.698 132.952 120.79C132.867 120.883 132.804 120.993 132.768 121.113C132.667 121.53 132.624 121.96 132.641 122.389V133.906C132.623 134.335 132.666 134.765 132.768 135.182C132.804 135.302 132.867 135.413 132.952 135.505C133.037 135.597 133.142 135.668 133.259 135.713C133.625 135.832 134.006 135.895 134.391 135.901V136.393H127.247V135.901C127.629 135.893 128.007 135.83 128.37 135.713C128.487 135.668 128.592 135.597 128.677 135.505C128.762 135.413 128.825 135.302 128.86 135.182C128.967 134.765 129.012 134.336 128.993 133.906V128.327H122.859V133.906C122.841 134.335 122.882 134.764 122.982 135.182C123.016 135.303 123.078 135.414 123.163 135.507C123.249 135.599 123.354 135.67 123.472 135.713C123.837 135.832 124.217 135.895 124.6 135.901V136.393H117.451V135.901C117.831 135.893 118.207 135.83 118.569 135.713C118.687 135.67 118.793 135.599 118.878 135.507C118.963 135.414 119.025 135.303 119.059 135.182C119.159 134.764 119.2 134.335 119.182 133.906V122.389C119.2 121.96 119.159 121.531 119.059 121.113C119.025 120.992 118.963 120.881 118.878 120.788C118.793 120.696 118.687 120.625 118.569 120.582C118.207 120.465 117.831 120.402 117.451 120.395V119.932H124.585V120.395C124.202 120.4 123.822 120.463 123.457 120.582C123.34 120.625 123.234 120.696 123.149 120.788C123.063 120.881 123.001 120.992 122.967 121.113C122.868 121.531 122.826 121.96 122.844 122.389V127.864H128.973V122.389C128.992 121.959 128.947 121.53 128.841 121.113C128.805 120.993 128.742 120.883 128.657 120.79C128.572 120.698 128.467 120.627 128.351 120.582C127.987 120.465 127.609 120.402 127.228 120.395V119.932H134.391V120.395C134.006 120.4 133.625 120.463 133.259 120.582Z" fill="#AA2739"/>
<path d="M151.589 120.582C151.472 120.627 151.367 120.698 151.282 120.79C151.197 120.883 151.134 120.993 151.098 121.113C150.997 121.53 150.954 121.96 150.971 122.389V133.906C150.953 134.335 150.996 134.765 151.098 135.182C151.134 135.302 151.197 135.413 151.282 135.505C151.367 135.597 151.472 135.668 151.589 135.713C151.955 135.832 152.336 135.895 152.721 135.901V136.393H145.577V135.901C145.959 135.894 146.337 135.831 146.7 135.713C146.818 135.67 146.924 135.599 147.009 135.507C147.094 135.414 147.156 135.303 147.191 135.182C147.297 134.765 147.342 134.336 147.323 133.906V123.039L140.733 134.212C140.726 134.568 140.779 134.922 140.89 135.26C140.932 135.369 140.998 135.468 141.083 135.548C141.168 135.628 141.269 135.688 141.38 135.723C141.732 135.833 142.096 135.893 142.464 135.901V136.393H135.32V135.901C135.7 135.893 136.077 135.83 136.438 135.713C136.556 135.67 136.662 135.599 136.747 135.507C136.832 135.414 136.894 135.303 136.929 135.182C137.028 134.764 137.069 134.335 137.051 133.906V122.389C137.069 121.96 137.028 121.531 136.929 121.113C136.894 120.992 136.832 120.881 136.747 120.788C136.662 120.696 136.556 120.625 136.438 120.582C136.077 120.465 135.7 120.402 135.32 120.395V119.932H142.454V120.395C142.071 120.4 141.691 120.463 141.327 120.582C141.209 120.625 141.103 120.696 141.018 120.788C140.933 120.881 140.87 120.992 140.836 121.113C140.737 121.531 140.696 121.96 140.714 122.389V133.222L147.303 122.015C147.299 121.678 147.238 121.345 147.122 121.03C147.075 120.926 147.007 120.834 146.923 120.759C146.838 120.683 146.739 120.626 146.632 120.591C146.286 120.49 145.928 120.434 145.568 120.424V119.961H152.711V120.424C152.327 120.429 151.945 120.492 151.579 120.611" fill="#AA2739"/>
<path d="M142.867 33.1533L138.665 44.0849H137.43L141.632 33.1533H142.867Z" fill="white"/>
<path d="M97.8164 151.062L93.6145 161.993H92.3789L96.5808 151.062H97.8164Z" fill="white"/>
</g>
<defs>
<clipPath id="clip0_737_1607">
<rect width="250" height="900" fill="white"/>
</clipPath>
</defs>
</svg>
