<svg width="153" height="232" viewBox="0 0 153 232" fill="none" xmlns="http://www.w3.org/2000/svg">
<path d="M152.999 15.866L152.989 202.998L25.894 202.988L31.938 187.741L1.10843 187.871L0.998535 1.21772L106.454 0.998047L100.71 15.866H152.999Z" fill="#AA2739"/>
<path d="M125.961 40.7864C125.961 41.5103 126.176 42.218 126.578 42.82C126.979 43.4219 127.551 43.8911 128.219 44.1681C128.887 44.4452 129.622 44.5177 130.331 44.3764C131.041 44.2352 131.692 43.8866 132.204 43.3746C132.715 42.8627 133.063 42.2105 133.205 41.5005C133.346 40.7904 133.273 40.0544 132.996 39.3856C132.72 38.7167 132.251 38.1451 131.65 37.7429C131.048 37.3407 130.341 37.126 129.618 37.126C128.649 37.1286 127.721 37.5151 127.035 38.201C126.35 38.8869 125.964 39.8164 125.961 40.7864" fill="white"/>
<path d="M27.709 162.118C27.711 162.841 27.9271 163.548 28.3301 164.149C28.7331 164.749 29.3049 165.217 29.9732 165.492C30.6416 165.768 31.3765 165.839 32.0852 165.697C32.7939 165.554 33.4445 165.205 33.9549 164.692C34.4653 164.18 34.8126 163.528 34.9529 162.818C35.0932 162.108 35.0202 161.373 34.7432 160.705C34.4661 160.036 33.9974 159.465 33.3963 159.063C32.7951 158.662 32.0885 158.447 31.3657 158.447C30.8847 158.447 30.4084 158.542 29.9641 158.727C29.5198 158.911 29.1162 159.182 28.7765 159.523C28.4368 159.864 28.1677 160.269 27.9845 160.714C27.8013 161.159 27.7077 161.636 27.709 162.118Z" fill="white"/>
<path d="M34.7073 43.0551L30.0867 30.3929L25.2177 43.0551H34.7073ZM47.8338 54.8818C48.2478 55.2926 48.7858 55.5548 49.3641 55.6278V56.5528H35.1445V55.6179C36.0058 55.6209 36.8606 55.4693 37.6685 55.1702C37.9043 55.0635 38.102 54.8873 38.2352 54.6651C38.3684 54.443 38.4306 54.1854 38.4137 53.9269C38.3621 53.1517 38.1772 52.3912 37.8672 51.6789L35.0452 43.9901H24.8699L23.6576 47.2128C22.9328 48.8677 22.4927 50.6332 22.3559 52.4349C22.306 52.8947 22.3769 53.3596 22.5616 53.7835C22.7464 54.2075 23.0385 54.5758 23.4092 54.852C24.364 55.3679 25.4344 55.6315 26.5194 55.6179V56.5528H17.0894V55.6179C18.6262 55.3393 19.971 53.6981 21.1237 50.6942L31.8256 23.271H35.065L46.4129 52.6239C46.705 53.4767 47.1915 54.2497 47.8338 54.8818" fill="white"/>
<path d="M78.0249 31.1802C76.2552 29.0647 73.7315 27.7231 70.9896 27.4402V52.5756C74.2688 52.0783 76.6436 50.7952 78.1143 48.7561C79.5849 46.717 80.3203 43.7827 80.3203 39.9134C80.3203 36.0441 79.5551 33.1994 78.0249 31.22V31.1802ZM56.4421 48.5969C58.198 50.7807 60.7443 52.182 63.5271 52.496V27.4004C60.2148 27.8646 57.8234 29.0781 56.3527 31.0409C54.8821 33.0037 54.1401 35.8717 54.1269 39.6449C54.1269 43.5838 54.8986 46.5678 56.4421 48.5969V48.5969ZM83.5895 49.0445C80.5885 51.3986 76.3886 52.8309 70.9896 53.3415V55.0524C70.9554 55.9255 71.0423 56.7992 71.248 57.6485C71.3206 57.8916 71.4479 58.1149 71.6202 58.3011C71.7925 58.4873 72.005 58.6315 72.2416 58.7227C72.9865 58.9522 73.7582 59.0827 74.537 59.1106V60.0456H60.0293V59.1106C60.7978 59.0775 61.5591 58.9471 62.2949 58.7227C62.5335 58.6349 62.748 58.4918 62.9207 58.3051C63.0934 58.1184 63.2195 57.8933 63.2886 57.6485C63.4897 56.7986 63.5733 55.925 63.537 55.0524V53.3415C57.9658 52.9238 53.7095 51.5743 50.7682 49.2932C49.3244 48.1796 48.1702 46.7337 47.4039 45.0783C46.6375 43.4228 46.2816 41.6067 46.3662 39.7841C46.32 38.0184 46.7039 36.2681 47.4847 34.6841C48.2655 33.1002 49.4197 31.7303 50.8477 30.6928C53.842 28.3785 58.0685 26.9992 63.5271 26.5549V24.8839C63.5634 24.0112 63.4798 23.1377 63.2787 22.2878C63.2095 22.0429 63.0834 21.8179 62.9107 21.6312C62.738 21.4445 62.5236 21.3013 62.285 21.2135C61.5491 20.9891 60.7879 20.8588 60.0194 20.8256V19.8906H74.5569V20.8256C73.7781 20.8536 73.0063 20.984 72.2615 21.2135C72.0249 21.3047 71.8123 21.449 71.6401 21.6352C71.4678 21.8214 71.3405 22.0446 71.2678 22.2878C71.0622 23.137 70.9753 24.0107 71.0095 24.8839V26.5947C76.5741 26.986 80.8171 28.279 83.7385 30.474C85.1629 31.5384 86.3064 32.9345 87.07 34.5412C87.8336 36.1479 88.1942 37.9168 88.1206 39.6946C88.1636 41.4996 87.7769 43.2889 86.9925 44.9147C86.208 46.5405 85.0484 47.9561 83.6093 49.0445" fill="white"/>
<path d="M120.878 24.7231C120.64 24.8116 120.426 24.955 120.253 25.1416C120.081 25.3282 119.954 25.5528 119.884 25.7974C119.668 26.6381 119.578 27.5063 119.616 28.3736V51.5793C119.578 52.4466 119.668 53.3147 119.884 54.1555C119.954 54.4 120.081 54.6247 120.253 54.8113C120.426 54.9979 120.64 55.1412 120.878 55.2297C121.623 55.4703 122.4 55.5977 123.183 55.6077V56.5527H108.696V55.6177C109.472 55.6033 110.242 55.476 110.981 55.2397C111.218 55.1485 111.43 55.0043 111.603 54.8181C111.775 54.6318 111.902 54.4086 111.975 54.1654C112.181 53.3231 112.268 52.4559 112.233 51.5892V29.6368L98.8682 52.2159C98.8593 52.9346 98.9667 53.6501 99.1861 54.3345C99.2715 54.5548 99.4051 54.7531 99.577 54.9149C99.749 55.0767 99.9549 55.1979 100.18 55.2695C100.892 55.4902 101.631 55.6107 102.376 55.6276V56.5527H87.9079V55.6177C88.6774 55.6021 89.4405 55.4748 90.1735 55.2397C90.4121 55.1519 90.6265 55.0088 90.7992 54.822C90.9719 54.6353 91.098 54.4103 91.1672 54.1654C91.3802 53.3206 91.4739 52.4501 91.4454 51.5793V28.3338C91.4734 27.4525 91.3764 26.5717 91.1572 25.7178C91.0881 25.4729 90.962 25.2479 90.7893 25.0612C90.6166 24.8745 90.4021 24.7313 90.1635 24.6435C89.4306 24.4084 88.6674 24.2811 87.8979 24.2656V23.3306H102.376V24.2656C101.599 24.277 100.829 24.4044 100.09 24.6435C99.8518 24.7313 99.6374 24.8745 99.4646 25.0612C99.2919 25.2479 99.1658 25.4729 99.0967 25.7178C98.8946 26.5608 98.811 27.4279 98.8483 28.294V50.1768L112.203 27.538C112.195 26.8588 112.07 26.186 111.836 25.5487C111.743 25.3376 111.606 25.1487 111.435 24.9944C111.263 24.8401 111.061 24.7239 110.842 24.6535C110.139 24.4574 109.415 24.3472 108.686 24.3252V23.3902H123.174V24.3252C122.391 24.3353 121.613 24.4627 120.868 24.7032" fill="white"/>
<path d="M66.4057 65.7413C65.6364 65.7591 64.8736 65.8863 64.1401 66.1193C63.9015 66.2071 63.6871 66.3502 63.5143 66.5369C63.3416 66.7237 63.2156 66.9487 63.1464 67.1935C62.9494 68.0374 62.8658 68.9038 62.898 69.7698V93.0352C62.8664 93.9012 62.9499 94.7675 63.1464 95.6114C63.2156 95.8563 63.3416 96.0813 63.5143 96.268C63.6871 96.4547 63.9015 96.5979 64.1401 96.6857C64.8736 96.9186 65.6364 97.0459 66.4057 97.0636V97.9986H17.0894V97.0636C17.8588 97.0481 18.622 96.9208 19.3549 96.6857C19.5935 96.5979 19.808 96.4547 19.9807 96.268C20.1534 96.0813 20.2795 95.8563 20.3486 95.6114C20.5546 94.769 20.6415 93.9018 20.607 93.0352V69.7698C20.6422 68.9031 20.5552 68.0359 20.3486 67.1935C20.2795 66.9487 20.1534 66.7237 19.9807 66.5369C19.808 66.3502 19.5935 66.2071 19.3549 66.1193C18.622 65.8842 17.8588 65.7569 17.0894 65.7413V64.7964H31.0903V65.7413C30.4115 65.7557 29.7398 65.8835 29.1029 66.1193C28.8915 66.2218 28.7068 66.3723 28.5636 66.5588C28.4205 66.7453 28.3227 66.9626 28.2782 67.1935C28.1094 68.0413 28.0393 68.9058 28.0695 69.7698V93.0352C28.0299 93.9097 28.1238 94.7851 28.3478 95.6313C28.4281 95.8887 28.5667 96.1241 28.7528 96.3191C28.939 96.5141 29.1676 96.6633 29.4209 96.7553C30.213 96.9933 31.0391 97.0975 31.8654 97.0636H34.2502C35.0765 97.0975 35.9026 96.9933 36.6947 96.7553C36.9516 96.6659 37.1842 96.5178 37.374 96.3227C37.5637 96.1276 37.7054 95.8908 37.7877 95.6313C38.0067 94.7842 38.1004 93.9095 38.0659 93.0352V69.7698C38.0733 68.9031 37.9799 68.0386 37.7877 67.1935C37.7432 66.9626 37.6454 66.7453 37.5023 66.5588C37.3591 66.3723 37.1744 66.2218 36.963 66.1193C36.3261 65.8835 35.6544 65.7557 34.9756 65.7413V64.7964H48.5195V65.7413C47.8403 65.7531 47.1682 65.8809 46.5321 66.1193C46.3266 66.226 46.1482 66.3782 46.0105 66.5644C45.8727 66.7505 45.7792 66.9657 45.7372 67.1935C45.5683 68.0413 45.4983 68.9058 45.5285 69.7698V93.0352C45.4889 93.8959 45.5965 94.7571 45.8465 95.5816C45.9404 95.8364 46.0873 96.0683 46.2774 96.262C46.4676 96.4558 46.6966 96.607 46.9494 96.7056C47.7159 96.9553 48.5184 97.0763 49.3243 97.0636H51.6992C52.5223 97.0985 53.3453 96.9942 54.1337 96.7553C54.3852 96.6601 54.6121 96.5097 54.7978 96.3152C54.9835 96.1207 55.1233 95.887 55.2069 95.6313C55.4353 94.7858 55.5325 93.9102 55.4951 93.0352V69.7698C55.5253 68.9058 55.4552 68.0413 55.2864 67.1935C55.2419 66.9626 55.1442 66.7453 55.001 66.5588C54.8578 66.3723 54.6731 66.2218 54.4617 66.1193C53.8248 65.8835 53.1532 65.7557 52.4743 65.7413V64.7964H66.4057V65.7413Z" fill="white"/>
<path d="M83.4039 84.4911L78.7833 71.8289L73.9142 84.4911H83.4039ZM96.5403 96.3377C96.9529 96.7503 97.4916 97.0129 98.0706 97.0837V98.0187H83.8411V97.0837C84.7025 97.0889 85.5578 96.9372 86.365 96.6361C86.6009 96.5294 86.7986 96.3531 86.9317 96.131C87.0649 95.9088 87.1272 95.6513 87.1103 95.3927C87.0635 94.6168 86.8785 93.8555 86.5638 93.1448L83.7517 85.3963H73.5665L72.3542 88.619C71.6294 90.2738 71.1893 92.0394 71.0525 93.841C70.9814 94.31 71.038 94.7894 71.2164 95.2288C71.3948 95.6682 71.6883 96.0513 72.066 96.3377C73.0203 96.8548 74.0911 97.1185 75.1762 97.1036V98.0386H65.7959V97.1036C67.3328 96.8251 68.6577 95.1673 69.7706 92.1302L80.5222 64.707H83.7715L95.1392 94.0599C95.4191 94.9196 95.8994 95.7004 96.5403 96.3377" fill="white"/>
<path d="M57.8004 125.185L62.6297 112.492L67.2901 125.185H57.8004ZM80.4265 137.011C79.7756 136.386 79.2876 135.611 79.0056 134.753L67.5981 105.371H64.3786L53.6866 132.804C52.5339 135.788 51.6396 137.717 49.3939 137.717C48.6302 137.607 47.9392 137.204 47.4662 136.593C46.9015 136.083 46.4099 135.498 46.0055 134.853L35.075 117.844L40.9277 110.881C42.6366 108.668 45.0246 107.077 47.7245 106.355V105.46H36.4164V106.355C37.3244 106.355 38.2137 106.614 38.9801 107.101C39.2746 107.298 39.5141 107.566 39.6759 107.881C39.8376 108.196 39.9162 108.548 39.9043 108.902C39.9043 110.135 39.1789 111.587 37.748 113.248L34.9855 116.571C33.9638 117.816 32.7808 118.92 31.4679 119.853C30.4571 120.543 29.2721 120.932 28.0496 120.977V110.424C28.018 109.561 28.1015 108.698 28.2981 107.857C28.3707 107.613 28.498 107.388 28.6701 107.201C28.8423 107.013 29.0548 106.867 29.2918 106.773C30.0347 106.537 30.8078 106.41 31.5872 106.395V105.46H17.0894V106.395C17.8588 106.411 18.622 106.538 19.3549 106.773C19.593 106.865 19.8067 107.01 19.9791 107.198C20.1515 107.386 20.278 107.612 20.3486 107.857C20.5547 108.696 20.6384 109.561 20.597 110.424V133.689C20.6393 134.555 20.5557 135.423 20.3486 136.265C20.2795 136.51 20.1534 136.735 19.9807 136.922C19.808 137.109 19.5936 137.252 19.3549 137.339C18.6243 137.584 17.8597 137.712 17.0894 137.717V138.712H31.5474V137.717C30.7672 137.713 29.9925 137.585 29.252 137.339C29.0146 137.25 28.8013 137.106 28.6289 136.919C28.4564 136.733 28.3296 136.509 28.2583 136.265C28.0613 135.421 27.9777 134.555 28.0099 133.689V121.972C28.6281 121.995 29.2245 122.206 29.719 122.578C30.3345 123.161 30.8603 123.831 31.2791 124.568L38.0759 135.569C38.3418 135.913 38.5223 136.315 38.6025 136.743C38.6025 137.061 38.4038 137.29 38.0063 137.409C37.3861 137.571 36.7492 137.661 36.1084 137.678V138.672H59.0624V137.678C57.9753 137.693 56.9019 137.433 55.9423 136.922C55.5749 136.643 55.2858 136.274 55.103 135.851C54.9202 135.427 54.8499 134.963 54.8989 134.505C55.0321 132.7 55.4688 130.931 56.1907 129.273L57.4129 126.05H67.5981L70.4202 133.749C70.731 134.457 70.9159 135.215 70.9667 135.987C70.9844 136.244 70.9236 136.501 70.7923 136.723C70.661 136.945 70.4654 137.122 70.2314 137.23C69.4211 137.533 68.5623 137.684 67.6975 137.678V138.672H81.9568V137.678C81.3778 137.607 80.8392 137.344 80.4265 136.932" fill="white"/>
<path d="M103.784 106.694C104.684 107.228 105.428 107.99 105.941 108.903C106.453 109.817 106.717 110.849 106.705 111.896C106.681 113.081 106.362 114.24 105.778 115.27C105.193 116.3 104.361 117.168 103.356 117.795C101.076 119.389 98.4972 120.506 95.7747 121.077C97.8412 121.089 99.8931 121.425 101.856 122.072C103.666 122.641 105.308 123.649 106.636 125.006C107.242 125.629 107.719 126.367 108.038 127.177C108.357 127.986 108.512 128.851 108.494 129.721C108.504 130.673 108.323 131.618 107.963 132.499C107.603 133.38 107.071 134.181 106.397 134.853C104.879 136.384 103.01 137.518 100.952 138.155C98.6486 138.924 96.2347 139.307 93.8072 139.289C90.2498 139.289 87.4443 138.55 85.3907 137.071C84.6561 136.566 84.0252 135.925 83.5325 135.181C83.0539 134.467 82.8012 133.625 82.8071 132.764C82.7861 132.244 82.8783 131.726 83.0773 131.245C83.2764 130.764 83.5775 130.332 83.9598 129.979C84.7287 129.275 85.7403 128.897 86.7819 128.925C87.2829 128.887 87.786 128.96 88.2558 129.139C88.7257 129.317 89.1508 129.596 89.5013 129.956C89.8517 130.316 90.1191 130.749 90.2845 131.224C90.4498 131.699 90.5092 132.204 90.4585 132.705C90.4621 133.637 90.1061 134.535 89.4648 135.211C88.757 135.962 87.8268 136.464 86.8117 136.644C87.5933 137.241 88.5006 137.653 89.4648 137.847C90.6586 138.157 91.8882 138.308 93.1215 138.295C94.2275 138.362 95.3356 138.203 96.3778 137.827C97.4201 137.45 98.3747 136.865 99.183 136.106C99.9472 135.262 100.534 134.271 100.907 133.195C101.281 132.118 101.435 130.977 101.359 129.84C101.431 127.778 100.877 125.742 99.7693 124.001C99.2529 123.232 98.5566 122.601 97.741 122.162C96.9253 121.723 96.0149 121.491 95.089 121.485C94.4894 121.855 93.8056 122.068 93.1017 122.101C92.848 122.115 92.5969 122.045 92.3862 121.903C92.2973 121.832 92.2266 121.74 92.18 121.637C92.1333 121.533 92.112 121.419 92.1179 121.306C92.1179 120.798 92.4756 120.55 93.1911 120.55C93.8619 120.582 94.5277 120.682 95.1785 120.848C96.6772 120.301 97.9013 119.187 98.5868 117.745C99.2808 116.163 99.62 114.449 99.5805 112.722C99.5805 110.447 99.1466 108.789 98.2787 107.748C97.7914 107.207 97.1873 106.785 96.5124 106.512C95.8375 106.24 95.1094 106.125 94.3835 106.177C93.2425 106.106 92.102 106.325 91.0683 106.813C90.0345 107.302 89.1411 108.045 88.4711 108.972C87.0062 111.114 86.198 113.638 86.1459 116.233H85.0727C85.0727 110.882 85.0032 107.281 84.8641 105.351H85.9372C85.9912 106.013 86.1315 106.665 86.3546 107.291C86.4054 107.457 86.5081 107.603 86.6475 107.707C86.7869 107.81 86.9559 107.867 87.1296 107.868C87.303 107.864 87.4731 107.819 87.6265 107.738C87.8153 107.639 88.024 107.52 88.2525 107.37C89.2998 106.592 90.4376 105.944 91.641 105.441C93.0535 104.976 94.5374 104.768 96.0231 104.824C98.7387 104.697 101.433 105.356 103.784 106.724" fill="white"/>
<path d="M52.0802 165.966L47.4596 153.304L42.5905 165.966H52.0802ZM65.2166 177.813C65.6292 178.225 66.1679 178.488 66.7469 178.559V179.553H52.5174V178.559C53.3788 178.563 54.2338 178.411 55.0413 178.111C55.279 178.007 55.4783 177.831 55.6118 177.608C55.7453 177.385 55.8064 177.127 55.7866 176.868C55.7399 176.092 55.5548 175.33 55.2401 174.62L52.428 166.961H42.203L40.9907 170.183C40.2614 171.837 39.8211 173.603 39.689 175.406C39.6458 175.863 39.723 176.325 39.913 176.743C40.103 177.162 40.3992 177.524 40.7721 177.793C41.7259 178.311 42.7971 178.575 43.8823 178.559V179.553H34.4722V178.559C36.0157 178.287 37.3571 176.646 38.4966 173.635L49.1786 146.212H52.428L63.7956 175.565C64.0838 176.417 64.571 177.187 65.2166 177.813" fill="white"/>
<path d="M98.8023 147.615C98.5657 147.706 98.3531 147.85 98.1809 148.036C98.0086 148.223 97.8813 148.446 97.8086 148.689C97.6027 149.531 97.5157 150.399 97.5503 151.265V174.531C97.515 175.397 97.602 176.265 97.8086 177.107C97.8813 177.35 98.0086 177.573 98.1809 177.759C98.3531 177.946 98.5657 178.09 98.8023 178.181C99.5443 178.421 100.318 178.548 101.098 178.559V179.554H86.6198V178.559C87.3926 178.544 88.1592 178.417 88.8953 178.181C89.1319 178.09 89.3445 177.946 89.5168 177.759C89.689 177.573 89.8164 177.35 89.889 177.107C90.1051 176.266 90.1956 175.398 90.1573 174.531V163.261H77.7264V174.531C77.6891 175.397 77.7727 176.264 77.9748 177.107C78.0439 177.352 78.17 177.577 78.3427 177.763C78.5154 177.95 78.7299 178.093 78.9685 178.181C79.7073 178.42 80.4776 178.548 81.2539 178.559V179.554H66.7661V178.559C67.5356 178.544 68.2988 178.416 69.0317 178.181C69.2703 178.093 69.4847 177.95 69.6574 177.763C69.8302 177.577 69.9563 177.352 70.0254 177.107C70.2275 176.264 70.3111 175.397 70.2738 174.531V151.265C70.3104 150.399 70.2268 149.532 70.0254 148.689C69.9563 148.444 69.8302 148.219 69.6574 148.032C69.4847 147.846 69.2703 147.703 69.0317 147.615C68.2988 147.38 67.5356 147.252 66.7661 147.237V146.302H81.2241V147.237C80.4478 147.248 79.6775 147.376 78.9387 147.615C78.7001 147.703 78.4856 147.846 78.3129 148.032C78.1402 148.219 78.0141 148.444 77.945 148.689C77.7435 149.532 77.6599 150.399 77.6966 151.265V162.326H90.1176V151.265C90.1551 150.398 90.0647 149.53 89.8493 148.689C89.7766 148.446 89.6493 148.223 89.477 148.036C89.3048 147.85 89.0922 147.706 88.8556 147.615C88.1195 147.379 87.3529 147.251 86.5801 147.237V146.302H101.098V147.237C100.318 147.247 99.5443 147.375 98.8023 147.615" fill="white"/>
<path d="M135.951 147.615C135.715 147.706 135.502 147.85 135.33 148.036C135.158 148.223 135.03 148.446 134.958 148.689C134.752 149.531 134.665 150.399 134.699 151.265V174.531C134.664 175.397 134.751 176.265 134.958 177.107C135.03 177.35 135.158 177.573 135.33 177.759C135.502 177.946 135.715 178.09 135.951 178.181C136.693 178.421 137.467 178.548 138.247 178.559V179.554H123.769V178.559C124.542 178.546 125.309 178.419 126.044 178.181C126.283 178.093 126.497 177.95 126.67 177.763C126.843 177.577 126.969 177.352 127.038 177.107C127.254 176.266 127.345 175.398 127.306 174.531V152.578L113.951 175.147C113.937 175.866 114.045 176.583 114.269 177.266C114.355 177.486 114.488 177.685 114.66 177.846C114.832 178.008 115.038 178.129 115.263 178.201C115.974 178.423 116.714 178.543 117.459 178.559V179.554H102.981V178.559C103.75 178.544 104.514 178.416 105.247 178.181C105.485 178.093 105.7 177.95 105.872 177.763C106.045 177.577 106.171 177.352 106.24 177.107C106.442 176.264 106.526 175.397 106.489 174.531V151.265C106.525 150.399 106.442 149.532 106.24 148.689C106.171 148.444 106.045 148.219 105.872 148.032C105.7 147.846 105.485 147.703 105.247 147.615C104.514 147.38 103.75 147.252 102.981 147.237V146.302H117.439V147.237C116.663 147.248 115.892 147.376 115.154 147.615C114.915 147.703 114.701 147.846 114.528 148.032C114.355 148.219 114.229 148.444 114.16 148.689C113.958 149.532 113.875 150.399 113.911 151.265V173.148L127.267 150.509C127.258 149.83 127.134 149.157 126.899 148.52C126.804 148.311 126.666 148.125 126.495 147.973C126.324 147.82 126.123 147.705 125.905 147.635C125.204 147.429 124.479 147.316 123.749 147.296V146.361H138.227V147.296C137.447 147.307 136.673 147.435 135.931 147.674" fill="white"/>
<path d="M26.975 209.185L18.4592 231.267H15.9551L24.4709 209.185H26.975Z" fill="#AA2739"/>
</svg>
