<svg width="50" height="50" viewBox="0 0 50 50" fill="none" xmlns="http://www.w3.org/2000/svg">
<path d="M25 3.125C17.418 3.125 11.2812 9.4375 11.2812 17.125C11.2812 22.2031 14.5391 27.5742 17.6523 31.8828C20.7773 36.1797 23.875 39.3555 23.875 39.3555C24.1836 39.6602 24.5859 39.832 25 39.832C25.4141 39.832 25.8164 39.6602 26.125 39.3555C26.125 39.3555 29.2227 36.1797 32.3359 31.8828C35.4609 27.5742 38.7188 22.2031 38.7188 17.125C38.7188 9.42188 32.582 3.125 25 3.125ZM25 6.25C30.8477 6.25 35.5938 11.082 35.5938 17.125C35.5938 20.75 32.7773 25.9531 29.8086 30.0547C27.4062 33.375 25.8164 34.9727 25 35.8398C24.1836 34.9727 22.5938 33.375 20.1914 30.0547C17.2227 25.9531 14.4062 20.75 14.4062 17.125C14.4062 11.082 19.1523 6.25 25 6.25ZM25 12.5C23.2773 12.5 21.875 13.9023 21.875 15.625C21.875 17.3477 23.2773 18.75 25 18.75C26.7227 18.75 28.125 17.3477 28.125 15.625C28.125 13.9023 26.7227 12.5 25 12.5ZM14.0625 32.4102C9.39844 33.6406 6.25 35.7188 6.25 38.8672C6.25 44.1289 15.6875 46.875 25 46.875C34.3125 46.875 43.75 44.1289 43.75 38.8672C43.75 35.6914 40.6719 33.668 35.9492 32.4219L33.9492 35.1797C38.2305 36.1797 40.625 37.5977 40.625 38.8672C40.625 40.8555 34.5352 43.75 25 43.75C15.4648 43.75 9.375 40.8555 9.375 38.8672C9.375 37.6094 11.7656 36.168 15.9922 35.168L14.0625 32.4102Z" fill="#52BA61"/>
</svg>
