<svg width="150" height="140" viewBox="0 0 150 140" fill="none" xmlns="http://www.w3.org/2000/svg">
<path opacity="0.5" fill-rule="evenodd" clip-rule="evenodd" d="M75 0C116.421 0 150 33.5785 150 75C150 79.46 149.609 83.8282 148.862 88.0742H145.17C145.954 83.8352 146.369 79.4663 146.369 75C146.369 35.5843 114.416 3.63136 75 3.63136C68.2063 3.63136 61.6345 4.58144 55.4094 6.35434L53.5422 3.12046C60.3415 1.0938 67.5424 0 75 0ZM45.1045 104.22L60.6655 119.781L57.9847 122.462L38.0381 102.515L40.7189 99.8345L57.9847 82.5686L60.6655 85.2494L45.4864 100.429H141.698C142.683 97.8466 143.525 95.1946 144.209 92.4787H147.947C140.072 125.469 110.403 150 75 150C56.6205 150 39.7887 143.385 26.7458 132.411L28.5906 129.216C41.0688 139.907 57.2792 146.369 75 146.369C104.004 146.369 128.961 129.065 140.124 104.22H45.1045ZM115.601 49.5713L100.018 65.1539L102.699 67.8352L122.646 47.888L119.965 45.2072L102.699 27.9414L100.018 30.6221L115.176 45.7799H9.87251C17.8134 28.1122 32.73 14.2591 51.1183 7.73049L49.2707 4.53031C20.5225 15.0289 0 42.6175 0 75C0 96.4241 8.984 115.75 23.3895 129.416L25.261 126.174C11.9215 113.207 3.63136 95.073 3.63136 75C3.63136 66.0414 5.28454 57.4702 8.29884 49.5713H115.601Z" fill="#B3B3B3"/>
</svg>
