<?xml version="1.0" encoding="UTF-8"?>
<!DOCTYPE svg PUBLIC "-//W3C//DTD SVG 1.1//EN" "http://www.w3.org/Graphics/SVG/1.1/DTD/svg11.dtd">
<!-- Creator: CorelDRAW 2018 (64-Bit) -->
<svg xmlns="http://www.w3.org/2000/svg" xml:space="preserve" width="300mm" height="100mm" version="1.1" style="shape-rendering:geometricPrecision; text-rendering:geometricPrecision; image-rendering:optimizeQuality; fill-rule:evenodd; clip-rule:evenodd"
viewBox="0 0 30000 10000"
 xmlns:xlink="http://www.w3.org/1999/xlink">
 <defs>
  <style type="text/css">
   <![CDATA[
    .fil2 {fill:#B3B3B3}
    .fil3 {fill:#D5D6D6}
    .fil4 {fill:#D9D9D9}
    .fil0 {fill:#EBEBEB}
    .fil1 {fill:white}
    .fil5 {fill:#4D4D4D;fill-rule:nonzero}
    .fil6 {fill:#52BA61;fill-rule:nonzero}
   ]]>
  </style>
 </defs>
 <g id="Layer_x0020_1">
  <metadata id="CorelCorpID_0Corel-Layer"/>
  <g id="_1868792257952">
   <rect class="fil0" x="-0" y="-85.76" width="30000" height="10171.52"/>
   <g>
    <path class="fil1" d="M20781.74 5151.96l119.07 -2925.25c-86.28,45.43 -161.49,86.27 -219.85,118.68 -311.44,173.03 -742.06,229.68 -743.29,229.83l-23.16 3.12 -360.21 -84.6 112.36 430.58 317.24 2184.87 797.84 42.77zm-20066.22 -5237.72l287.18 0 5874.92 10171.52 -287.63 0 -1156.93 -1999.92 -1884.33 1102.24 -6.02 3.72c-59.33,34.36 -135.3,14.12 -169.65,-45.2l-704.93 -1216.12 0.16 -0.1c-34.15,-58.97 -14.3,-134.55 44.57,-169.06l1653.95 -973.2 -1821.56 968.44 494 2329.2 -253.97 0 -476.6 -2247.17 -2308.68 500.85 0 -254.44 2360.93 -512.17 2122.56 -1128.46 -3767.97 -6530.13zm3999.88 0l286.91 0 5413.65 9351.86c280.3,-136.85 753.36,-313.29 960.31,-388.71l-373.61 -1798.79c-16.57,-64.38 20.64,-130.87 84.88,-149.99l1000.37 -301.1 -264.91 -1353.99 -2536.01 -4280.19c-8.07,-12.05 -14.17,-25.7 -17.71,-40.64l-117.19 -1038.45 253.8 0 101.18 963.16 588.87 993.89 2218.91 -692.15 280.69 -250.62c15.14,-13.55 32.71,-22.69 51.09,-27.51l-0.05 -0.21 1046.02 -275.72 625.31 -177.54 -121.03 -533.3 643.09 0 177.93 710.84 498.36 1877.04 33.18 -2.85 0 -371.45 1.45 -10.32c0.14,-0.95 43.18,-332.07 337.44,-399.98 213.63,-49.29 2433.17,-420.13 2439.55,-421.19l30.08 -5.02 827.12 270.6 1518.72 -1647.67 344.83 0 -1690.92 1826.17 125.61 481.34 443.73 104.22c86.04,-13.31 402.07,-68.89 633.35,-197.37 176.88,-98.26 502.27,-270.82 821.73,-415.8 217.32,-98.63 434.35,-185.67 606.04,-230.84 282.08,-74.22 823.66,-132.81 1150.79,-163.42l-1422 -1404.3 354.5 0 1377.89 1360.99c215.97,-76.97 865.62,-283.23 1647.45,-292.21 427.97,-4.91 819.3,18.58 1143.79,38.07 381.87,22.92 667.56,40.08 773.61,1.5 57.86,-21.03 108.35,-59.05 162.53,-99.83 149.37,-112.45 320.89,-241.57 751.5,-241.57 347.58,0 1345.36,52.13 2071.77,92.86l0 248.75c-722.56,-40.53 -1721.6,-92.74 -2071.77,-92.74 -349.01,0 -484.65,102.11 -602.75,191.02 -69.7,52.48 -134.64,101.37 -226.7,134.84 -154.5,56.19 -461.89,37.73 -872.76,13.06 -323.29,-19.41 -713.17,-42.82 -1127.27,-38.07 -351.01,4.03 -673.47,49.8 -937.55,104.6l-101.58 3063.18c0.58,49.75 -28.99,97.06 -77.95,116.69l-626.96 251.02 -29.38 521.87 1230.9 65.97 720.5 467.34 136.78 -208.75c26.36,-40.27 72.1,-60.22 116.89,-55.6l557.41 17.42 69.89 -1567.25c0.17,-4.27 0.57,-8.47 1.18,-12.62l-0.22 -0.03c0.24,-1.68 80.46,-591.6 609.16,-535.95 383.85,40.4 1869.57,119.2 2034.17,127.85 102.13,-18.88 560.59,-70.32 509.4,543.92 -43.84,525.94 -118.18,1386.33 -118.39,1388.81 -0.59,6.94 -1.76,13.69 -3.44,20.22 -5.12,23.57 -41.34,229.58 261.51,243.34 148.05,6.73 346.16,13.44 548.93,19.48l0 248.13c-207.45,-6.12 -410.26,-12.93 -559.62,-19.71 -575.55,-26.16 -509.34,-468.23 -494.59,-540.76 7.58,-87.87 77.69,-899.91 117.69,-1379.92 26.18,-314.11 -182.31,-286.52 -218.65,-279.38 -12.79,3.65 -26.38,5.29 -40.39,4.58 -4.74,-0.25 -1649.95,-86.29 -2061.91,-129.64 -272.32,-28.66 -331.26,283.89 -337.33,321.32l-74.94 1680.71c-2.97,67.53 -59.55,120.46 -127.35,118.61l-619.41 -19.36 -148.14 226.11 -34.67 726.06 4599.31 219.6 0 248.45 -7142.8 -341.05 -10.21 -0.97c-2.31,-0.29 -801.88,-105.49 -1356.24,-32.28 -439.17,58 -3422.04,480.21 -4622.17,650.25l1044.68 2459.86c774.38,-157.51 9750.02,-2164.31 9776.75,-2170.28l18.64 -4.16 2291.35 170.02 0 249.18 -2275.14 -168.8 -661.36 147.79 158.33 1351.72c522.73,-32.52 1045.49,-64.91 1568.25,-96.91l1209.92 82.34 0 249.03 -1211.61 -82.46 -3103.31 192.61 -902.48 202.65 -1132.49 0 2001.23 -449.36 1322.07 -82.43 -153.77 -1312.72c-1793.84,400.67 -5751.46,1283.86 -7739.88,1721.51l26.6 123 -254.38 0 -15.05 -69.62c-114.95,25.23 -221.28,48.53 -317.95,69.62l-4735.99 0 -339.49 -1597.78 -1884.57 587.63c-45.22,16.07 -844.78,301.13 -1129.03,463.55 -103.94,59.4 -493.17,279.92 -964.85,546.6l-505.21 0c518.82,-293.08 1008.02,-570.02 1238.1,-700.69l-5482.54 -9470.83zm-3271.84 10171.52l-254.83 0 -8.6 -37.39 242.07 -55.41 21.36 92.8zm13484.53 -7251.35l-561.5 -2130.19 -1628.44 429.25 -272.18 243.01c-13.98,14.42 -31.67,25.66 -52.2,32.05l-2187.67 682.41 1821.78 3074.75c7.4,12.54 12.35,25.87 14.99,39.38l290.66 1485.17c12.57,64.43 -27.09,126.97 -89.5,143.81l-996.34 299.86 345.21 1662.08c585.85,-193.51 1178.42,-380.76 1773.19,-565.05l-1094.07 -4666.34 0.1 -0.03 -0.1 -0.46c-15.3,-66.84 26.49,-133.44 93.32,-148.74l2542.75 -580.96zm-10201.71 4029.82l-1781.66 1048.33 580.75 1001.88 1783.44 -1043.23 -582.53 -1006.98zm11917.96 1127.15l212.06 1159.22 39.63 787.91c10.34,0.1 20.1,0.45 29.1,1.05l57.62 3.96c124.13,8.59 321.96,22.28 503.37,29.97l-841.78 -1982.11zm2594.47 -1074.18c254.57,-35.9 504.92,-71.18 741.38,-104.45l-557.92 -3842.48 -305.1 -1169.22 -314.46 -102.88 -217.94 584.57 654.04 4634.46zm987.43 -139.02c595.15,-83.59 1067.53,-149.45 1232.43,-171.22 558.44,-73.76 1339.16,21.94 1414.47,31.52l2279.66 108.85 32.9 -689.1 -708.65 -459.66 -4456.78 -238.84 205.97 1418.45zm2851.17 -1503.19l209.48 -3720.28c-285.7,24.84 -930.93,87.22 -1235.52,167.38 -156.05,41.06 -360.15,123.28 -567.16,217.23 -111.94,50.8 -224.08,104.73 -329.82,157.43l-124.9 3068.49 2047.92 109.75zm-4709.64 -3119.94l199.1 -534.04 -228.22 -74.66c-264.32,44.21 -2202.65,368.87 -2394.91,413.25 -108.19,24.95 -138.96,149.28 -145.42,183.3l0 329.82 2569.45 -317.67zm5543.33 -761.26c-169.39,43.92 -298.22,86.58 -372.86,113.14l-168.12 2985.93 444.12 -177.82 96.86 -2921.25z"/>
    <path class="fil2" d="M12016.32 3227.72l27.78 122.56 0 80.71 -572.46 123.1 -274.22 -1212.36 -0.18 -78.83 572.62 -124.96 135.31 599.51 1744.92 -386.62 -167.11 -754.16 0 -80.72 413.86 -91.71 275.84 1244.96 0 80.71c-724.6,160.56 -1431.77,317.26 -2156.36,477.81z"/>
    <polygon class="fil3" points="11998.89,3150.85 11998.82,3150.58 12044.1,3350.28 11471.64,3473.37 11197.24,2262.9 11769.68,2139.84 11905.17,2737.45 13667.12,2347.04 13482.98,1515.95 13896.84,1424.24 14172.68,2669.2 13758.84,2760.9 13758.84,2760.89 "/>
    <polygon class="fil2" points="11791.14,3485.37 11791.14,3255.88 12169.93,3174.45 13038.18,7004.52 13038.18,7234.02 12659.39,7315.45 "/>
    <polygon class="fil2" points="13038.18,7234.02 13138.62,7645.92 11636.88,7978.68 11539.11,7566.15 "/>
    <path class="fil2" d="M12345.86 6656.69l100.43 411.9 0 520.27 -858.1 190.13c-47.89,-196.4 -82.28,-547.21 -123.84,-734.81l0 -344.38 411.94 -100.45 34.06 153.81 435.51 -96.47z"/>
    <path class="fil2" d="M9437.73 9327.24l0 -165.46 -187.85 -340.49 -977.54 539.31 0 165.46 187.86 340.49 977.53 -539.31zm-1429.53 758.52l-793.72 0 -357.37 -647.61 0 -165.46 340.5 -187.86 371.91 674.12 250.82 -138.38 187.86 340.49 0 124.7zm-1006.94 -2622.24l340.48 -187.86 0 -165.45 -725.37 -1314.84 -340.48 187.85 0 165.47 725.37 1314.83zm-1545.13 -424.13l340.49 -187.85 0 -165.46 -568.58 -1030.62 -340.48 187.86 0 165.46 568.57 1030.61zm1047.38 1789.45l340.49 -187.86 0 -165.46 -568.57 -1030.62 -340.49 187.86 0 165.46 568.57 1030.62z"/>
    <path class="fil2" d="M9687.94 4079.87l-340.49 187.87 0 204.47 832.9 1509.73 340.49 -187.85 0 -204.47 -832.9 -1509.75zm488 -4165.63l434.9 0 254.15 1332.21 0 204.48 -381.99 72.88 -307.06 -1609.57zm1402.76 0l434.91 0 196.66 1030.88 0 204.47 -381.99 72.88 -249.58 -1308.23zm-2461.87 879.42l-336.77 194.46 0 204.47 1276.31 2210.48 336.76 -194.45 0 -204.48 -1276.3 -2210.48z"/>
    <path class="fil2" d="M15282.14 -85.76l399.11 1481.07 375.49 -101.19c-16.41,-60.88 16.4,-262.01 0,-322.87l-284.83 -1057.01 -489.77 0zm5713.9 0l218.73 0 166.79 159.58 0 322.87c-588.23,614.75 -1063.36,1111.3 -1651.59,1726.03l-280.98 -268.84c33.38,-34.87 -32.65,-288.74 0,-322.87l1547.05 -1616.77zm100.23 6163.41l3386.82 168.91 19.18 -388.41 0 -322.87 -3386.82 -168.9 -19.18 711.27zm3656.64 -4699.12l0 -322.87 -388.46 -18.02 -119.95 2886.65 388.44 18.01 119.97 -2563.77zm-1572.82 345.32l0 -322.87 -388.46 -18.02 -119.96 2886.65 388.46 18.01 119.96 -2563.77zm-1540.95 447.86l0 -322.87 -388.77 -9.38 -62.94 2888.68 388.75 9.37 62.96 -2565.8zm-2368.94 4303.18l385.07 -54.33c-11.48,-81.29 11.38,-242.09 0,-322.87 -180.3,-1278.16 -613.72,-3133.67 -613.72,-4350.43l-385.06 54.34 0 322.87c208.72,1479.52 404.99,2870.9 613.71,4350.42zm-961.1 -4354.2l0 -322.87 -50.12 -385.64 -2370.65 305.34 1.65 325.42 50.12 385.62 2369 -307.87z"/>
    <path class="fil4" d="M14991.49 3074.95l-2428.96 554.62 1061.59 4527.8c835.98,-257.77 1675.08,-510.51 2504.8,-767.26l-1137.43 -4315.16zm15008.51 4152.24l0 731.42 -2291.35 -170.02 -9795.39 2174.44 -1044.68 -2459.86 4622.17 -650.25 1356.24 32.28 7153.01 341.99zm-14038.16 2858.57l-1924.86 0 -355.26 -1672.05 2494.1 -777.67 285.24 1559.18 39.53 785.97c-214.92,35.07 -418.31,78.98 -419.33,79.2l-119.42 25.37zm-380.76 -7339.54l1199.71 4518.6c502.99,-71.27 1362.14,-192.93 2212.15,-312.92l-641.3 -4544.21 -2553.32 315.69 -217.24 22.84z"/>
    <path class="fil3" d="M12345.86 6656.69l100.43 411.9 -858.1 190.13c-47.89,-196.4 -82.28,-371.32 -123.84,-558.92l411.94 -100.45 34.06 153.81 435.51 -96.47z"/>
    <polygon class="fil3" points="11791.14,3255.88 12169.93,3174.45 13038.18,7004.52 12659.39,7085.96 "/>
    <path class="fil3" d="M9437.73 9161.78l-187.85 -340.49 -977.54 539.31 187.86 340.49 977.53 -539.31zm-1655.55 923.98l-476.44 0c-149.49,-271.05 -299.09,-542.03 -448.63,-813.07l340.5 -187.86 371.91 674.12 250.82 -138.38 187.86 340.49 -226.02 124.7zm-780.92 -2787.71l340.48 -187.84c-241.79,-438.29 -483.57,-876.57 -725.37,-1314.84l-340.48 187.85c241.79,438.28 483.57,876.55 725.37,1314.83zm-1545.13 -424.12l340.49 -187.85c-189.54,-343.55 -379.04,-687.08 -568.58,-1030.62l-340.48 187.86c189.52,343.54 379.04,687.07 568.57,1030.61zm1047.38 1789.44l340.49 -187.85c-189.53,-343.54 -379.04,-687.08 -568.57,-1030.62l-340.49 187.86c189.53,343.55 379.05,687.06 568.57,1030.61z"/>
    <path class="fil3" d="M15369.14 -85.76l312.11 1158.2 375.49 -101.19 -284.84 -1057.01 -402.76 0zm5626.9 0l218.73 0 166.79 159.58c-588.23,614.75 -1063.36,1111.3 -1651.59,1726.03l-280.98 -268.84 1547.05 -1616.77zm119.41 5452.14l-19.18 388.4c1128.83,55.8 2257.79,113.12 3386.82,168.91l19.18 -388.41c-1128.83,-55.78 -2257.78,-113.11 -3386.82,-168.9zm3637.46 -4310.72l-388.46 -18.02c-39.41,849.93 -80.56,1713.87 -119.95,2563.78l388.44 18.01c39.42,-849.92 80.56,-1713.85 119.97,-2563.77zm-1572.82 345.32l-388.46 -18.02c-39.41,849.93 -80.56,1713.87 -119.96,2563.78l388.46 18.01c39.41,-849.92 80.55,-1713.86 119.96,-2563.77zm-1540.95 447.86l-388.77 -9.38c-20.5,850.59 -42.43,1715.23 -62.94,2565.81l388.75 9.36c20.52,-850.58 42.45,-1715.21 62.96,-2565.79zm-2368.94 4303.18l385.07 -54.33c-208.72,-1479.53 -405,-2870.9 -613.72,-4350.43l-385.06 54.34c208.72,1479.52 404.99,2870.9 613.71,4350.42zm-961.1 -4354.2l-50.12 -385.64c-843.74,109.66 -1525.26,198.23 -2369,307.88l50.12 385.64c843.74,-109.66 1525.26,-198.22 2369,-307.88z"/>
    <path class="fil5" d="M15210.36 2350.11l-211.88 55.14 -12.8 -49.22 169.82 -44.17 -27.15 -104.36 -169.82 44.19 -12.9 -49.6 211.89 -55.13 52.84 203.15zm50.39 183.89c5.37,20.64 5.67,40.26 0.91,58.86 -4.77,18.61 -14.13,34.68 -28.13,48.2 -13.99,13.52 -31.71,23.07 -53.13,28.65 -21.42,5.57 -41.61,5.89 -60.55,0.94 -18.95,-4.97 -35.02,-14.41 -48.25,-28.33 -13.23,-13.93 -22.51,-31.22 -27.89,-51.85 -7.43,-28.56 -3.79,-53.66 10.92,-75.29l-102.78 26.75 -12.9 -49.6 288.87 -75.15 12.28 47.22 -27.77 7.22c12.18,5.59 22.35,13.74 30.51,24.46 8.15,10.73 14.12,23.38 17.91,37.92zm-176.03 39.88c4.75,18.24 14.73,31.67 29.97,40.28 15.23,8.6 32.76,10.32 52.6,5.16 19.85,-5.16 34.31,-15.21 43.43,-30.14 9.1,-14.95 11.27,-31.54 6.53,-49.79 -3.1,-11.9 -8.6,-21.91 -16.5,-30.02 -7.9,-8.12 -17.6,-13.63 -29.09,-16.58 -11.51,-2.94 -23.86,-2.69 -37.09,0.76 -13.23,3.43 -24.14,9.25 -32.75,17.41 -8.61,8.16 -14.38,17.71 -17.32,28.66 -2.95,10.93 -2.87,22.35 0.22,34.26zm24.34 267.76c-5.58,-21.42 -5.98,-41.94 -1.19,-61.55 4.78,-19.59 14.19,-36.39 28.21,-50.33 14.02,-13.96 31.47,-23.66 52.37,-29.09 20.9,-5.44 40.81,-5.47 59.72,-0.08 18.92,5.39 35.24,15.48 48.96,30.27 13.73,14.77 23.4,32.89 28.97,54.31 5.64,21.7 6.06,42.34 1.29,61.95 -4.8,19.59 -14.12,36.36 -28.02,50.28 -13.89,13.93 -31.29,23.6 -52.18,29.03 -20.9,5.44 -40.87,5.48 -59.92,0.14 -19.03,-5.36 -35.42,-15.44 -49.16,-30.21 -13.73,-14.79 -23.41,-33.03 -29.05,-54.72zm42.46 -11.04c4.74,18.24 14.74,31.74 30.01,40.48 15.27,8.74 32.82,10.53 52.66,5.36 19.84,-5.16 34.29,-15.28 43.37,-30.34 9.07,-15.07 11.22,-31.74 6.47,-49.99 -4.75,-18.25 -14.74,-31.68 -29.96,-40.28 -15.23,-8.61 -32.77,-10.33 -52.61,-5.17 -19.84,5.16 -34.31,15.22 -43.42,30.14 -9.1,14.95 -11.28,31.54 -6.52,49.8zm24.74 269.34c-5.7,-21.94 -6.22,-42.86 -1.49,-62.72 4.72,-19.86 14.06,-36.85 28.04,-50.93 13.99,-14.1 31.44,-23.85 52.33,-29.29 20.9,-5.43 40.83,-5.4 59.76,0.13 18.95,5.51 35.31,15.74 49.08,30.65 13.77,14.92 23.54,33.48 29.32,55.7 5.44,20.9 5.98,40.32 1.6,58.26 -4.37,17.94 -13.46,32.94 -27.27,45.02l-32.12 -32.31c8.19,-8.64 13.55,-18.15 16.08,-28.55 2.52,-10.4 2.36,-21.02 -0.45,-31.87 -4.82,-18.52 -14.82,-32.3 -30.04,-41.32 -15.19,-9.04 -32.85,-10.95 -52.96,-5.72 -20.09,5.23 -34.59,15.44 -43.51,30.59 -8.9,15.18 -10.9,32.15 -6.01,50.93 2.82,10.84 7.85,20.21 15.12,28.05 7.27,7.85 16.6,13.55 27.96,17.09l-12.3 43.88c-18.01,-4.08 -33.35,-12.87 -46.05,-26.38 -12.7,-13.5 -21.73,-30.57 -27.09,-51.21zm302.41 281.43l-211.89 55.12 -12.8 -49.2 169.82 -44.18 -27.15 -104.36 -169.82 44.19 -12.91 -49.6 211.89 -55.12 52.86 203.15zm-38.08 293.33c-3.43,0.89 -8.4,1.89 -14.88,3.02l-43.25 -166.26c-14.85,6.98 -25.25,17.8 -31.17,32.46 -5.93,14.69 -6.51,31.15 -1.77,49.4 6.06,23.28 18.72,40.46 37.99,51.55l-23.64 34.53c-13.86,-6.55 -25.58,-16.35 -35.18,-29.39 -9.61,-13.05 -16.78,-28.68 -21.53,-46.93 -6.06,-23.28 -6.76,-44.98 -2.13,-65.12 4.65,-20.14 13.99,-37.18 28.02,-51.14 14.01,-13.95 31.47,-23.65 52.36,-29.08 20.64,-5.37 40.45,-5.51 59.42,-0.43 18.98,5.11 35.26,14.77 48.86,29.04 13.59,14.25 23.11,31.82 28.54,52.72 5.38,20.63 5.61,40.27 0.71,58.91 -4.88,18.64 -14.42,34.69 -28.57,48.1 -14.17,13.43 -32.08,22.97 -53.78,28.62zm41.97 -125.31c-4.14,-15.87 -12.32,-28.08 -24.57,-36.61 -12.24,-8.54 -26.49,-11.96 -42.71,-10.27l31.27 120.22c14.81,-6.12 25.55,-15.82 32.25,-29.15 6.7,-13.32 7.96,-28.05 3.76,-44.19zm-24.75 272.92l-10 -38.49 -84.92 22.09 -12.9 -49.59 211.89 -55.13 12.89 49.59 -85.69 22.3 10.31 39.68 102.02 40.39 13.83 53.17 -122.01 -50.44 -88.54 110.72 -15.16 -58.32 68.28 -85.97zm168.74 300.1l-19.3 -74.2 -169.83 44.18 -12.9 -49.59 169.82 -44.2 -19.41 -74.59 42.07 -10.94 51.61 198.39 -42.06 10.95zm147.37 123.49l13.21 50.79 -197.21 51.3 236.02 97.89 12.5 48.02 -277.76 72.25 -13.21 -50.8 196.8 -51.19 -235.61 -97.99 -12.49 -48.02 277.75 -72.25zm36.95 454.69c5.23,20.12 5.54,38.95 0.94,56.54 -4.61,17.56 -13.46,32.65 -26.57,45.24 -13.1,12.59 -29.58,21.47 -49.41,26.62 -20.38,5.31 -39.66,5.23 -57.88,-0.18 -18.23,-5.43 -33.94,-15.61 -47.14,-30.53 -13.2,-14.91 -22.65,-33.37 -28.37,-55.31 -9.57,-36.78 -4.8,-68.38 14.31,-94.81 19.11,-26.45 51.54,-45.61 97.3,-57.52 42.6,-11.07 78.69,-10.73 108.31,1.06 29.62,11.78 53.28,35.42 70.98,70.92l46.64 92.93 -42.59 18.7 -41.47 -84.53c-11.97,-24.28 -25.96,-41.12 -41.95,-50.5 -16.01,-9.4 -35.79,-12.16 -59.36,-8.3 13.86,6.57 25.65,15.79 35.38,27.65 9.72,11.89 16.68,25.89 20.88,42.02zm-168.04 33.13c4.75,18.26 14.47,31.48 29.17,39.66 14.7,8.17 31.17,9.88 49.42,5.13 18.25,-4.75 31.46,-14.18 39.66,-28.3 8.18,-14.14 9.89,-30.34 5.14,-48.6 -4.81,-18.51 -14.26,-32.01 -28.32,-40.49 -14.07,-8.48 -30.23,-10.35 -48.48,-5.6 -18.52,4.82 -32.09,14.48 -40.75,29.02 -8.64,14.53 -10.59,30.93 -5.84,49.18zm250.32 231.01c5.36,20.63 5.67,40.26 0.91,58.86 -4.77,18.6 -14.14,34.68 -28.14,48.2 -13.99,13.52 -31.71,23.06 -53.13,28.64 -21.42,5.58 -41.61,5.9 -60.54,0.94 -18.95,-4.96 -35.03,-14.41 -48.26,-28.34 -13.23,-13.92 -22.51,-31.21 -27.89,-51.84 -7.42,-28.57 -3.79,-53.67 10.92,-75.28l-102.77 26.74 -12.9 -49.6 288.86 -75.15 12.28 47.22 -27.77 7.23c12.18,5.58 22.35,13.73 30.51,24.46 8.15,10.72 14.12,23.36 17.92,37.92zm-176.04 39.87c4.75,18.25 14.73,31.67 29.97,40.27 15.23,8.61 32.77,10.34 52.6,5.18 19.85,-5.17 34.31,-15.23 43.43,-30.15 9.11,-14.95 11.28,-31.53 6.53,-49.78 -3.1,-11.91 -8.6,-21.92 -16.5,-30.02 -7.89,-8.12 -17.59,-13.65 -29.09,-16.59 -11.51,-2.94 -23.86,-2.69 -37.09,0.75 -13.23,3.44 -24.14,9.26 -32.75,17.42 -8.6,8.17 -14.38,17.71 -17.32,28.66 -2.95,10.93 -2.87,22.35 0.22,34.26zm236.63 193.04c8.13,31.21 6.85,57.04 -3.78,77.45 -10.64,20.42 -31.05,34.55 -61.2,42.4l-124.2 32.31 -12.19 -46.81 25.8 -6.72c-10.85,-3.67 -20.17,-10.49 -27.99,-20.46 -7.81,-9.97 -13.78,-22.89 -17.91,-38.76 -4.14,-15.88 -5.04,-30.46 -2.71,-43.78 2.32,-13.32 7.47,-24.47 15.44,-33.46 7.97,-9 18.04,-15.07 30.2,-18.23 19.05,-4.96 36.16,-1.87 51.35,9.29 15.2,11.17 26.75,31.95 34.67,62.38l14.24 54.74 3.17 -0.81c14.82,-3.86 25.03,-11.25 30.67,-22.19 5.63,-10.91 6.18,-25.1 1.63,-42.56 -3.1,-11.9 -8,-23.13 -14.69,-33.67 -6.69,-10.55 -14.39,-18.93 -23.06,-25.13l31.05 -28.84c11.35,8.9 21.31,20.57 29.86,35.01 8.56,14.43 15.12,30.38 19.65,47.84zm-182.68 40.33c3.24,12.44 8.95,22.74 17.15,30.91 8.18,8.18 18.1,12.87 29.71,14.09l24.59 -6.4 -13.31 -51.18c-7.43,-28.57 -20.53,-40.42 -39.32,-35.54 -8.98,2.34 -15.21,7.78 -18.64,16.3 -3.43,8.52 -3.48,19.11 -0.18,31.82zm221.65 291.83l-29.42 -113.08 -169.82 44.2 -12.9 -49.62 211.88 -55.11 42.32 162.67 -42.06 10.94zm51.45 25.18l12.92 49.59 -139.67 36.34 170.11 80.71 11.77 45.24 -211.89 55.12 -12.89 -49.6 139.66 -36.33 -170.02 -80.32 -11.87 -45.62 211.88 -55.13zm-85.21 541.99l140.46 -36.55 -136.82 -40.66 -5.58 -21.43 100.38 -101.09 -140.86 36.64 -11.79 -45.23 211.9 -55.12 13.52 51.97 -112.91 109.87 153.06 44.49 12.08 46.4 -211.78 55.54 -11.66 -44.83zm50.8 206.64c-5.57,-21.42 -5.97,-41.94 -1.19,-61.54 4.78,-19.6 14.19,-36.38 28.21,-50.34 14.03,-13.96 31.47,-23.65 52.37,-29.09 20.9,-5.43 40.81,-5.47 59.71,-0.07 18.93,5.39 35.25,15.48 48.97,30.26 13.74,14.79 23.4,32.9 28.97,54.32 5.64,21.69 6.06,42.34 1.28,61.94 -4.78,19.6 -14.11,36.36 -28.01,50.29 -13.89,13.92 -31.28,23.59 -52.18,29.03 -20.9,5.43 -40.86,5.48 -59.9,0.13 -19.05,-5.35 -35.45,-15.43 -49.17,-30.21 -13.74,-14.79 -23.41,-33.02 -29.06,-54.72zm42.46 -11.04c4.75,18.25 14.74,31.75 30.01,40.49 15.27,8.73 32.82,10.52 52.65,5.36 19.86,-5.16 34.3,-15.28 43.38,-30.34 9.07,-15.08 11.23,-31.73 6.48,-49.98 -4.74,-18.26 -14.73,-31.69 -29.97,-40.3 -15.23,-8.61 -32.77,-10.33 -52.6,-5.17 -19.85,5.16 -34.33,15.21 -43.42,30.16 -9.11,14.93 -11.28,31.52 -6.53,49.78zm152.69 297.07c-1.13,28.26 -14.65,45.75 -40.57,52.5 -19.04,4.95 -35.59,1.63 -49.62,-9.97 -14.03,-11.6 -24.69,-31.42 -31.99,-59.46l-28.09 -107.91 211.9 -55.13 26.94 103.55c6.75,25.93 7.26,47.4 1.51,64.43 -5.73,17.02 -17.34,27.81 -34.8,32.34 -10.83,2.82 -20.97,2.43 -30.39,-1.18 -9.41,-3.63 -17.72,-10.02 -24.89,-19.17zm-14.57 -109.74l13.52 51.98c6.68,25.66 18.86,36.19 36.6,31.57 17.2,-4.47 22.46,-19.55 15.78,-45.19l-13.52 -51.98 -52.38 13.62zm-72.54 79.44c7.1,27.26 19.5,38.57 37.22,33.96 9.26,-2.41 15.38,-7.39 18.35,-14.94 2.98,-7.54 2.72,-18.08 -0.8,-31.57l-15.17 -58.32 -54.35 14.14 14.75 56.73zm235.56 174.28c8.12,31.21 6.85,57.03 -3.79,77.45 -10.64,20.42 -31.03,34.56 -61.2,42.4l-124.19 32.31 -12.18 -46.82 25.79 -6.72c-10.84,-3.66 -20.16,-10.49 -27.98,-20.46 -7.83,-9.97 -13.8,-22.88 -17.93,-38.76 -4.12,-15.86 -5.03,-30.45 -2.71,-43.77 2.33,-13.32 7.48,-24.47 15.45,-33.46 7.96,-9 18.03,-15.07 30.2,-18.23 19.05,-4.97 36.17,-1.86 51.35,9.29 15.19,11.16 26.76,31.95 34.67,62.37l14.24 54.75 3.17 -0.82c14.81,-3.86 25.03,-11.25 30.66,-22.18 5.63,-10.91 6.18,-25.12 1.64,-42.56 -3.09,-11.91 -8,-23.14 -14.69,-33.67 -6.7,-10.56 -14.39,-18.94 -23.07,-25.15l31.06 -28.83c11.35,8.92 21.31,20.57 29.86,35.02 8.57,14.43 15.11,30.38 19.65,47.84zm-182.68 40.33c3.23,12.43 8.94,22.74 17.15,30.91 8.19,8.17 18.11,12.87 29.71,14.08l24.6 -6.39 -13.32 -51.19c-7.43,-28.57 -20.54,-40.41 -39.32,-35.53 -8.99,2.35 -15.2,7.78 -18.64,16.29 -3.44,8.53 -3.49,19.12 -0.18,31.83z"/>
    <path class="fil5" d="M12702.4 9040.58c18.92,-1.08 34.8,2.54 47.61,10.82 12.82,8.28 22.02,20.87 27.59,37.73 7.89,23.88 5.2,45.35 -8.07,64.42 -13.27,19.07 -36.65,34.14 -70.13,45.2l-129.24 42.72 -90.07 -272.49 121.84 -40.27c30.63,-10.13 56.53,-11.92 77.68,-5.39 21.16,6.54 35.43,20.97 42.8,43.29 4.73,14.27 5.36,27.73 1.92,40.39 -3.46,12.65 -10.77,23.85 -21.93,33.58zm-134.01 28.32l67.74 -22.39c16.35,-5.4 27.73,-12.77 34.15,-22.09 6.43,-9.31 7.54,-20.33 3.33,-33.05 -4.2,-12.7 -11.68,-20.96 -22.44,-24.74 -10.74,-3.8 -24.3,-2.98 -40.64,2.42l-67.74 22.39 25.6 77.46zm116.58 91.44c35.82,-11.84 49.27,-31.25 40.35,-58.25 -8.75,-26.46 -31.04,-33.78 -66.85,-21.94l-77.85 25.73 26.51 80.19 77.84 -25.73zm263.3 -40.83c-21.02,6.96 -41.47,8.68 -61.33,5.16 -19.88,-3.5 -37.23,-11.8 -52.06,-24.9 -14.83,-13.08 -25.64,-29.88 -32.41,-50.38 -6.78,-20.5 -8.09,-40.35 -3.94,-59.58 4.16,-19.22 13.16,-36.15 27.03,-50.82 13.87,-14.66 31.31,-25.47 52.33,-32.41 21.28,-7.04 41.86,-8.8 61.73,-5.29 19.87,3.52 37.2,11.74 51.99,24.7 14.79,12.96 25.57,29.69 32.35,50.2 6.78,20.5 8.11,40.42 4,59.77 -4.12,19.35 -13.11,36.35 -26.96,51.01 -13.87,14.66 -31.45,25.51 -52.73,32.54zm-13.76 -41.65c17.9,-5.92 30.72,-16.78 38.46,-32.57 7.72,-15.81 8.38,-33.43 1.94,-52.89 -6.44,-19.47 -17.46,-33.23 -33.08,-41.31 -15.63,-8.08 -32.4,-9.16 -50.3,-3.25 -17.9,5.92 -30.66,16.76 -38.26,32.52 -7.61,15.75 -8.2,33.36 -1.76,52.83 6.43,19.46 17.4,33.25 32.9,41.37 15.49,8.12 32.18,9.22 50.1,3.3zm289.04 -282.94l68.72 207.87 -48.66 16.08 -55.07 -166.61 -77.86 25.74 11.7 41.9c7.79,27.94 12.87,51.81 15.25,71.61 2.36,19.8 0.85,36.56 -4.54,50.29 -5.4,13.73 -15.88,23.17 -31.45,28.32 -7.27,2.4 -16.68,3.93 -28.27,4.59l-11.18 -41.64c3.89,-0.42 7.13,-1.07 9.73,-1.93 9.86,-3.26 15.95,-9.66 18.26,-19.2 2.32,-9.55 2.37,-20.06 0.15,-31.57 -2.22,-11.49 -6.2,-27.68 -11.94,-48.52l-23 -81.35 168.16 -55.58zm238.65 -33.11l-110.95 36.67 55.07 166.6 -48.65 16.09 -68.72 -207.86 159.61 -52.76 13.64 41.26zm175.08 129.96c-21.02,6.95 -41.46,8.67 -61.34,5.16 -19.87,-3.51 -37.21,-11.81 -52.05,-24.9 -14.83,-13.08 -25.63,-29.88 -32.41,-50.38 -6.78,-20.5 -8.09,-40.36 -3.94,-59.58 4.16,-19.22 13.16,-36.16 27.03,-50.82 13.86,-14.66 31.3,-25.47 52.33,-32.41 21.28,-7.04 41.86,-8.8 61.73,-5.29 19.86,3.51 37.2,11.74 51.99,24.7 14.79,12.96 25.57,29.7 32.35,50.19 6.77,20.5 8.11,40.43 4,59.78 -4.11,19.35 -13.11,36.35 -26.97,51.01 -13.86,14.66 -31.43,25.51 -52.72,32.54zm-13.77 -41.65c17.91,-5.92 30.72,-16.77 38.47,-32.57 7.72,-15.81 8.37,-33.43 1.94,-52.9 -6.43,-19.46 -17.46,-33.23 -33.08,-41.3 -15.63,-8.09 -32.39,-9.16 -50.3,-3.24 -17.91,5.91 -30.66,16.75 -38.26,32.51 -7.6,15.75 -8.2,33.35 -1.77,52.82 6.45,19.46 17.4,33.26 32.91,41.38 15.49,8.12 32.18,9.21 50.09,3.3zm276.23 -232.93l-110.95 36.66 55.08 166.61 -48.67 16.09 -68.71 -207.87 159.61 -52.75 13.64 41.26zm136.24 -93.4c20.24,-6.69 39.8,-8.26 58.67,-4.7 18.88,3.54 35.52,11.86 49.92,24.94 14.4,13.09 25.08,30.14 32.02,51.17 6.95,21.02 8.56,41.14 4.85,60.36 -3.72,19.22 -12.11,35.88 -25.15,49.99 -13.05,14.09 -29.69,24.49 -49.94,31.18 -28.03,9.26 -53.29,7.25 -75.82,-6.03l33.33 100.82 -48.67 16.09 -93.67 -283.39 46.33 -15.31 9 27.24c4.79,-12.52 12.28,-23.19 22.45,-32.03 10.18,-8.83 22.39,-15.61 36.68,-20.33zm51.16 173.09c17.9,-5.92 30.66,-16.76 38.26,-32.51 7.6,-15.76 8.19,-33.36 1.76,-52.84 -6.44,-19.46 -17.39,-33.25 -32.89,-41.36 -15.49,-8.13 -32.2,-9.22 -50.11,-3.31 -11.68,3.86 -21.31,9.99 -28.89,18.4 -7.58,8.41 -12.47,18.44 -14.66,30.11 -2.19,11.66 -1.14,23.97 3.14,36.95 4.29,12.99 10.79,23.5 19.5,31.56 8.71,8.06 18.62,13.21 29.73,15.44 11.1,2.22 22.48,1.41 34.16,-2.44zm177.33 -248.62c30.62,-10.12 56.47,-10.52 77.54,-1.22 21.06,9.29 36.49,28.74 46.27,58.32l40.27 121.85 -45.93 15.18 -8.37 -25.3c-2.97,11.05 -9.18,20.81 -18.61,29.25 -9.44,8.45 -21.95,15.25 -37.53,20.4 -15.56,5.14 -30.07,6.99 -43.51,5.52 -13.43,-1.46 -24.89,-5.87 -34.39,-13.25 -9.49,-7.37 -16.2,-17.02 -20.15,-28.95 -6.18,-18.69 -4.18,-35.97 5.97,-51.85 10.16,-15.87 30.15,-28.75 60,-38.61l53.72 -17.76 -1.04 -3.12c-4.8,-14.53 -12.84,-24.25 -24.1,-29.16 -11.27,-4.91 -25.47,-4.54 -42.59,1.12 -11.68,3.86 -22.56,9.47 -32.65,16.84 -10.09,7.37 -17.95,15.58 -23.6,24.64l-30.78 -29.12c8.16,-11.91 19.16,-22.6 33.01,-32.07 13.86,-9.47 29.34,-17.04 46.47,-22.71zm52.06 179.71c12.2,-4.03 22.11,-10.41 29.74,-19.12 7.62,-8.72 11.66,-18.9 12.13,-30.57l-7.98 -24.13 -50.21 16.6c-28.03,9.26 -39,23.11 -32.92,41.53 2.93,8.82 8.75,14.67 17.47,17.55 8.72,2.87 19.32,2.25 31.77,-1.86zm380.59 -135.3l28.96 87.58 -45.54 15.05 -15.32 -46.32 -160.37 53.01 15.31 46.32 -45.17 14.93 -28.95 -87.58 9.74 -3.22c13.06,-4.89 19.28,-16.38 18.63,-34.45 -0.66,-18.06 -5.17,-42.4 -13.57,-73.02l-20.81 -72.14 171.27 -56.61 55.07 166.61 30.75 -10.16zm-190.74 -38.87c6.86,24.22 11.34,44.32 13.47,60.32 2.12,16 0.61,28.88 -4.51,38.63l102.38 -33.84 -41.43 -125.35 -79.8 26.38 9.89 33.86zm343.48 37.17c-21.54,7.12 -42.38,8.97 -62.51,5.55 -20.13,-3.43 -37.67,-11.66 -52.64,-24.71 -14.96,-13.04 -25.83,-29.82 -32.6,-50.31 -6.78,-20.5 -8.03,-40.38 -3.75,-59.65 4.28,-19.27 13.43,-36.24 27.42,-50.95 14,-14.71 31.9,-25.66 53.7,-32.86 20.5,-6.78 39.84,-8.57 58.03,-5.37 18.19,3.21 33.75,11.31 46.68,24.3l-30.17 34.16c-9.14,-7.63 -18.97,-12.36 -29.52,-14.21 -10.54,-1.85 -21.13,-1.01 -31.77,2.51 -18.17,6.01 -31.27,16.89 -39.3,32.64 -8.04,15.75 -8.8,33.49 -2.28,53.22 6.52,19.72 17.64,33.53 33.35,41.44 15.71,7.89 32.78,8.81 51.2,2.72 10.64,-3.52 19.64,-9.16 27.01,-16.92 7.37,-7.76 12.45,-17.43 15.24,-29l44.58 9.45c-2.9,18.22 -10.68,34.11 -23.32,47.65 -12.66,13.54 -29.11,23.66 -49.35,30.34zm189.56 -158.08l-37.76 12.48 27.53 83.31 -48.66 16.08 -68.71 -207.87 48.67 -16.09 27.79 84.08 38.93 -12.86 33.71 -104.42 52.15 -17.24 -42.44 125.01 116.21 81.2 -57.22 18.91 -90.2 -62.59zm185.77 -202.17c30.62,-10.13 56.47,-10.54 77.53,-1.23 21.07,9.3 36.5,28.74 46.28,58.33l40.27 121.84 -45.94 15.18 -8.37 -25.3c-2.96,11.06 -9.17,20.8 -18.6,29.26 -9.44,8.44 -21.95,15.23 -37.53,20.38 -15.57,5.15 -30.07,6.99 -43.51,5.53 -13.44,-1.45 -24.89,-5.87 -34.39,-13.25 -9.49,-7.37 -16.2,-17.01 -20.15,-28.96 -6.18,-18.68 -4.18,-35.97 5.97,-51.84 10.15,-15.88 30.15,-28.75 59.99,-38.61l53.73 -17.76 -1.04 -3.12c-4.8,-14.52 -12.84,-24.25 -24.1,-29.16 -11.28,-4.92 -25.47,-4.54 -42.59,1.12 -11.68,3.86 -22.57,9.47 -32.65,16.84 -10.09,7.36 -17.96,15.58 -23.6,24.64l-30.78 -29.12c8.16,-11.91 19.16,-22.6 33.01,-32.07 13.86,-9.48 29.34,-17.04 46.47,-22.7zm52.06 179.69c12.19,-4.03 22.11,-10.4 29.74,-19.11 7.62,-8.72 11.66,-18.89 12.12,-30.56l-7.97 -24.14 -50.21 16.6c-28.03,9.27 -39,23.1 -32.92,41.53 2.92,8.82 8.75,14.67 17.47,17.54 8.72,2.88 19.31,2.26 31.77,-1.86zm279.2 -286.6l68.71 207.88 -43.59 14.4 -20.73 -62.67 -54.88 18.15 -21.72 76.69 -52.16 17.24 26.15 -85.49c-16.77,-0.22 -30.89,-4.4 -42.37,-12.55 -11.47,-8.16 -19.82,-20.16 -25.06,-35.99 -7.89,-23.87 -5.55,-45.09 7.04,-63.64 12.57,-18.55 33.66,-32.72 63.24,-42.49l95.37 -31.53zm-80.3 71.89c-31.41,10.38 -43.2,27.37 -35.4,50.99 7.73,23.35 26.77,30.02 57.13,19.98l51.77 -17.12 -23.29 -70.46 -50.21 16.61z"/>
    <path class="fil5" d="M12269.73 4438.08c3.03,26.54 -1,48.31 -12.08,65.33 -11.08,17.01 -27.39,28.11 -48.91,33.29 -16.22,3.91 -31.95,3.35 -47.22,-1.69 -15.28,-5.04 -28.82,-14.91 -40.68,-29.64 -11.83,-14.71 -20.64,-34.03 -26.4,-57.94 -4.81,-19.93 -6.57,-39.82 -5.31,-59.66 1.26,-19.84 5.37,-37.49 12.34,-52.95l45.63 12.62c-6.07,12.15 -9.82,26.05 -11.24,41.71 -1.43,15.68 -0.28,31.22 3.44,46.63 4.41,18.32 11.67,31.83 21.77,40.51 10.1,8.66 21.67,11.43 34.69,8.3 13.02,-3.14 21.98,-10.58 26.88,-22.3 4.91,-11.73 4.9,-27.82 -0.04,-48.28l-6.14 -25.51 35.47 -8.55 90.61 45.22 -30.55 -126.74 43.44 -10.48 45.82 190.13 -34.67 8.35 -96.85 -48.35zm-44.47 342.19l-43.84 10.57 -49.56 -205.66 34.67 -8.37 131.93 85.45c14.97,9.61 27.43,15.52 37.39,17.77 9.95,2.24 19.32,2.3 28.09,0.19 13.02,-3.14 21.92,-9.93 26.72,-20.36 4.8,-10.43 5.14,-24.16 1.04,-41.16 -6.85,-28.43 -21.8,-47.88 -44.84,-58.36l19.16 -42.99c17.23,7.37 32.13,19.32 44.68,35.84 12.56,16.5 21.6,36.19 27.11,59.04 7.3,30.29 5.95,56.2 -4.04,77.72 -10,21.53 -27.35,35.28 -52.06,41.23 -15.15,3.65 -30.13,3.89 -44.96,0.72 -14.82,-3.18 -32.92,-11.75 -54.27,-25.73l-88.92 -57.43 31.7 131.53zm324.52 65.59l10.75 44.65 -407.15 -41.04 -10.76 -44.64 407.16 41.03zm-232.01 318.24l-43.84 10.57 -49.56 -205.67 34.67 -8.35 131.93 85.44c14.97,9.61 27.42,15.53 37.38,17.76 9.96,2.24 19.32,2.31 28.1,0.19 13.02,-3.13 21.92,-9.92 26.72,-20.35 4.79,-10.43 5.14,-24.16 1.04,-41.17 -6.85,-28.42 -21.8,-47.87 -44.85,-58.35l19.17 -43c17.23,7.38 32.13,19.33 44.68,35.84 12.56,16.51 21.59,36.2 27.11,59.05 7.3,30.29 5.95,56.19 -4.04,77.72 -10,21.53 -27.36,35.27 -52.07,41.22 -15.15,3.65 -30.12,3.89 -44.95,0.72 -14.83,-3.18 -32.92,-11.75 -54.28,-25.72l-88.91 -57.43 31.7 131.53zm-12.86 156.6c-5.38,-22.32 -4.53,-43.61 2.53,-63.87 7.07,-20.26 20.21,-38.05 39.43,-53.36 19.23,-15.32 43.72,-26.57 73.47,-33.73 29.76,-7.18 56.69,-8.32 80.78,-3.44 24.09,4.87 43.9,14.71 59.41,29.54 15.53,14.81 25.98,33.38 31.36,55.7 5.38,22.32 4.54,43.67 -2.48,64.07 -7.04,20.38 -20.17,38.24 -39.39,53.56 -19.23,15.32 -43.72,26.56 -73.47,33.73 -29.76,7.17 -56.69,8.32 -80.78,3.44 -24.09,-4.88 -43.91,-14.79 -59.46,-29.74 -15.55,-14.94 -26.02,-33.57 -31.4,-55.9zm45.05 -10.85c4.8,19.92 16.83,33.68 36.09,41.27 19.25,7.59 45.23,7.45 77.91,-0.43 32.69,-7.88 55.87,-19.58 69.55,-35.11 13.7,-15.53 18.14,-33.26 13.33,-53.18 -4.73,-19.67 -16.73,-33.29 -36,-40.88 -19.26,-7.59 -45.22,-7.45 -77.91,0.43 -32.69,7.87 -55.87,19.57 -69.55,35.11 -13.69,15.53 -18.16,33.12 -13.42,52.79z"/>
    <polygon class="fil3" points="13038.18,7153.3 13138.62,7565.21 11636.88,7897.96 11539.11,7485.44 "/>
    <path class="fil3" d="M9687.94 4079.87l-340.49 187.87c277.64,503.25 555.26,1006.48 832.9,1509.72l340.49 -187.84c-277.64,-503.25 -555.26,-1006.5 -832.9,-1509.75zm527 -4165.63l395.89 0 254.16 1332.21 -381.99 72.89 -268.06 -1405.1zm1402.77 0l395.89 0 196.67 1030.88 -381.99 72.87 -210.57 -1103.75zm-2500.88 879.42l-336.77 194.46c425.45,736.83 850.87,1473.64 1276.31,2210.47l336.76 -194.45c-425.43,-736.83 -850.86,-1473.65 -1276.3,-2210.48z"/>
   </g>
   <polygon class="fil6" points="14712.94,5259.73 12904.3,5669.6 12887.9,5596.66 14696.54,5186.79 "/>
   <polygon class="fil6" points="13206.6,5875.16 12844.56,5644.57 13075.15,5282.5 13138.13,5322.64 12947.67,5621.7 13246.74,5812.18 "/>
  </g>
 </g>
</svg>
