<svg width="135" height="57" viewBox="0 0 135 57" fill="none" xmlns="http://www.w3.org/2000/svg">
<path d="M109.012 26.4651C107.855 26.464 106.709 26.2281 105.645 25.7716C104.581 25.3152 103.621 24.6476 102.822 23.8094C101.165 22.1271 100.243 19.8563 100.259 17.4952C100.243 15.1322 101.165 12.8593 102.822 11.1748C103.621 10.3374 104.581 9.67076 105.645 9.21535C106.71 8.75994 107.855 8.52516 109.012 8.52524C110.17 8.52587 111.315 8.76096 112.379 9.21633C113.443 9.6717 114.403 10.3379 115.203 11.1748C116.867 12.8563 117.795 15.1295 117.784 17.4952C117.799 19.8579 116.877 22.1303 115.221 23.8156C114.421 24.6513 113.46 25.3167 112.396 25.772C111.333 26.2273 110.188 26.463 109.031 26.4651H109.012ZM73.5969 26.4651V8.51284H81.4773C83.1882 8.51774 84.8276 9.19959 86.0374 10.4094C87.2472 11.6192 87.929 13.2586 87.9339 14.9695C87.9313 16.0841 87.6411 17.1791 87.0912 18.1487C86.5414 19.1182 85.7506 19.9294 84.7954 20.5037L88.5096 26.4527H85.1544L81.9973 21.4013C81.8178 21.4013 81.6445 21.4013 81.4711 21.4013H76.4383V26.4279L73.5969 26.4651ZM76.4445 11.3728V18.5847H81.4773C82.4324 18.5814 83.3476 18.201 84.0235 17.5262C84.6994 16.8514 85.0814 15.9369 85.0863 14.9818C85.0831 14.0257 84.7018 13.1096 84.0257 12.4335C83.3496 11.7574 82.4335 11.3761 81.4773 11.3728H76.4445ZM95.5544 26.4651H92.7067V8.51284H95.5544V26.4651ZM125.355 8.51284V23.5989H135V26.4527H122.489V8.50049L125.355 8.51284ZM64.2865 23.6175H53.7628L52.4071 26.4527H49.2623L57.8608 8.50049H60.1884C63.0525 14.4804 65.9166 20.4645 68.7807 26.4527H65.636L64.2865 23.6175ZM55.137 20.7699H62.9246L59.0308 12.6481L55.137 20.7699ZM109.031 23.5989C109.813 23.6036 110.588 23.4471 111.306 23.1394C112.025 22.8316 112.673 22.379 113.209 21.8099C113.774 21.2401 114.219 20.5633 114.519 19.8192C114.819 19.0751 114.967 18.2787 114.955 17.4766C114.967 16.674 114.818 15.8772 114.517 15.1331C114.216 14.3889 113.769 13.7124 113.203 13.1433C112.667 12.5758 112.02 12.1246 111.303 11.8179C110.585 11.5112 109.811 11.3555 109.031 11.3605C108.249 11.3557 107.475 11.5115 106.757 11.8182C106.038 12.1249 105.39 12.5759 104.852 13.1433C104.289 13.7138 103.844 14.3907 103.544 15.1346C103.245 15.8785 103.096 16.6746 103.107 17.4766C103.095 18.2787 103.243 19.0751 103.543 19.8192C103.843 20.5633 104.288 21.2401 104.852 21.8099C105.388 22.3796 106.036 22.8325 106.755 23.1404C107.474 23.4482 108.249 23.6043 109.031 23.5989Z" fill="#2D2E33"/>
<path d="M19.4069 7.7558e-07C21.9547 7.7558e-07 24.4775 0.50182 26.8313 1.4768C29.1851 2.45178 31.3238 3.88086 33.1253 5.68239C34.9269 7.48392 36.3559 9.62265 37.3309 11.9765C38.3059 14.3303 38.8077 16.8531 38.8077 19.4008C38.8109 20.5549 38.7093 21.7069 38.5044 22.8427H34.1339C32.731 22.8616 31.349 22.5011 30.1341 21.7994C28.9191 21.0976 27.9163 20.0807 27.2316 18.8561L16.4727 0.216688C17.4441 0.0721687 18.4248 -0.000273443 19.4069 7.7558e-07Z" fill="#52BA61"/>
<path d="M36.2082 29.1143C34.9342 31.3214 33.238 33.2558 31.2162 34.8072C29.1945 36.3586 26.887 37.4964 24.4254 38.1558C21.9639 38.8152 19.3965 38.9831 16.87 38.6501C14.3435 38.317 11.9074 37.4895 9.70079 36.2147C8.70021 35.6384 7.7534 34.9733 6.87177 34.2276L9.05697 30.4452C9.74266 29.2215 10.7457 28.2053 11.9604 27.5037C13.1752 26.8021 14.5566 26.441 15.9593 26.4586H37.4834C37.1266 27.375 36.7002 28.2628 36.2082 29.1143Z" fill="#2D2E33"/>
<path d="M2.59953 29.1012C0.0267099 24.6443 -0.670594 19.3481 0.660938 14.3772C1.99247 9.40631 5.24382 5.16777 9.69997 2.59374C10.7019 2.0168 11.752 1.528 12.8385 1.13281L15.0237 4.92135C15.7423 6.12586 16.1217 7.50231 16.1217 8.90489C16.1217 10.3075 15.7423 11.6839 15.0237 12.8884L4.26475 31.5278C3.65213 30.7613 3.09758 29.9502 2.60572 29.1012" fill="#2D2E33"/>
<path d="M91.3591 53.6419C91.8593 53.6769 92.3561 53.5368 92.7643 53.2457C92.9264 53.1053 93.0542 52.9296 93.1379 52.7322C93.2216 52.5348 93.259 52.3208 93.2472 52.1067C93.2604 51.8906 93.2237 51.6743 93.14 51.4747C93.0563 51.275 92.9277 51.0973 92.7643 50.9553C92.3569 50.6619 91.8601 50.5197 91.3591 50.5529H89.7187V53.6481L91.3591 53.6419ZM91.3591 49.9896C92.0254 49.9509 92.6837 50.1506 93.2162 50.5529C93.4401 50.743 93.6174 50.9819 93.7344 51.2513C93.8513 51.5207 93.9049 51.8133 93.891 52.1067C93.9059 52.3992 93.8527 52.6913 93.7356 52.9598C93.6185 53.2283 93.4407 53.4661 93.2162 53.6543C92.6837 54.0566 92.0254 54.2563 91.3591 54.2176H89.7001V56.1181H89.0501V49.9276L91.3591 49.9896ZM81.6278 56.2171C81.2876 56.2365 80.9471 56.1855 80.6275 56.0673C80.308 55.949 80.0163 55.7661 79.7706 55.53C79.5306 55.2572 79.3474 54.9394 79.2315 54.595C79.1157 54.2506 79.0696 53.8867 79.0959 53.5243V49.9896H79.7521V53.4995C79.7055 54.0757 79.8779 54.6482 80.2349 55.1028C80.4166 55.2863 80.6354 55.4288 80.8767 55.5207C81.1181 55.6125 81.3763 55.6516 81.634 55.6352C81.8936 55.6529 82.1541 55.6146 82.3976 55.5227C82.6412 55.4309 82.8621 55.2876 83.0454 55.1028C83.4068 54.6503 83.5817 54.0768 83.5344 53.4995V49.9896H84.1535V53.5243C84.2045 54.2539 83.9666 54.9743 83.4911 55.53C83.2455 55.7661 82.9538 55.949 82.6342 56.0673C82.3146 56.1855 81.9741 56.2365 81.634 56.2171H81.6278ZM71.5312 55.6352C71.9916 55.6406 72.4456 55.5277 72.8497 55.3071C73.2379 55.0932 73.5592 54.7761 73.7783 54.3909C74.0029 53.9904 74.1182 53.5378 74.1126 53.0786C74.1188 52.6193 74.0034 52.1666 73.7783 51.7662C73.5592 51.381 73.2379 51.0639 72.8497 50.85C72.4456 50.6295 71.9916 50.5165 71.5312 50.5219C71.0668 50.5158 70.6086 50.6287 70.2002 50.85C69.8121 51.066 69.4893 51.3825 69.2655 51.7662C69.0382 52.166 68.9207 52.6187 68.925 53.0786C68.9216 53.5383 69.039 53.9908 69.2655 54.3909C69.4893 54.7746 69.8121 55.0911 70.2002 55.3071C70.6086 55.5284 71.0668 55.6414 71.5312 55.6352ZM71.5312 56.2171C70.9503 56.2252 70.3771 56.0846 69.866 55.8085C69.3819 55.547 68.9793 55.1572 68.7021 54.6819C68.4187 54.1957 68.2731 53.6413 68.2812 53.0786C68.2748 52.514 68.4202 51.9582 68.7021 51.4691C68.9814 50.997 69.3837 50.6098 69.866 50.3486C70.3771 50.0726 70.9503 49.9319 71.5312 49.94C72.1076 49.9297 72.6769 50.0683 73.184 50.3424C73.665 50.6059 74.0652 50.9954 74.3416 51.4691C74.6262 51.9571 74.7718 52.5137 74.7626 53.0786C74.7718 53.6434 74.6262 54.2 74.3416 54.6881C74.0651 55.1601 73.6648 55.5475 73.184 55.8085C72.6774 56.0846 72.1081 56.2253 71.5312 56.2171ZM61.837 53.6419C62.3389 53.6754 62.8365 53.5308 63.2422 53.2333C63.4043 53.0929 63.532 52.9172 63.6157 52.7198C63.6994 52.5224 63.7368 52.3084 63.7251 52.0943C63.7383 51.8782 63.7016 51.662 63.6179 51.4623C63.5341 51.2626 63.4056 51.0849 63.2422 50.9429C62.8343 50.6505 62.3378 50.5083 61.837 50.5405H60.2151V53.6357L61.837 53.6419ZM63.7622 56.149L62.3508 54.1681C62.1858 54.1777 62.0205 54.1777 61.8555 54.1681H60.2151V56.1181H59.5651V49.9276H61.8741C62.5404 49.889 63.1987 50.0886 63.7312 50.491C63.954 50.682 64.1305 50.9211 64.2474 51.1902C64.3643 51.4594 64.4185 51.7516 64.406 52.0448C64.4251 52.4875 64.2942 52.9237 64.0346 53.2829C63.775 53.63 63.4102 53.884 62.9946 54.0071L64.4989 56.1181L63.7622 56.149ZM54.1547 53.0538H54.7737V55.4062C54.4757 55.6666 54.1283 55.8645 53.7523 55.9881C53.3537 56.1243 52.9353 56.1933 52.5142 56.1924C51.9332 56.2013 51.3598 56.0606 50.849 55.7838C50.364 55.5263 49.9609 55.1381 49.6852 54.6633C49.3984 54.1759 49.2507 53.6193 49.258 53.0538C49.2507 52.4884 49.3984 51.9317 49.6852 51.4443C49.9605 50.9676 50.3636 50.5774 50.849 50.3176C51.3625 50.0428 51.938 49.9042 52.5204 49.9153C52.9636 49.9106 53.404 49.9861 53.8204 50.1381C54.2014 50.2779 54.5432 50.5072 54.817 50.8067L54.4085 51.2152C54.1627 50.9774 53.8717 50.7913 53.5527 50.668C53.2337 50.5446 52.8932 50.4866 52.5513 50.4972C52.0791 50.4911 51.6129 50.604 51.1956 50.8253C50.8029 51.0395 50.4757 51.3561 50.2485 51.7414C50.0165 52.1395 49.8967 52.5931 49.9018 53.0538C49.8966 53.5126 50.0164 53.9642 50.2485 54.36C50.4756 54.7432 50.8003 55.0593 51.1894 55.2762C51.6031 55.5017 52.0678 55.6168 52.5389 55.6105C53.1146 55.628 53.6807 55.461 54.1547 55.1338V53.0538ZM112.165 44.8453C111.719 44.8454 111.275 44.7722 110.853 44.6286C110.486 44.5132 110.151 44.314 109.875 44.0467L110.129 43.5391C110.384 43.782 110.687 43.9678 111.02 44.0839C111.386 44.221 111.774 44.2922 112.165 44.2944C112.6 44.3218 113.033 44.2136 113.403 43.9848C113.531 43.8977 113.636 43.7805 113.709 43.6434C113.781 43.5063 113.818 43.3536 113.818 43.1987C113.826 43.0851 113.809 42.9713 113.77 42.8646C113.73 42.7579 113.669 42.6607 113.589 42.5796C113.432 42.4295 113.244 42.3155 113.038 42.2453C112.74 42.1412 112.436 42.0544 112.128 41.9853C111.753 41.8917 111.383 41.7781 111.02 41.6448C110.746 41.5365 110.502 41.3646 110.308 41.1434C110.101 40.8866 109.995 40.5629 110.011 40.2334C110.009 39.9318 110.098 39.6365 110.265 39.3853C110.45 39.1092 110.713 38.8938 111.02 38.7663C111.423 38.6036 111.855 38.5257 112.289 38.5373C112.64 38.5381 112.99 38.586 113.329 38.6796C113.639 38.7675 113.934 38.9033 114.202 39.082L113.985 39.602C113.729 39.4352 113.45 39.3079 113.156 39.2244C112.875 39.1381 112.583 39.0922 112.289 39.0882C111.852 39.0552 111.416 39.1684 111.051 39.4101C110.922 39.5005 110.817 39.6211 110.746 39.7614C110.675 39.9018 110.639 40.0575 110.642 40.2149C110.634 40.3279 110.649 40.4415 110.688 40.5482C110.726 40.6549 110.787 40.7522 110.865 40.8339C111.024 40.9895 111.217 41.106 111.428 41.1744C111.658 41.2548 111.961 41.3415 112.338 41.4406C112.713 41.5249 113.081 41.6346 113.44 41.7687C113.714 41.8712 113.957 42.0416 114.146 42.2639C114.354 42.5127 114.461 42.8313 114.443 43.1553C114.445 43.4589 114.357 43.7562 114.189 44.0096C113.999 44.2884 113.729 44.5039 113.416 44.6286C113.008 44.7883 112.572 44.8641 112.134 44.8515L112.165 44.8453ZM103.796 44.8515C103.347 44.852 102.902 44.7788 102.477 44.6348C102.11 44.5194 101.775 44.3202 101.499 44.0529L101.759 43.5453C102.011 43.7916 102.316 43.9778 102.65 44.0901C103.017 44.2277 103.404 44.299 103.796 44.3005C104.231 44.3288 104.663 44.2206 105.034 43.991C105.163 43.9051 105.269 43.7881 105.341 43.6508C105.414 43.5134 105.451 43.3601 105.449 43.2048C105.456 43.0913 105.44 42.9775 105.4 42.8707C105.361 42.764 105.299 42.6669 105.219 42.5858C105.064 42.4371 104.878 42.3232 104.675 42.2515C104.374 42.1484 104.068 42.0616 103.759 41.9915C103.383 41.8988 103.013 41.7851 102.65 41.651C102.377 41.5427 102.133 41.3708 101.939 41.1496C101.731 40.8933 101.627 40.5687 101.648 40.2396C101.644 39.9386 101.73 39.6432 101.895 39.3915C102.081 39.1154 102.343 38.9 102.65 38.7725C103.053 38.6105 103.485 38.5325 103.92 38.5434C104.271 38.5443 104.621 38.5922 104.959 38.6858C105.27 38.7737 105.564 38.9094 105.832 39.0882L105.616 39.6082C105.36 39.4413 105.08 39.314 104.786 39.2306C104.505 39.1443 104.213 39.0984 103.92 39.0944C103.483 39.0613 103.047 39.1746 102.681 39.4163C102.551 39.5059 102.446 39.6263 102.373 39.7667C102.301 39.9071 102.264 40.0631 102.267 40.2211C102.259 40.3346 102.275 40.4484 102.315 40.5551C102.354 40.6618 102.416 40.759 102.496 40.8401C102.655 40.9957 102.847 41.1122 103.059 41.1806C103.288 41.261 103.591 41.3477 103.969 41.4467C104.343 41.5311 104.711 41.6407 105.071 41.7748C105.345 41.8788 105.59 42.0489 105.783 42.2701C105.987 42.521 106.09 42.8386 106.074 43.1615C106.075 43.4651 105.987 43.7624 105.82 44.0158C105.629 44.2946 105.36 44.5101 105.046 44.6348C104.64 44.794 104.207 44.8698 103.771 44.8577L103.796 44.8515ZM97.6115 44.2386V44.8082H93.2472V38.6177H97.4815V39.1872H93.8972V41.3849H97.0915V41.9358H93.8972V44.2263L97.6115 44.2386ZM88.3258 38.6301V44.8205H87.7873L83.8192 39.8125V44.8205H83.1692V38.6301H83.7078L87.6882 43.6444V38.6301H88.3258ZM77.5854 38.6301H78.2354V44.8205H77.5854V38.6301ZM70.9864 44.8515C70.538 44.852 70.0925 44.7788 69.6679 44.6348C69.3011 44.5194 68.9662 44.3202 68.6898 44.0529L68.9498 43.5453C69.2022 43.7916 69.5069 43.9778 69.8412 44.0901C70.2074 44.2277 70.5952 44.299 70.9864 44.3005C71.4213 44.3288 71.8541 44.2206 72.2245 43.991C72.3527 43.9039 72.4575 43.7867 72.5299 43.6496C72.6022 43.5125 72.6397 43.3598 72.6393 43.2048C72.6482 43.0912 72.6324 42.977 72.5929 42.8701C72.5533 42.7632 72.491 42.6662 72.4102 42.5858C72.253 42.4357 72.065 42.3217 71.8593 42.2515C71.5631 42.1481 71.2613 42.0613 70.9555 41.9915C70.578 41.8987 70.206 41.785 69.8412 41.651C69.5697 41.5418 69.3279 41.37 69.1355 41.1496C68.9237 40.8954 68.8174 40.5698 68.8383 40.2396C68.8345 39.9386 68.9207 39.6432 69.086 39.3915C69.2713 39.1154 69.534 38.9 69.8412 38.7725C70.244 38.6098 70.676 38.5318 71.1102 38.5434C71.4617 38.5443 71.8115 38.5922 72.1502 38.6858C72.46 38.7745 72.7544 38.9102 73.0231 39.0882L72.8064 39.6082C72.5511 39.4401 72.2713 39.3128 71.9769 39.2306C71.6959 39.1443 71.4041 39.0984 71.1102 39.0944C70.6733 39.0613 70.2377 39.1746 69.8721 39.4163C69.7433 39.5066 69.6386 39.6273 69.5673 39.7676C69.4961 39.908 69.4605 40.0637 69.4636 40.2211C69.455 40.3341 69.4704 40.4477 69.5088 40.5544C69.5472 40.6611 69.6078 40.7584 69.6864 40.8401C69.8443 40.997 70.0375 41.1137 70.2498 41.1806C70.4788 41.261 70.7821 41.3477 71.1659 41.4467C71.538 41.5319 71.904 41.6415 72.2616 41.7748C72.5361 41.8788 72.7806 42.0489 72.9735 42.2701C73.1775 42.521 73.2812 42.8386 73.2645 43.1615C73.2662 43.4651 73.1779 43.7624 73.0107 44.0158C72.8216 44.2959 72.5517 44.5118 72.2369 44.6348C71.8313 44.7945 71.3974 44.8703 70.9617 44.8577L70.9864 44.8515ZM61.8432 44.8577C61.503 44.8771 61.1625 44.8261 60.8429 44.7078C60.5234 44.5896 60.2317 44.4067 59.986 44.1706C59.5069 43.6191 59.2664 42.8998 59.3175 42.171V38.6301H59.9736V42.1401C59.9286 42.718 60.1008 43.2919 60.4565 43.7496C60.6394 43.9328 60.8595 44.0746 61.1019 44.1654C61.3444 44.2562 61.6035 44.2938 61.8617 44.2758C62.1277 44.2953 62.3947 44.2573 62.6447 44.1643C62.8947 44.0714 63.1217 43.9257 63.3103 43.7372C63.666 43.2796 63.8382 42.7056 63.7931 42.1277V38.6177H64.4122V42.1587C64.4623 42.8863 64.2244 43.6044 63.7498 44.1582C63.5042 44.3943 63.2125 44.5772 62.8929 44.6955C62.5734 44.8137 62.2329 44.8647 61.8927 44.8453L61.8432 44.8577ZM52.6627 44.2572C53.0944 44.2848 53.5246 44.1858 53.9008 43.9725C54.0433 43.8767 54.1579 43.7449 54.2329 43.5905C54.308 43.4361 54.3408 43.2646 54.328 43.0934C54.328 42.3258 53.7709 41.9358 52.6504 41.9358H50.4713V44.2572H52.6627ZM50.4837 39.1563V41.3972H52.4523C52.8581 41.4222 53.262 41.3229 53.6099 41.1125C53.7408 41.0187 53.8462 40.8937 53.9165 40.7488C53.9868 40.604 54.0197 40.4438 54.0123 40.283C54.0219 40.1209 53.99 39.9591 53.9196 39.8129C53.8492 39.6666 53.7426 39.5408 53.6099 39.4473C53.2627 39.2347 52.8588 39.1332 52.4523 39.1563H50.4837ZM53.7213 41.6325C54.0842 41.6961 54.4153 41.8791 54.6623 42.1525C54.8876 42.4394 55.0038 42.7969 54.9904 43.1615C55.0056 43.4008 54.9596 43.6401 54.8567 43.8567C54.7538 44.0733 54.5974 44.2602 54.4023 44.3996C53.8851 44.7184 53.2813 44.8678 52.6751 44.8267H49.8337V38.6363H52.4956C53.0601 38.6052 53.6203 38.7501 54.0989 39.0511C54.2829 39.1851 54.4307 39.3628 54.529 39.5681C54.6273 39.7734 54.6731 39.9999 54.6623 40.2272C54.6731 40.535 54.5865 40.8383 54.4146 41.0939C54.2417 41.3379 54.0005 41.5252 53.7213 41.6325Z" fill="#2D2E33"/>
</svg>
