<svg width="192" height="80" viewBox="0 0 192 80" fill="none" xmlns="http://www.w3.org/2000/svg">
<path d="M154.954 37.6757C153.308 37.6742 151.68 37.3386 150.168 36.6893C148.655 36.0399 147.29 35.0903 146.155 33.8979C143.8 31.5049 142.49 28.2745 142.512 24.9158C142.489 21.5544 143.799 18.3211 146.155 15.9248C147.291 14.7336 148.656 13.7853 150.168 13.1375C151.681 12.4897 153.309 12.1557 154.954 12.1558C156.599 12.1567 158.227 12.4911 159.739 13.1389C161.252 13.7867 162.617 14.7344 163.753 15.9248C166.119 18.3168 167.438 21.5506 167.423 24.9158C167.444 28.2768 166.134 31.5093 163.78 33.9067C162.642 35.0955 161.277 36.0421 159.765 36.6898C158.252 37.3375 156.625 37.6728 154.981 37.6757H154.954ZM104.613 37.6757V12.1382H115.815C118.247 12.1452 120.577 13.1151 122.297 14.8361C124.016 16.557 124.986 18.8891 124.993 21.3229C124.989 22.9085 124.576 24.4662 123.795 25.8454C123.013 27.2246 121.889 28.3785 120.531 29.1955L125.811 37.6581H121.042L116.554 30.4724C116.299 30.4724 116.053 30.4724 115.806 30.4724H108.652V37.6229L104.613 37.6757ZM108.661 16.2066V26.4656H115.815C117.173 26.461 118.473 25.9198 119.434 24.9599C120.395 24 120.938 22.6991 120.945 21.3405C120.94 19.9803 120.398 18.6772 119.437 17.7154C118.476 16.7536 117.174 16.2112 115.815 16.2066H108.661ZM135.825 37.6757H131.777V12.1382H135.825V37.6757ZM178.184 12.1382V33.5985H191.894V37.6581H174.11V12.1206L178.184 12.1382ZM91.3794 33.6249H76.4206L74.4936 37.6581H70.0235L82.2457 12.1206H85.5542C89.6254 20.6272 93.6965 29.1397 97.7676 37.6581H93.2976L91.3794 33.6249ZM78.374 29.5742H89.4435L83.9088 18.0207L78.374 29.5742ZM154.981 33.5985C156.092 33.6051 157.193 33.3826 158.215 32.9448C159.237 32.5069 160.158 31.8632 160.92 31.0536C161.723 30.243 162.356 29.2802 162.782 28.2217C163.208 27.1633 163.418 26.0304 163.402 24.8894C163.418 23.7477 163.206 22.6142 162.778 21.5557C162.351 20.4971 161.716 19.5347 160.911 18.7251C160.15 17.9178 159.23 17.276 158.21 16.8397C157.189 16.4034 156.09 16.1819 154.981 16.189C153.87 16.1823 152.77 16.4039 151.748 16.8401C150.726 17.2764 149.805 17.918 149.041 18.7251C148.24 19.5366 147.608 20.4995 147.182 21.5578C146.756 22.6161 146.544 23.7486 146.56 24.8894C146.543 26.0304 146.753 27.1633 147.18 28.2217C147.606 29.2802 148.239 30.243 149.041 31.0536C149.803 31.864 150.723 32.5083 151.746 32.9462C152.768 33.3841 153.869 33.6062 154.981 33.5985Z" fill="white"/>
<path d="M27.5849 0.0273449C31.2064 0.0273449 34.7924 0.741196 38.1382 2.12813C41.4839 3.51507 44.524 5.54797 47.0848 8.1107C49.6455 10.6734 51.6768 13.7158 53.0627 17.0642C54.4485 20.4125 55.1618 24.0013 55.1618 27.6255C55.1663 29.2673 55.022 30.906 54.7307 32.5217H48.5184C46.5242 32.5486 44.5599 32.0358 42.8329 31.0375C41.1059 30.0393 39.6804 28.5927 38.7072 26.8506L23.4141 0.335589C24.7948 0.130006 26.1889 0.0269548 27.5849 0.0273449Z" fill="#52BA61"/>
<path d="M51.4662 41.4432C49.6554 44.5828 47.2442 47.3346 44.3705 49.5415C41.4967 51.7483 38.2167 53.367 34.7178 54.305C31.2188 55.2429 27.5695 55.4819 23.9783 55.0081C20.387 54.5343 16.9242 53.3571 13.7877 51.5437C12.3654 50.7238 11.0196 49.7778 9.76642 48.717L12.8725 43.3365C13.8472 41.5956 15.273 40.1501 16.9996 39.152C18.7263 38.154 20.6899 37.6404 22.6838 37.6654H53.2789C52.7717 38.969 52.1656 40.232 51.4662 41.4432Z" fill="white"/>
<path d="M3.69506 41.4263C0.0379664 35.0863 -0.953205 27.5523 0.93948 20.4811C2.83217 13.4099 7.45375 7.38045 13.7879 3.71884C15.212 2.89813 16.7047 2.20278 18.2491 1.64062L21.3552 7.02992C22.3767 8.74336 22.9159 10.7014 22.9159 12.6966C22.9159 14.6918 22.3767 16.6498 21.3552 18.3633L6.06207 44.8783C5.19126 43.788 4.40301 42.6341 3.70387 41.4263" fill="white"/>
<path d="M129.858 76.3321C130.569 76.3819 131.275 76.1826 131.855 75.7685C132.086 75.5687 132.267 75.3189 132.386 75.038C132.505 74.7572 132.558 74.4528 132.542 74.1482C132.561 73.8408 132.508 73.5332 132.389 73.2491C132.27 72.9651 132.088 72.7123 131.855 72.5103C131.276 72.093 130.57 71.8906 129.858 71.9379H127.526V76.3409L129.858 76.3321ZM129.858 71.1365C130.805 71.0815 131.741 71.3656 132.498 71.9379C132.816 72.2083 133.068 72.5482 133.234 72.9314C133.401 73.3146 133.477 73.7309 133.457 74.1482C133.478 74.5644 133.402 74.9798 133.236 75.3618C133.07 75.7438 132.817 76.082 132.498 76.3497C131.741 76.922 130.805 77.2061 129.858 77.1511H127.5V79.8545H126.576V71.0485L129.858 71.1365ZM116.026 79.9954C115.542 80.023 115.058 79.9504 114.604 79.7823C114.15 79.6141 113.735 79.3539 113.386 79.0179C113.045 78.6299 112.784 78.1778 112.619 77.6879C112.455 77.198 112.389 76.6803 112.427 76.1648V71.1365H113.359V76.1295C113.293 76.9492 113.538 77.7636 114.046 78.4103C114.304 78.6714 114.615 78.874 114.958 79.0047C115.301 79.1353 115.668 79.1909 116.034 79.1676C116.403 79.1929 116.774 79.1383 117.12 79.0076C117.466 78.8769 117.78 78.6732 118.041 78.4103C118.554 77.7665 118.803 76.9507 118.736 76.1295V71.1365H119.616V76.1648C119.688 77.2027 119.35 78.2274 118.674 79.0179C118.325 79.3539 117.91 79.6141 117.456 79.7823C117.002 79.9504 116.518 80.023 116.034 79.9954H116.026ZM101.674 79.1676C102.328 79.1754 102.974 79.0146 103.548 78.7009C104.1 78.3967 104.557 77.9456 104.868 77.3976C105.187 76.8278 105.351 76.184 105.343 75.5307C105.352 74.8774 105.188 74.2334 104.868 73.6639C104.557 73.1159 104.1 72.6648 103.548 72.3606C102.974 72.0468 102.328 71.8861 101.674 71.8938C101.014 71.8851 100.362 72.0458 99.782 72.3606C99.2303 72.6679 98.7714 73.118 98.4533 73.6639C98.1303 74.2325 97.9633 74.8766 97.9694 75.5307C97.9645 76.1847 98.1314 76.8285 98.4533 77.3976C98.7714 77.9435 99.2303 78.3936 99.782 78.7009C100.362 79.0157 101.014 79.1764 101.674 79.1676ZM101.674 79.9954C100.848 80.0069 100.033 79.8069 99.3069 79.4142C98.6189 79.0421 98.0465 78.4876 97.6526 77.8115C97.2496 77.1198 97.0428 76.3313 97.0543 75.5307C97.0451 74.7277 97.2518 73.9369 97.6526 73.2412C98.0496 72.5697 98.6213 72.0188 99.3069 71.6473C100.033 71.2546 100.848 71.0546 101.674 71.0661C102.493 71.0513 103.302 71.2485 104.023 71.6385C104.707 72.0133 105.276 72.5674 105.669 73.2412C106.073 73.9354 106.28 74.7272 106.267 75.5307C106.28 76.3343 106.073 77.1261 105.669 77.8203C105.276 78.4917 104.707 79.0429 104.023 79.4142C103.303 79.8069 102.494 80.0071 101.674 79.9954ZM87.8942 76.3321C88.6076 76.3798 89.315 76.174 89.8916 75.7509C90.122 75.5511 90.3036 75.3013 90.4226 75.0204C90.5415 74.7396 90.5947 74.4352 90.578 74.1306C90.5968 73.8232 90.5446 73.5156 90.4256 73.2315C90.3066 72.9475 90.1239 72.6947 89.8916 72.4927C89.3119 72.0768 88.6061 71.8745 87.8942 71.9203H85.5888V76.3233L87.8942 76.3321ZM90.6308 79.8985L88.6245 77.0806C88.3901 77.0942 88.155 77.0942 87.9206 77.0806H85.5888V79.8545H84.6649V71.0485H87.947C88.8941 70.9934 89.8298 71.2775 90.5868 71.8498C90.9035 72.1215 91.1543 72.4616 91.3205 72.8445C91.4866 73.2274 91.5637 73.6431 91.5459 74.0602C91.573 74.69 91.387 75.3105 91.018 75.8214C90.649 76.3152 90.1305 76.6766 89.5397 76.8517L91.6779 79.8545L90.6308 79.8985ZM76.9743 75.4955H77.8542V78.8418C77.4306 79.2123 76.9368 79.4938 76.4023 79.6696C75.8358 79.8634 75.2411 79.9616 74.6425 79.9602C73.8167 79.9729 73.0016 79.7727 72.2755 79.379C71.5862 79.0127 71.0131 78.4605 70.6212 77.7851C70.2136 77.0917 70.0036 76.2999 70.014 75.4955C70.0036 74.6911 70.2136 73.8993 70.6212 73.206C71.0126 72.5279 71.5855 71.9727 72.2755 71.6033C73.0054 71.2122 73.8235 71.0151 74.6513 71.0309C75.2813 71.0242 75.9073 71.1316 76.4991 71.3479C77.0407 71.5467 77.5266 71.8729 77.9158 72.2989L77.3351 72.8801C76.9857 72.5418 76.572 72.2771 76.1186 72.1016C75.6652 71.9262 75.1812 71.8435 74.6953 71.8586C74.024 71.8501 73.3613 72.0106 72.7682 72.3254C72.2101 72.6301 71.7449 73.0805 71.422 73.6286C71.0922 74.195 70.9219 74.8401 70.9292 75.4955C70.9218 76.1482 71.0921 76.7905 71.422 77.3536C71.7448 77.8987 72.2063 78.3484 72.7594 78.6569C73.3474 78.9777 74.008 79.1414 74.6777 79.1324C75.4959 79.1574 76.3007 78.9198 76.9743 78.4544V75.4955ZM159.432 63.8187C158.798 63.8188 158.168 63.7147 157.567 63.5105C157.046 63.3463 156.57 63.0629 156.177 62.6827L156.537 61.9606C156.9 62.3062 157.332 62.5704 157.805 62.7356C158.325 62.9306 158.876 63.032 159.432 63.035C160.05 63.074 160.665 62.9202 161.192 62.5947C161.374 62.4707 161.523 62.304 161.626 62.109C161.729 61.914 161.782 61.6968 161.782 61.4763C161.793 61.3148 161.769 61.1529 161.713 61.0011C161.657 60.8493 161.57 60.7111 161.456 60.5957C161.233 60.3822 160.965 60.2199 160.673 60.1202C160.249 59.9721 159.817 59.8486 159.38 59.7503C158.846 59.6172 158.321 59.4555 157.805 59.266C157.415 59.1118 157.069 58.8674 156.793 58.5527C156.498 58.1873 156.348 57.7269 156.37 57.2582C156.368 56.8291 156.494 56.4091 156.731 56.0518C156.994 55.6589 157.368 55.3526 157.805 55.1712C158.377 54.9398 158.991 54.8289 159.608 54.8454C160.108 54.8465 160.605 54.9146 161.087 55.0479C161.527 55.1729 161.946 55.366 162.327 55.6203L162.019 56.36C161.656 56.1226 161.258 55.9415 160.84 55.8228C160.441 55.7 160.026 55.6348 159.608 55.6291C158.987 55.5821 158.368 55.7432 157.849 56.087C157.665 56.2155 157.517 56.3871 157.415 56.5868C157.314 56.7864 157.263 57.0079 157.268 57.2318C157.256 57.3926 157.278 57.5542 157.332 57.706C157.387 57.8577 157.473 57.9962 157.585 58.1124C157.81 58.3337 158.084 58.4995 158.385 58.5967C158.711 58.7112 159.142 58.8345 159.679 58.9754C160.211 59.0954 160.734 59.2513 161.245 59.4421C161.634 59.588 161.979 59.8304 162.248 60.1466C162.544 60.5005 162.695 60.9537 162.671 61.4147C162.673 61.8465 162.547 62.2694 162.31 62.6299C162.039 63.0265 161.656 63.3331 161.21 63.5105C160.63 63.7377 160.011 63.8455 159.388 63.8275L159.432 63.8187ZM147.536 63.8275C146.898 63.8282 146.265 63.7241 145.661 63.5193C145.14 63.3552 144.664 63.0718 144.271 62.6915L144.641 61.9694C145 62.3198 145.433 62.5847 145.908 62.7444C146.428 62.9401 146.98 63.0415 147.536 63.0438C148.154 63.084 148.769 62.9301 149.296 62.6035C149.479 62.4813 149.63 62.3149 149.733 62.1195C149.836 61.9241 149.888 61.706 149.885 61.4851C149.896 61.3236 149.873 61.1616 149.817 61.0099C149.761 60.8581 149.673 60.7199 149.56 60.6045C149.338 60.393 149.074 60.2309 148.785 60.129C148.358 59.9823 147.923 59.8588 147.483 59.7591C146.949 59.6272 146.423 59.4656 145.908 59.2748C145.519 59.1206 145.172 58.8762 144.896 58.5615C144.601 58.1969 144.454 57.7351 144.482 57.267C144.477 56.8388 144.6 56.4186 144.834 56.0606C145.098 55.6677 145.471 55.3614 145.908 55.18C146.481 54.9495 147.095 54.8386 147.712 54.8541C148.211 54.8553 148.708 54.9234 149.19 55.0567C149.631 55.1817 150.049 55.3748 150.431 55.6291L150.123 56.3688C149.759 56.1314 149.361 55.9504 148.944 55.8316C148.544 55.7088 148.129 55.6436 147.712 55.6379C147.091 55.5909 146.471 55.752 145.952 56.0958C145.767 56.2233 145.617 56.3945 145.514 56.5942C145.411 56.7939 145.359 57.016 145.362 57.2406C145.351 57.4021 145.375 57.564 145.431 57.7158C145.487 57.8676 145.575 58.0058 145.688 58.1212C145.914 58.3425 146.188 58.5083 146.489 58.6055C146.814 58.72 147.245 58.8433 147.782 58.9842C148.314 59.1042 148.837 59.2601 149.348 59.4509C149.738 59.5988 150.086 59.8408 150.36 60.1554C150.65 60.5123 150.798 60.9641 150.774 61.4235C150.776 61.8553 150.651 62.2782 150.413 62.6387C150.142 63.0353 149.759 63.3419 149.313 63.5193C148.736 63.7458 148.12 63.8536 147.501 63.8363L147.536 63.8275ZM138.745 62.9557V63.7659H132.542V54.9598H138.56V55.77H133.466V58.8961H138.006V59.6799H133.466V62.9381L138.745 62.9557ZM125.546 54.9774V63.7835H124.781L119.14 56.6594V63.7835H118.217V54.9774H118.982L124.64 62.1103V54.9774H125.546ZM110.28 54.9774H111.203V63.7835H110.28V54.9774ZM100.9 63.8275C100.262 63.8282 99.6289 63.7241 99.0253 63.5193C98.5039 63.3552 98.0279 63.0718 97.635 62.6915L98.0046 61.9694C98.3634 62.3198 98.7965 62.5847 99.2717 62.7444C99.7922 62.9401 100.343 63.0415 100.9 63.0438C101.518 63.084 102.133 62.9301 102.659 62.6035C102.842 62.4796 102.991 62.3128 103.093 62.1178C103.196 61.9228 103.25 61.7056 103.249 61.4851C103.262 61.3235 103.239 61.161 103.183 61.009C103.127 60.8569 103.038 60.7189 102.923 60.6045C102.7 60.391 102.433 60.2288 102.14 60.129C101.719 59.9819 101.29 59.8584 100.856 59.7591C100.319 59.6271 99.7903 59.4654 99.2717 59.2748C98.8858 59.1194 98.5421 58.875 98.2686 58.5615C97.9676 58.1999 97.8164 57.7367 97.8462 57.267C97.8407 56.8388 97.9633 56.4186 98.1981 56.0606C98.4616 55.6677 98.835 55.3614 99.2717 55.18C99.8442 54.9486 100.458 54.8376 101.076 54.8541C101.575 54.8553 102.072 54.9234 102.554 55.0567C102.994 55.1829 103.413 55.3759 103.795 55.6291L103.487 56.3688C103.124 56.1297 102.726 55.9485 102.307 55.8316C101.908 55.7088 101.493 55.6436 101.076 55.6379C100.454 55.5909 99.8353 55.752 99.3157 56.0958C99.1325 56.2243 98.9837 56.396 98.8824 56.5956C98.7811 56.7952 98.7305 57.0168 98.7349 57.2406C98.7228 57.4014 98.7447 57.563 98.7993 57.7148C98.8538 57.8665 98.9399 58.005 99.0517 58.1212C99.2761 58.3444 99.5507 58.5104 99.8524 58.6055C100.178 58.72 100.609 58.8433 101.155 58.9842C101.684 59.1053 102.204 59.2612 102.712 59.4509C103.102 59.5988 103.45 59.8408 103.724 60.1554C104.014 60.5123 104.161 60.9641 104.138 61.4235C104.14 61.8553 104.015 62.2782 103.777 62.6387C103.508 63.0371 103.124 63.3443 102.677 63.5193C102.1 63.7465 101.484 63.8543 100.864 63.8363L100.9 63.8275ZM87.903 63.8363C87.4195 63.8639 86.9354 63.7913 86.4812 63.6232C86.027 63.455 85.6123 63.1948 85.2632 62.8589C84.5821 62.0744 84.2402 61.0512 84.3129 60.0145V54.9774H85.2456V59.9705C85.1815 60.7926 85.4263 61.609 85.932 62.26C86.1919 62.5207 86.5048 62.7224 86.8494 62.8515C87.194 62.9807 87.5623 63.0342 87.9294 63.0085C88.3074 63.0363 88.687 62.9822 89.0423 62.85C89.3976 62.7178 89.7203 62.5106 89.9884 62.2424C90.4941 61.5914 90.7388 60.7749 90.6748 59.9528V54.9598H91.5547V59.9969C91.6259 61.0319 91.2877 62.0534 90.6132 62.8412C90.264 63.1772 89.8494 63.4374 89.3952 63.6056C88.9409 63.7737 88.4569 63.8463 87.9734 63.8187L87.903 63.8363ZM74.8536 62.9821C75.4672 63.0214 76.0788 62.8806 76.6135 62.5771C76.816 62.4409 76.9789 62.2534 77.0856 62.0338C77.1922 61.8141 77.2388 61.5701 77.2207 61.3266C77.2207 60.2346 76.4288 59.6799 74.8361 59.6799H71.7387V62.9821H74.8536ZM71.7563 55.726V58.9137H74.5545C75.1314 58.9493 75.7054 58.808 76.2 58.5087C76.386 58.3753 76.5358 58.1975 76.6357 57.9914C76.7356 57.7853 76.7824 57.5575 76.7719 57.3287C76.7856 57.0982 76.7402 56.868 76.6401 56.6599C76.5401 56.4519 76.3885 56.2729 76.2 56.1398C75.7064 55.8374 75.1323 55.693 74.5545 55.726H71.7563ZM76.3583 59.2484C76.8741 59.3389 77.3448 59.5992 77.6958 59.9881C78.0161 60.3962 78.1814 60.9049 78.1622 61.4235C78.1838 61.7639 78.1185 62.1043 77.9722 62.4124C77.8259 62.7206 77.6036 62.9864 77.3262 63.1847C76.5912 63.6382 75.7329 63.8507 74.8713 63.7923H70.8324V54.9863H74.6161C75.4185 54.942 76.2148 55.1482 76.8951 55.5762C77.1566 55.767 77.3667 56.0197 77.5064 56.3117C77.6462 56.6038 77.7113 56.926 77.6958 57.2494C77.7113 57.6872 77.5881 58.1187 77.3439 58.4823C77.098 58.8293 76.7551 59.0958 76.3583 59.2484Z" fill="white"/>
</svg>
