<svg width="50" height="35" viewBox="0 0 50 35" fill="none" xmlns="http://www.w3.org/2000/svg">
<path fill-rule="evenodd" clip-rule="evenodd" d="M37.1732 24.7989C34.2987 25.15 31.4722 25.8149 28.7455 26.7813C27.8922 27.1432 27.0042 27.3501 26.151 27.712C24.4097 28.3499 22.773 28.9187 21.049 29.5737C20.4744 29.7805 16.3651 30.9871 15.6512 31.1422C12.1686 31.987 6.94479 32.9866 3.61907 31.487C2.03452 30.7113 1.87775 33.1246 5.48223 33.9865C7.59 34.3519 9.753 34.2577 11.8205 33.7107C13.5616 33.3486 15.6512 32.7108 17.3053 32.211C18.9596 31.7112 20.9098 31.1422 22.7033 30.6424C23.1386 30.4873 23.4868 30.3494 23.9918 30.2115L26.6559 29.4185C27.161 29.2806 27.5266 29.0738 27.9618 28.9187L30.7131 28.2809C31.218 28.143 31.5837 28.0051 32.0191 27.8499C35.6646 27.0801 39.3831 26.6987 43.1108 26.7123C44.0337 26.7123 45.4094 26.9363 46.3496 27.0743C48.0908 27.2811 47.7077 26.3676 46.5585 25.7815C43.5705 24.6482 40.3346 24.3094 37.1732 24.7989Z" fill="#F9CC46"/>
<path fill-rule="evenodd" clip-rule="evenodd" d="M36.6779 7.76085C37.0294 8.11009 40.1919 16.4301 40.5226 17.4574C40.8518 18.5578 41.317 19.6135 41.9074 20.6004C43.0029 20.847 43.1063 19.7582 43.437 18.8953C45.2353 14.232 47.9638 7.43215 49.3279 2.851C50.2788 0.632318 50.3616 0.0365605 48.6459 0.0365605C46.9303 0.0365605 47.1162 1.1459 46.4342 2.58394C45.8348 5.3162 43.5197 11.0889 42.6722 13.739C42.6722 14.0882 42.6722 14.0882 42.2381 14.0882C40.812 10.1439 39.1584 5.3162 37.5461 1.41296C37.112 0.652863 36.3472 0.488505 35.8305 2.1936C34.9624 4.90534 33.7635 8.13064 32.8334 10.7602C32.8334 10.7602 31.7172 14.0882 31.6345 14.2526C31.0434 13.3079 30.6105 12.2741 30.3529 11.1916C29.0714 8.04846 27.9553 4.6588 26.8597 1.51568C26.5909 0.919925 26.5911 0.570684 25.9916 0.22145C25.3907 0.00016254 24.7412 -0.0565992 24.1106 0.0571034C22.4157 0.324168 23.5112 1.68002 23.8626 2.68666C25.9296 8.21282 28.2239 14.8483 30.5183 20.1073C30.572 20.2377 30.6593 20.3517 30.7714 20.4377C30.8836 20.5239 31.0165 20.5791 31.1569 20.5979C31.2974 20.6165 31.4404 20.5982 31.5713 20.5445C31.7022 20.4909 31.8167 20.4039 31.9031 20.2923C32.2338 19.6554 36.4299 7.76085 36.6779 7.76085Z" fill="black"/>
<path fill-rule="evenodd" clip-rule="evenodd" d="M0.375863 0.395191C0.290421 0.737414 0.319445 1.09798 0.458544 1.42236C0.809933 2.86038 -0.223567 19.2539 0.0451437 19.9113C0.881814 20.2853 1.81986 20.3721 2.71157 20.1579C3.12498 19.7265 2.95962 19.3156 2.95962 18.6377C2.95962 15.7411 3.20765 12.9472 3.20765 9.96839C3.311 8.85905 3.39369 8.09893 3.39369 7.42101C3.39369 6.74307 3.39369 6.82525 3.55905 6.66091C3.72441 6.49656 6.43218 11.1804 6.70089 11.694C7.21763 12.7006 8.23047 14.2414 8.91257 15.4329C9.94607 17.3024 10.4628 16.0287 10.7109 15.5973C11.3103 14.8372 15.9404 6.76362 16.2711 6.59928C16.5811 6.92798 16.5811 15.0015 16.5811 15.5973C16.5811 20.0141 16.0644 20.4455 18.8754 20.2607C19.7436 20.2607 19.8263 19.5826 19.7436 18.8225C19.7436 17.3846 19.7436 15.7616 19.7436 14.3236C19.5162 10.6669 19.351 6.49656 19.351 2.86038C19.351 2.42898 19.5162 0.806061 19.5162 0.559543C19.2633 0.27613 18.9205 0.0870424 18.5445 0.0235383C18.1687 -0.039964 17.7823 0.0259214 17.4493 0.210299C16.8499 0.559543 16.6845 1.31964 16.2504 1.83322C14.5142 4.89418 12.1784 8.36601 10.5455 11.2626C9.94607 12.2898 9.94607 11.9406 9.42933 11.2626C8.31314 9.63969 6.86625 6.8458 5.85341 5.22288L3.78641 1.83322C3.49909 1.24416 3.13037 0.697913 2.69091 0.210299C2.11214 -0.200567 0.975293 0.128126 0.375863 0.395191Z" fill="black"/>
</svg>
