<svg width="150" height="140" viewBox="0 0 150 140" fill="none" xmlns="http://www.w3.org/2000/svg">
<g clip-path="url(#clip0_1163_4543)">
<path opacity="0.5" fill-rule="evenodd" clip-rule="evenodd" d="M75.0001 0C116.421 0 150 33.5785 150 75C150 79.46 149.608 83.8282 148.862 88.0742H145.169C145.954 83.8352 146.369 79.4663 146.369 75C146.369 35.5843 114.416 3.63136 75.0001 3.63136C68.2064 3.63136 61.6344 4.58144 55.4095 6.35434L53.5423 3.12046C60.3414 1.0938 67.5423 0 75.0001 0ZM75.0001 8.05502C76.6901 8.05502 78.0602 9.42488 78.0602 11.1151C78.0602 12.8051 76.6901 14.175 75.0001 14.175C73.3101 14.175 71.94 12.8051 71.94 11.1151C71.94 9.42488 73.3101 8.05502 75.0001 8.05502ZM141.945 75C141.945 76.6903 140.575 78.0601 138.885 78.0601C137.195 78.0601 135.825 76.6903 135.825 75C135.825 73.31 137.195 71.9401 138.885 71.9401C140.575 71.9401 141.945 73.31 141.945 75ZM75.0001 135.825C76.6901 135.825 78.0602 137.195 78.0602 138.885C78.0602 140.575 76.6901 141.945 75.0001 141.945C73.3101 141.945 71.94 140.575 71.94 138.885C71.94 137.195 73.3101 135.825 75.0001 135.825ZM14.175 75C14.175 76.6903 12.8049 78.0601 11.1146 78.0601C9.42485 78.0601 8.05476 76.6903 8.05476 75C8.05476 73.31 9.42485 71.9401 11.1146 71.9401C12.8049 71.9401 14.175 73.31 14.175 75ZM76.8956 77.0616H108.557V73.2702H76.8956V22.9787H73.1046V73.2702V77.0616H76.8956ZM147.947 92.4787C140.071 125.469 110.403 150 75.0001 150C56.6206 150 39.7888 143.385 26.746 132.411L28.5906 129.216C41.069 139.907 57.2791 146.369 75.0001 146.369C108.385 146.369 136.413 123.444 144.209 92.4787H147.947ZM23.3894 129.416C8.98398 115.75 0 96.4241 0 75C0 42.6175 20.5227 15.0289 49.2709 4.53031L51.1182 7.73049C23.4481 17.5545 3.63136 43.961 3.63136 75C3.63136 95.073 11.9215 113.207 25.261 126.174L23.3894 129.416Z" fill="#B3B3B3"/>
</g>
<defs>
<clipPath id="clip0_1163_4543">
<rect width="150" height="140" fill="white"/>
</clipPath>
</defs>
</svg>
