<svg width="150" height="140" viewBox="0 0 150 140" fill="none" xmlns="http://www.w3.org/2000/svg">
<g clip-path="url(#clip0_1163_4545)">
<g opacity="0.5">
<path fill-rule="evenodd" clip-rule="evenodd" d="M74.9448 0C116.366 0 149.945 33.5785 149.945 75C149.945 79.46 149.553 83.8282 148.807 88.0742H145.114C145.899 83.8352 146.313 79.4663 146.313 75C146.313 71.7443 146.092 68.541 145.669 65.4011C143.726 66.2419 141.798 66.5223 139.928 66.1702C137.466 65.7063 135.198 64.1665 133.24 61.3939C133.005 61.0596 132.768 60.6983 132.532 60.3107C131.342 58.3585 130.213 57.2879 129.232 56.7976C128.781 56.5717 128.376 56.4823 128.03 56.4901C127.749 56.4961 127.505 56.5732 127.311 56.6912C127.137 56.7979 127.012 56.9278 126.947 57.0577C126.336 58.2785 123.687 61.8645 120.422 64.3228C118.294 65.9263 115.854 67.1084 113.395 67.0398C110.811 66.968 108.081 64.6978 105.638 61.7295C101.968 57.2695 98.7349 51.0446 98.0577 49.1093C97.6724 48.0082 95.4116 45.6774 92.5813 43.1532C89.1467 40.0897 84.9695 36.8817 82.1613 35.1658C77.7206 32.452 70.6591 35.5642 64.9955 38.0601L64.2245 38.3997H64.2182C59.6649 40.3985 57.6028 41.9283 55.6424 43.3822C55.0115 43.8502 54.3898 44.3115 53.7483 44.7504C51.591 46.2266 49.4169 45.5388 47.3968 43.8296C45.7788 42.4605 44.2577 40.372 42.9916 38.3936C40.224 34.0686 45.2235 23.5722 46.8903 20.0734L46.8927 20.0744L47.0718 19.698C48.3285 17.0448 55.4916 15.4995 61.1823 14.2722C63.599 13.7509 65.7289 13.2911 66.7808 12.9128C68.8561 12.1655 71.5296 6.94087 73.035 3.65657C66.9189 3.8175 60.994 4.74794 55.3542 6.35434L53.487 3.12046C60.2861 1.0938 67.4872 0 74.9448 0ZM3.63242 72.1573C5.85952 72.3064 9.36749 72.1905 10.1535 70.1185C10.7461 68.5557 10.1559 66.5696 9.6598 64.8999C8.78025 61.9399 8.08443 59.5965 11.3724 58.6997C12.7165 58.3333 13.803 57.644 14.843 56.604C15.9838 55.4634 17.0805 53.9033 18.3629 51.9082C18.5447 51.6251 19.098 50.786 19.7357 49.819C23.1637 44.6178 29.6421 34.7889 29.757 31.2227C29.8777 27.4746 26.7151 23.3815 26.2652 22.8192C12.9519 35.2426 4.39491 52.6973 3.63242 72.1573ZM28.662 20.738C28.6746 20.7533 33.097 26.0965 32.9288 31.3221C32.7853 35.7809 25.9836 46.1001 22.3849 51.5601C21.9463 52.2254 21.5689 52.7979 21.0374 53.6246C19.6334 55.8088 18.4162 57.5332 17.0944 58.8551C15.6719 60.2775 14.1453 61.231 12.2061 61.7596C12.0527 61.8015 12.3418 62.7748 12.7073 64.0046C13.3416 66.1398 14.0963 68.6798 13.1263 71.2378C11.6738 75.0664 6.61034 75.4498 3.5769 75.3139C3.58562 77.3461 3.68039 79.3587 3.85562 81.3476C6.60453 81.3165 10.8062 81.7576 13.2962 84.397C13.7764 84.906 14.1981 85.3626 14.6142 85.8134C17.2313 88.6474 19.7534 91.3788 21.5982 91.2724C23.1264 91.1844 25.8466 91.0664 28.5774 91.3192C31.5018 91.5899 34.4315 92.3047 36.0902 93.9564C38.01 95.8672 37.4021 98.578 36.7453 101.507C36.2216 103.844 35.6554 106.369 36.7514 107.876C38.3154 110.025 39.4977 111.735 39.8641 113.266C40.377 115.409 39.6125 116.91 36.8786 117.881C36.2587 118.102 35.7412 118.273 35.2279 118.442C32.8103 119.241 30.5246 119.997 30.5856 121.056C30.6155 121.572 30.8183 122.286 31.041 123.071C31.6915 125.36 32.4768 128.126 31.0357 131.262C43.1445 140.726 58.385 146.369 74.9448 146.369C108.33 146.369 136.358 123.444 144.154 92.4787H147.892C140.017 125.469 110.347 150 74.9448 150C56.5653 150 39.7335 143.385 26.6906 132.411C27.1685 131.583 27.628 130.787 28.1166 129.941C29.0633 127.738 28.4712 125.654 27.9812 123.929C27.7109 122.977 27.4644 122.11 27.4135 121.23C27.2124 117.74 30.6244 116.612 34.2327 115.42C34.7989 115.233 35.3731 115.043 35.8212 114.884C36.6028 114.606 36.8578 114.327 36.7795 114C36.5548 113.062 35.5357 111.609 34.1768 109.741C32.2425 107.082 32.9725 103.825 33.6479 100.811C34.1055 98.7705 34.5287 96.882 33.8513 96.2075C32.814 95.1748 30.5898 94.691 28.2912 94.4784C25.7987 94.2477 23.224 94.3606 21.7725 94.4445C18.4366 94.6367 15.4131 91.3628 12.2759 87.9653C11.8268 87.4784 11.3767 86.9915 10.9826 86.5737C9.34594 84.8388 6.36555 84.4976 4.20534 84.5083C6.37064 100.764 14.0086 115.29 25.2058 126.174L23.3343 129.416C8.9288 115.75 -0.0551758 96.4241 -0.0551758 75C-0.0551758 42.6175 20.4674 15.0289 49.2155 4.53031L51.0631 7.73049C42.1186 10.906 33.8992 16.5943 28.662 20.738ZM50.0418 58.5519C48.9928 60.1563 48.1525 62.3883 47.6881 64.5233C47.2497 66.5378 47.1443 68.3747 47.5253 69.3594C48.344 71.4746 51.8101 74.6621 55.2177 77.7959C58.4211 80.7421 61.5774 83.6452 62.8874 86.0339C63.3748 86.9227 64.0505 88.1917 64.6991 89.4108C66.3944 92.5962 67.8546 95.3396 68.2545 95.5681L68.4841 95.7C70.1191 96.5948 74.2165 98.8374 72.7075 103.554C72.487 104.244 72.2381 104.898 71.9834 105.569C70.877 108.48 69.6295 111.762 71.9674 115.694C72.835 117.153 73.5665 118.655 74.2715 120.103C76.0747 123.806 77.6806 127.105 80.2146 126.721C81.8493 126.473 83.3251 125.492 84.5466 124.27C86.4138 122.403 87.6453 120.059 88.0323 118.742C88.4972 117.16 89.4291 115.216 90.6826 113.658C91.7638 112.313 93.1072 111.223 94.6559 110.793C95.6409 110.52 96.5539 109.675 97.0599 108.389C97.5442 107.158 97.6523 105.545 97.1312 103.635C96.3629 100.817 96.5418 98.4879 97.2803 96.4452C97.9977 94.4617 99.2274 92.8144 100.614 91.2644C102.033 89.6781 104.034 87.0749 105.239 84.6655C105.961 83.2206 106.384 81.9326 106.124 81.2261C105.898 80.6115 104.696 80.2921 103.398 79.9477C101.31 79.3929 99.0604 78.7952 97.7408 76.5618C97.1135 75.5005 96.2219 73.5555 95.1882 71.3013C93.0154 66.5625 90.1739 60.3657 88.3743 59.166C86.916 58.1939 85.438 57.4002 84.002 56.9271C82.6668 56.4874 81.3689 56.3257 80.1646 56.5667C79.2548 56.7484 78.5294 57.072 77.8253 57.3856C76.1717 58.1226 74.6058 58.8204 71.5634 58.3701C69.1925 58.0192 68.0549 56.9096 66.9024 55.786C65.9918 54.8985 65.067 53.9969 63.0677 53.9048C62.3522 53.872 61.842 53.8451 61.3532 53.8199C55.4402 53.5143 53.4034 53.4094 50.0418 58.5519ZM44.5784 63.8517C45.1181 61.3706 46.1169 58.7424 47.3799 56.8107C51.7383 50.143 54.2429 50.2722 61.5148 50.6481L63.2044 50.7327C66.4206 50.8813 67.779 52.206 69.1164 53.5094C69.8971 54.2707 70.6678 55.0223 72.0236 55.223C74.1685 55.5405 75.3183 55.0281 76.5318 54.4874C77.4153 54.0936 78.3258 53.6876 79.5427 53.4443C81.3239 53.0882 83.161 53.2998 84.9972 53.9048C86.7327 54.4763 88.465 55.3997 90.1407 56.517C92.6734 58.2053 95.7337 64.8791 98.0737 69.9828C99.057 72.1273 99.9055 73.9772 100.477 74.9447C101.136 76.0591 102.728 76.4828 104.207 76.8754C106.338 77.4413 108.312 77.9666 109.11 80.1316C109.715 81.7758 109.158 83.9169 108.075 86.0834C106.728 88.7763 104.529 91.644 102.977 93.3788C101.827 94.6646 100.817 96.0034 100.266 97.5274C99.7361 98.992 99.6167 100.694 100.191 102.801C100.91 105.438 100.732 107.737 100.02 109.546C99.1307 111.806 97.4097 113.323 95.5018 113.853C94.6666 114.085 93.8603 114.775 93.1581 115.648C92.1758 116.869 91.4448 118.395 91.0796 119.637C90.5861 121.315 89.064 124.255 86.7977 126.521C85.1498 128.169 83.089 129.504 80.6872 129.868C75.8438 130.602 73.7555 126.312 71.4104 121.496C70.7245 120.087 70.0127 118.626 69.2311 117.311C66.1145 112.07 67.6491 108.031 69.0105 104.45C69.2589 103.796 69.5015 103.158 69.6853 102.584C70.3956 100.363 67.9446 99.0216 66.9669 98.4864C66.7572 98.372 66.7688 98.3832 66.675 98.3294C65.4938 97.6544 63.8307 94.5303 61.9002 90.9033C61.3862 89.937 60.8459 88.9222 60.1009 87.5637C59.0396 85.6284 56.0747 82.9016 53.0658 80.1343C49.3917 76.7554 45.6545 73.3185 44.565 70.5039C43.9504 68.9159 44.0209 66.4142 44.5784 63.8517ZM145.153 62.1282C139.183 29.3543 110.83 4.38948 76.5098 3.651C75.0452 6.9462 71.3037 14.6551 67.8503 15.8982C66.5517 16.3655 64.3452 16.8417 61.8416 17.3817C56.8328 18.4619 50.5282 19.8221 49.9448 21.0538L49.7635 21.4353V21.4418C48.2853 24.5448 43.8512 33.8531 45.6661 36.6893C46.788 38.4426 48.1118 40.2729 49.4489 41.4043C50.384 42.1951 51.2788 42.5899 51.9569 42.1258C52.6123 41.6774 53.178 41.2581 53.7517 40.8323C55.8525 39.2744 58.0621 37.635 62.9443 35.4913L62.9434 35.4891L63.7141 35.1496C70.0524 32.3563 77.956 28.8733 83.8156 32.4542C86.7841 34.2683 91.1453 37.6108 94.6957 40.7773C97.8743 43.6122 100.475 46.405 101.055 48.0645C101.672 49.8267 104.66 55.5475 108.089 59.7145C110.008 62.047 111.975 63.8262 113.482 63.8679C115.107 63.9132 116.883 63.009 118.507 61.7855C121.364 59.6343 123.611 56.6394 124.111 55.6399C124.434 54.9925 124.966 54.4006 125.657 53.9799C126.296 53.5902 127.08 53.3381 127.968 53.3182C128.791 53.2998 129.7 53.4867 130.65 53.9615C132.117 54.6946 133.711 56.1437 135.243 58.6561C135.434 58.9695 135.634 59.2729 135.84 59.5654C137.288 61.6173 138.868 62.738 140.513 63.048C141.955 63.3197 143.52 62.9867 145.153 62.1282Z" fill="#B3B3B3"/>
</g>
</g>
<defs>
<clipPath id="clip0_1163_4545">
<rect width="150" height="140" fill="white"/>
</clipPath>
</defs>
</svg>
