<svg width="52" height="45" viewBox="0 0 52 45" fill="none" xmlns="http://www.w3.org/2000/svg">
<line x1="0.999756" y1="22" x2="48.5047" y2="22" stroke="white" stroke-width="2" stroke-linecap="round"/>
<path d="M29.9491 43.3319C29.5801 43.7428 29.6141 44.375 30.025 44.744C30.4359 45.113 31.0681 45.0791 31.4372 44.6681L29.9491 43.3319ZM31.4372 0.33186C31.0681 -0.0790596 30.4359 -0.113037 30.025 0.255966C29.6141 0.624969 29.5801 1.25722 29.9491 1.66814L31.4372 0.33186ZM50 22.5L50.7441 23.1681L51.3441 22.5L50.7441 21.8319L50 22.5ZM31.4372 44.6681L50.7441 23.1681L49.256 21.8319L29.9491 43.3319L31.4372 44.6681ZM50.7441 21.8319L31.4372 0.33186L29.9491 1.66814L49.256 23.1681L50.7441 21.8319Z" fill="white"/>
</svg>
