<svg width="52" height="45" viewBox="0 0 52 45" fill="none" xmlns="http://www.w3.org/2000/svg">
<line x1="51.0002" y1="23" x2="3.49529" y2="23" stroke="white" stroke-width="2" stroke-linecap="round"/>
<path d="M22.0509 1.66814C22.4199 1.25722 22.3859 0.624969 21.975 0.255965C21.5641 -0.113039 20.9319 -0.07906 20.5628 0.331859L22.0509 1.66814ZM20.5628 44.6681C20.9319 45.0791 21.5641 45.113 21.975 44.744C22.3859 44.375 22.4199 43.7428 22.0509 43.3319L20.5628 44.6681ZM1.99995 22.5L1.25592 21.8319L0.655931 22.5L1.25592 23.1681L1.99995 22.5ZM20.5628 0.331859L1.25592 21.8319L2.74399 23.1681L22.0509 1.66814L20.5628 0.331859ZM1.25592 23.1681L20.5628 44.6681L22.0509 43.3319L2.74399 21.8319L1.25592 23.1681Z" fill="white"/>
</svg>
