<svg width="23" height="23" viewBox="0 0 23 23" fill="none" xmlns="http://www.w3.org/2000/svg">
<g opacity="0.6" clip-path="url(#clip0_746_1306)">
<path d="M7.49488 15.1318C6.68878 14.3257 6.68878 13.0152 7.49488 12.2091L9.3805 10.3234L8.48483 9.42777L6.59921 11.3134C5.29813 12.6145 5.29813 14.7264 6.59921 16.0274C7.90029 17.3285 10.0122 17.3285 11.3133 16.0274L13.1989 14.1418L12.3032 13.2461L10.4176 15.1318C9.61149 15.9379 8.30098 15.9379 7.49488 15.1318ZM9.89904 13.6704L13.6703 9.89917L12.7275 8.95636L8.95623 12.7276L9.89904 13.6704ZM11.3133 6.59934L9.42764 8.48496L10.3233 9.38063L12.2089 7.49501C13.015 6.68891 14.3255 6.68891 15.1316 7.49501C15.9377 8.30111 15.9377 9.61162 15.1316 10.4177L13.246 12.3033L14.1417 13.199L16.0273 11.3134C17.3284 10.0123 17.3284 7.90042 16.0273 6.59934C14.7262 5.29827 12.6143 5.29827 11.3133 6.59934Z" fill="white"/>
</g>
<defs>
<clipPath id="clip0_746_1306">
<rect width="16" height="16" fill="white" transform="translate(0 11.3135) rotate(-45)"/>
</clipPath>
</defs>
</svg>
