<svg width="56" height="56" viewBox="0 0 56 56" fill="none" xmlns="http://www.w3.org/2000/svg">
<path d="M27.5849 0.0273449C31.2064 0.0273449 34.7924 0.741196 38.1382 2.12813C41.4839 3.51507 44.524 5.54797 47.0848 8.1107C49.6455 10.6734 51.6768 13.7158 53.0627 17.0642C54.4485 20.4125 55.1618 24.0013 55.1618 27.6255C55.1663 29.2673 55.022 30.906 54.7307 32.5217H48.5184C46.5242 32.5486 44.5599 32.0358 42.8329 31.0375C41.1059 30.0393 39.6804 28.5927 38.7072 26.8506L23.4141 0.335589C24.7948 0.130006 26.1889 0.0269548 27.5849 0.0273449" fill="#52BA61"/>
<path d="M51.4662 41.4432C49.6554 44.5828 47.2442 47.3346 44.3705 49.5415C41.4967 51.7483 38.2167 53.367 34.7178 54.305C31.2188 55.2429 27.5695 55.4819 23.9783 55.0081C20.387 54.5343 16.9242 53.3571 13.7877 51.5437C12.3654 50.7238 11.0196 49.7778 9.76642 48.717L12.8725 43.3365C13.8472 41.5956 15.273 40.1501 16.9996 39.152C18.7263 38.154 20.6899 37.6404 22.6838 37.6654H53.2789C52.7717 38.969 52.1656 40.232 51.4662 41.4432" fill="white"/>
<path d="M3.69506 41.4263C0.0379664 35.0863 -0.953205 27.5523 0.93948 20.4811C2.83216 13.4099 7.45375 7.38045 13.7879 3.71884C15.212 2.89813 16.7047 2.20278 18.2491 1.64062L21.3552 7.02992C22.3767 8.74336 22.9159 10.7014 22.9159 12.6966C22.9159 14.6918 22.3767 16.6498 21.3552 18.3633L6.06207 44.8783C5.19126 43.788 4.40301 42.6341 3.70386 41.4263" fill="white"/>
</svg>
