<?xml version="1.0" standalone="no"?>
<!DOCTYPE svg PUBLIC "-//W3C//DTD SVG 20010904//EN"
 "http://www.w3.org/TR/2001/REC-SVG-20010904/DTD/svg10.dtd">
<svg version="1.0" xmlns="http://www.w3.org/2000/svg"
 width="700.000000pt" height="700.000000pt" viewBox="0 0 700.000000 700.000000"
 preserveAspectRatio="xMidYMid meet">
<metadata>
Created by potrace 1.14, written by Peter Selinger 2001-2017
</metadata>
<g transform="translate(0.000000,700.000000) scale(0.100000,-0.100000)"
fill="#000000" stroke="none">
<path d="M3297 6994 c-1 -1 -53 -4 -115 -8 -62 -4 -118 -9 -125 -11 -6 -2 -37
-6 -66 -10 -30 -3 -57 -7 -59 -9 -2 -2 8 -22 22 -45 14 -22 26 -43 26 -46 0
-2 16 -29 35 -59 19 -30 35 -57 35 -60 0 -2 29 -53 63 -113 35 -59 135 -232
222 -383 87 -151 213 -369 280 -485 67 -115 133 -230 147 -255 14 -25 125
-218 248 -430 123 -212 231 -398 240 -415 57 -101 353 -614 458 -795 69 -118
132 -228 141 -245 40 -79 181 -255 262 -325 29 -25 57 -50 64 -57 35 -34 191
-132 270 -169 108 -51 182 -77 296 -103 137 -32 170 -34 642 -35 396 -2 449 0
456 13 8 15 14 51 26 146 3 22 7 50 10 63 22 123 23 624 1 752 -3 14 -7 51
-11 82 -3 31 -10 83 -16 115 -6 32 -12 72 -15 88 -19 116 -116 463 -153 550
-5 11 -19 47 -32 80 -12 33 -50 119 -84 192 -466 985 -1350 1682 -2420 1908
-60 13 -132 26 -160 30 -95 12 -120 15 -152 20 -74 13 -525 28 -536 19z"/>
<path d="M2165 6749 c-289 -116 -553 -266 -800 -454 -167 -128 -171 -131 -351
-310 -337 -336 -586 -709 -762 -1145 -62 -156 -147 -425 -168 -535 -2 -11 -10
-51 -19 -90 -8 -38 -17 -86 -19 -105 -2 -19 -7 -51 -10 -70 -23 -142 -31 -259
-31 -490 0 -196 9 -390 20 -422 2 -7 6 -35 9 -63 6 -49 12 -86 21 -135 3 -14
8 -38 11 -55 26 -151 120 -462 191 -635 81 -197 203 -426 316 -595 45 -68 138
-197 147 -205 4 -3 13 -15 22 -28 l16 -23 28 48 c15 26 38 66 50 88 12 22 68
121 126 220 57 99 169 292 249 430 79 137 149 259 156 270 7 11 15 26 19 34 4
8 36 64 72 125 36 61 75 129 87 151 13 22 132 229 265 460 134 231 254 440
268 465 14 25 33 57 43 72 11 14 19 28 19 31 0 2 23 44 52 93 45 78 117 204
180 314 21 35 105 180 123 212 6 9 23 41 39 70 15 29 34 60 42 69 8 8 14 18
14 22 0 4 21 41 46 84 157 265 224 487 227 748 1 70 -9 212 -17 250 -44 207
-88 322 -196 510 -12 22 -64 112 -115 200 -51 88 -106 183 -121 211 -85 151
-130 224 -139 224 -5 0 -55 -18 -110 -41z"/>
<path d="M2847 2294 c-1 -1 -49 -4 -107 -7 -58 -3 -118 -9 -135 -12 -16 -3
-55 -10 -85 -16 -145 -29 -324 -106 -480 -207 -103 -67 -296 -258 -360 -356
-25 -38 -138 -229 -251 -425 -158 -273 -204 -359 -196 -370 21 -25 281 -216
372 -272 316 -196 631 -332 975 -423 119 -31 314 -70 410 -81 25 -3 61 -7 80
-10 189 -24 570 -24 750 -1 14 2 48 7 75 10 28 4 75 11 105 16 30 5 71 12 90
15 67 11 206 44 295 70 621 179 1169 516 1595 981 96 104 124 137 175 204 27
36 53 70 58 75 77 95 208 307 297 480 76 148 152 317 145 323 -3 3 -3804 9
-3808 6z"/>
</g>
</svg>
